%TF.GenerationSoftware,KiCad,Pcbnew,9.0.4*%
%TF.CreationDate,2025-10-10T16:17:53+02:00*%
%TF.ProjectId,Timmer-555-bistable-0.0.1,54696d6d-6572-42d3-9535-352d62697374,rev?*%
%TF.SameCoordinates,Original*%
%TF.FileFunction,Legend,Top*%
%TF.FilePolarity,Positive*%
%FSLAX46Y46*%
G04 Gerber Fmt 4.6, Leading zero omitted, Abs format (unit mm)*
G04 Created by KiCad (PCBNEW 9.0.4) date 2025-10-10 16:17:53*
%MOMM*%
%LPD*%
G01*
G04 APERTURE LIST*
%ADD10C,0.150000*%
%ADD11C,0.120000*%
G04 APERTURE END LIST*
D10*
X130238095Y-56814819D02*
X130238095Y-57624342D01*
X130238095Y-57624342D02*
X130285714Y-57719580D01*
X130285714Y-57719580D02*
X130333333Y-57767200D01*
X130333333Y-57767200D02*
X130428571Y-57814819D01*
X130428571Y-57814819D02*
X130619047Y-57814819D01*
X130619047Y-57814819D02*
X130714285Y-57767200D01*
X130714285Y-57767200D02*
X130761904Y-57719580D01*
X130761904Y-57719580D02*
X130809523Y-57624342D01*
X130809523Y-57624342D02*
X130809523Y-56814819D01*
X131809523Y-57814819D02*
X131238095Y-57814819D01*
X131523809Y-57814819D02*
X131523809Y-56814819D01*
X131523809Y-56814819D02*
X131428571Y-56957676D01*
X131428571Y-56957676D02*
X131333333Y-57052914D01*
X131333333Y-57052914D02*
X131238095Y-57100533D01*
X150407200Y-68333332D02*
X150454819Y-68190475D01*
X150454819Y-68190475D02*
X150454819Y-67952380D01*
X150454819Y-67952380D02*
X150407200Y-67857142D01*
X150407200Y-67857142D02*
X150359580Y-67809523D01*
X150359580Y-67809523D02*
X150264342Y-67761904D01*
X150264342Y-67761904D02*
X150169104Y-67761904D01*
X150169104Y-67761904D02*
X150073866Y-67809523D01*
X150073866Y-67809523D02*
X150026247Y-67857142D01*
X150026247Y-67857142D02*
X149978628Y-67952380D01*
X149978628Y-67952380D02*
X149931009Y-68142856D01*
X149931009Y-68142856D02*
X149883390Y-68238094D01*
X149883390Y-68238094D02*
X149835771Y-68285713D01*
X149835771Y-68285713D02*
X149740533Y-68333332D01*
X149740533Y-68333332D02*
X149645295Y-68333332D01*
X149645295Y-68333332D02*
X149550057Y-68285713D01*
X149550057Y-68285713D02*
X149502438Y-68238094D01*
X149502438Y-68238094D02*
X149454819Y-68142856D01*
X149454819Y-68142856D02*
X149454819Y-67904761D01*
X149454819Y-67904761D02*
X149502438Y-67761904D01*
X149454819Y-67428570D02*
X150454819Y-67190475D01*
X150454819Y-67190475D02*
X149740533Y-66999999D01*
X149740533Y-66999999D02*
X150454819Y-66809523D01*
X150454819Y-66809523D02*
X149454819Y-66571428D01*
X149550057Y-66238094D02*
X149502438Y-66190475D01*
X149502438Y-66190475D02*
X149454819Y-66095237D01*
X149454819Y-66095237D02*
X149454819Y-65857142D01*
X149454819Y-65857142D02*
X149502438Y-65761904D01*
X149502438Y-65761904D02*
X149550057Y-65714285D01*
X149550057Y-65714285D02*
X149645295Y-65666666D01*
X149645295Y-65666666D02*
X149740533Y-65666666D01*
X149740533Y-65666666D02*
X149883390Y-65714285D01*
X149883390Y-65714285D02*
X150454819Y-66285713D01*
X150454819Y-66285713D02*
X150454819Y-65666666D01*
X168666667Y-61157200D02*
X168809524Y-61204819D01*
X168809524Y-61204819D02*
X169047619Y-61204819D01*
X169047619Y-61204819D02*
X169142857Y-61157200D01*
X169142857Y-61157200D02*
X169190476Y-61109580D01*
X169190476Y-61109580D02*
X169238095Y-61014342D01*
X169238095Y-61014342D02*
X169238095Y-60919104D01*
X169238095Y-60919104D02*
X169190476Y-60823866D01*
X169190476Y-60823866D02*
X169142857Y-60776247D01*
X169142857Y-60776247D02*
X169047619Y-60728628D01*
X169047619Y-60728628D02*
X168857143Y-60681009D01*
X168857143Y-60681009D02*
X168761905Y-60633390D01*
X168761905Y-60633390D02*
X168714286Y-60585771D01*
X168714286Y-60585771D02*
X168666667Y-60490533D01*
X168666667Y-60490533D02*
X168666667Y-60395295D01*
X168666667Y-60395295D02*
X168714286Y-60300057D01*
X168714286Y-60300057D02*
X168761905Y-60252438D01*
X168761905Y-60252438D02*
X168857143Y-60204819D01*
X168857143Y-60204819D02*
X169095238Y-60204819D01*
X169095238Y-60204819D02*
X169238095Y-60252438D01*
X169571429Y-60204819D02*
X169809524Y-61204819D01*
X169809524Y-61204819D02*
X170000000Y-60490533D01*
X170000000Y-60490533D02*
X170190476Y-61204819D01*
X170190476Y-61204819D02*
X170428572Y-60204819D01*
X171333333Y-61204819D02*
X170761905Y-61204819D01*
X171047619Y-61204819D02*
X171047619Y-60204819D01*
X171047619Y-60204819D02*
X170952381Y-60347676D01*
X170952381Y-60347676D02*
X170857143Y-60442914D01*
X170857143Y-60442914D02*
X170761905Y-60490533D01*
X105636667Y-37757200D02*
X105779524Y-37804819D01*
X105779524Y-37804819D02*
X106017619Y-37804819D01*
X106017619Y-37804819D02*
X106112857Y-37757200D01*
X106112857Y-37757200D02*
X106160476Y-37709580D01*
X106160476Y-37709580D02*
X106208095Y-37614342D01*
X106208095Y-37614342D02*
X106208095Y-37519104D01*
X106208095Y-37519104D02*
X106160476Y-37423866D01*
X106160476Y-37423866D02*
X106112857Y-37376247D01*
X106112857Y-37376247D02*
X106017619Y-37328628D01*
X106017619Y-37328628D02*
X105827143Y-37281009D01*
X105827143Y-37281009D02*
X105731905Y-37233390D01*
X105731905Y-37233390D02*
X105684286Y-37185771D01*
X105684286Y-37185771D02*
X105636667Y-37090533D01*
X105636667Y-37090533D02*
X105636667Y-36995295D01*
X105636667Y-36995295D02*
X105684286Y-36900057D01*
X105684286Y-36900057D02*
X105731905Y-36852438D01*
X105731905Y-36852438D02*
X105827143Y-36804819D01*
X105827143Y-36804819D02*
X106065238Y-36804819D01*
X106065238Y-36804819D02*
X106208095Y-36852438D01*
X106541429Y-36804819D02*
X106779524Y-37804819D01*
X106779524Y-37804819D02*
X106970000Y-37090533D01*
X106970000Y-37090533D02*
X107160476Y-37804819D01*
X107160476Y-37804819D02*
X107398572Y-36804819D01*
X107970000Y-36804819D02*
X108065238Y-36804819D01*
X108065238Y-36804819D02*
X108160476Y-36852438D01*
X108160476Y-36852438D02*
X108208095Y-36900057D01*
X108208095Y-36900057D02*
X108255714Y-36995295D01*
X108255714Y-36995295D02*
X108303333Y-37185771D01*
X108303333Y-37185771D02*
X108303333Y-37423866D01*
X108303333Y-37423866D02*
X108255714Y-37614342D01*
X108255714Y-37614342D02*
X108208095Y-37709580D01*
X108208095Y-37709580D02*
X108160476Y-37757200D01*
X108160476Y-37757200D02*
X108065238Y-37804819D01*
X108065238Y-37804819D02*
X107970000Y-37804819D01*
X107970000Y-37804819D02*
X107874762Y-37757200D01*
X107874762Y-37757200D02*
X107827143Y-37709580D01*
X107827143Y-37709580D02*
X107779524Y-37614342D01*
X107779524Y-37614342D02*
X107731905Y-37423866D01*
X107731905Y-37423866D02*
X107731905Y-37185771D01*
X107731905Y-37185771D02*
X107779524Y-36995295D01*
X107779524Y-36995295D02*
X107827143Y-36900057D01*
X107827143Y-36900057D02*
X107874762Y-36852438D01*
X107874762Y-36852438D02*
X107970000Y-36804819D01*
X160857143Y-38407200D02*
X161000000Y-38454819D01*
X161000000Y-38454819D02*
X161238095Y-38454819D01*
X161238095Y-38454819D02*
X161333333Y-38407200D01*
X161333333Y-38407200D02*
X161380952Y-38359580D01*
X161380952Y-38359580D02*
X161428571Y-38264342D01*
X161428571Y-38264342D02*
X161428571Y-38169104D01*
X161428571Y-38169104D02*
X161380952Y-38073866D01*
X161380952Y-38073866D02*
X161333333Y-38026247D01*
X161333333Y-38026247D02*
X161238095Y-37978628D01*
X161238095Y-37978628D02*
X161047619Y-37931009D01*
X161047619Y-37931009D02*
X160952381Y-37883390D01*
X160952381Y-37883390D02*
X160904762Y-37835771D01*
X160904762Y-37835771D02*
X160857143Y-37740533D01*
X160857143Y-37740533D02*
X160857143Y-37645295D01*
X160857143Y-37645295D02*
X160904762Y-37550057D01*
X160904762Y-37550057D02*
X160952381Y-37502438D01*
X160952381Y-37502438D02*
X161047619Y-37454819D01*
X161047619Y-37454819D02*
X161285714Y-37454819D01*
X161285714Y-37454819D02*
X161428571Y-37502438D01*
X162047619Y-37454819D02*
X162238095Y-37454819D01*
X162238095Y-37454819D02*
X162333333Y-37502438D01*
X162333333Y-37502438D02*
X162428571Y-37597676D01*
X162428571Y-37597676D02*
X162476190Y-37788152D01*
X162476190Y-37788152D02*
X162476190Y-38121485D01*
X162476190Y-38121485D02*
X162428571Y-38311961D01*
X162428571Y-38311961D02*
X162333333Y-38407200D01*
X162333333Y-38407200D02*
X162238095Y-38454819D01*
X162238095Y-38454819D02*
X162047619Y-38454819D01*
X162047619Y-38454819D02*
X161952381Y-38407200D01*
X161952381Y-38407200D02*
X161857143Y-38311961D01*
X161857143Y-38311961D02*
X161809524Y-38121485D01*
X161809524Y-38121485D02*
X161809524Y-37788152D01*
X161809524Y-37788152D02*
X161857143Y-37597676D01*
X161857143Y-37597676D02*
X161952381Y-37502438D01*
X161952381Y-37502438D02*
X162047619Y-37454819D01*
X162904762Y-37454819D02*
X162904762Y-38264342D01*
X162904762Y-38264342D02*
X162952381Y-38359580D01*
X162952381Y-38359580D02*
X163000000Y-38407200D01*
X163000000Y-38407200D02*
X163095238Y-38454819D01*
X163095238Y-38454819D02*
X163285714Y-38454819D01*
X163285714Y-38454819D02*
X163380952Y-38407200D01*
X163380952Y-38407200D02*
X163428571Y-38359580D01*
X163428571Y-38359580D02*
X163476190Y-38264342D01*
X163476190Y-38264342D02*
X163476190Y-37454819D01*
X164523809Y-38454819D02*
X164190476Y-37978628D01*
X163952381Y-38454819D02*
X163952381Y-37454819D01*
X163952381Y-37454819D02*
X164333333Y-37454819D01*
X164333333Y-37454819D02*
X164428571Y-37502438D01*
X164428571Y-37502438D02*
X164476190Y-37550057D01*
X164476190Y-37550057D02*
X164523809Y-37645295D01*
X164523809Y-37645295D02*
X164523809Y-37788152D01*
X164523809Y-37788152D02*
X164476190Y-37883390D01*
X164476190Y-37883390D02*
X164428571Y-37931009D01*
X164428571Y-37931009D02*
X164333333Y-37978628D01*
X164333333Y-37978628D02*
X163952381Y-37978628D01*
X165523809Y-38359580D02*
X165476190Y-38407200D01*
X165476190Y-38407200D02*
X165333333Y-38454819D01*
X165333333Y-38454819D02*
X165238095Y-38454819D01*
X165238095Y-38454819D02*
X165095238Y-38407200D01*
X165095238Y-38407200D02*
X165000000Y-38311961D01*
X165000000Y-38311961D02*
X164952381Y-38216723D01*
X164952381Y-38216723D02*
X164904762Y-38026247D01*
X164904762Y-38026247D02*
X164904762Y-37883390D01*
X164904762Y-37883390D02*
X164952381Y-37692914D01*
X164952381Y-37692914D02*
X165000000Y-37597676D01*
X165000000Y-37597676D02*
X165095238Y-37502438D01*
X165095238Y-37502438D02*
X165238095Y-37454819D01*
X165238095Y-37454819D02*
X165333333Y-37454819D01*
X165333333Y-37454819D02*
X165476190Y-37502438D01*
X165476190Y-37502438D02*
X165523809Y-37550057D01*
X165952381Y-37931009D02*
X166285714Y-37931009D01*
X166428571Y-38454819D02*
X165952381Y-38454819D01*
X165952381Y-38454819D02*
X165952381Y-37454819D01*
X165952381Y-37454819D02*
X166428571Y-37454819D01*
X166619048Y-38550057D02*
X167380952Y-38550057D01*
X167619048Y-38454819D02*
X167619048Y-37454819D01*
X167619048Y-37454819D02*
X167857143Y-37454819D01*
X167857143Y-37454819D02*
X168000000Y-37502438D01*
X168000000Y-37502438D02*
X168095238Y-37597676D01*
X168095238Y-37597676D02*
X168142857Y-37692914D01*
X168142857Y-37692914D02*
X168190476Y-37883390D01*
X168190476Y-37883390D02*
X168190476Y-38026247D01*
X168190476Y-38026247D02*
X168142857Y-38216723D01*
X168142857Y-38216723D02*
X168095238Y-38311961D01*
X168095238Y-38311961D02*
X168000000Y-38407200D01*
X168000000Y-38407200D02*
X167857143Y-38454819D01*
X167857143Y-38454819D02*
X167619048Y-38454819D01*
X169190476Y-38359580D02*
X169142857Y-38407200D01*
X169142857Y-38407200D02*
X169000000Y-38454819D01*
X169000000Y-38454819D02*
X168904762Y-38454819D01*
X168904762Y-38454819D02*
X168761905Y-38407200D01*
X168761905Y-38407200D02*
X168666667Y-38311961D01*
X168666667Y-38311961D02*
X168619048Y-38216723D01*
X168619048Y-38216723D02*
X168571429Y-38026247D01*
X168571429Y-38026247D02*
X168571429Y-37883390D01*
X168571429Y-37883390D02*
X168619048Y-37692914D01*
X168619048Y-37692914D02*
X168666667Y-37597676D01*
X168666667Y-37597676D02*
X168761905Y-37502438D01*
X168761905Y-37502438D02*
X168904762Y-37454819D01*
X168904762Y-37454819D02*
X169000000Y-37454819D01*
X169000000Y-37454819D02*
X169142857Y-37502438D01*
X169142857Y-37502438D02*
X169190476Y-37550057D01*
X170142857Y-38454819D02*
X169571429Y-38454819D01*
X169857143Y-38454819D02*
X169857143Y-37454819D01*
X169857143Y-37454819D02*
X169761905Y-37597676D01*
X169761905Y-37597676D02*
X169666667Y-37692914D01*
X169666667Y-37692914D02*
X169571429Y-37740533D01*
X171428571Y-42114700D02*
X172571429Y-42114700D01*
X172000000Y-42686128D02*
X172000000Y-41543271D01*
X158428571Y-42114700D02*
X159571429Y-42114700D01*
X141084819Y-48595238D02*
X140608628Y-48928571D01*
X141084819Y-49166666D02*
X140084819Y-49166666D01*
X140084819Y-49166666D02*
X140084819Y-48785714D01*
X140084819Y-48785714D02*
X140132438Y-48690476D01*
X140132438Y-48690476D02*
X140180057Y-48642857D01*
X140180057Y-48642857D02*
X140275295Y-48595238D01*
X140275295Y-48595238D02*
X140418152Y-48595238D01*
X140418152Y-48595238D02*
X140513390Y-48642857D01*
X140513390Y-48642857D02*
X140561009Y-48690476D01*
X140561009Y-48690476D02*
X140608628Y-48785714D01*
X140608628Y-48785714D02*
X140608628Y-49166666D01*
X140799104Y-48214285D02*
X140799104Y-47738095D01*
X141084819Y-48309523D02*
X140084819Y-47976190D01*
X140084819Y-47976190D02*
X141084819Y-47642857D01*
X140180057Y-47357142D02*
X140132438Y-47309523D01*
X140132438Y-47309523D02*
X140084819Y-47214285D01*
X140084819Y-47214285D02*
X140084819Y-46976190D01*
X140084819Y-46976190D02*
X140132438Y-46880952D01*
X140132438Y-46880952D02*
X140180057Y-46833333D01*
X140180057Y-46833333D02*
X140275295Y-46785714D01*
X140275295Y-46785714D02*
X140370533Y-46785714D01*
X140370533Y-46785714D02*
X140513390Y-46833333D01*
X140513390Y-46833333D02*
X141084819Y-47404761D01*
X141084819Y-47404761D02*
X141084819Y-46785714D01*
X149824819Y-79095238D02*
X149348628Y-79428571D01*
X149824819Y-79666666D02*
X148824819Y-79666666D01*
X148824819Y-79666666D02*
X148824819Y-79285714D01*
X148824819Y-79285714D02*
X148872438Y-79190476D01*
X148872438Y-79190476D02*
X148920057Y-79142857D01*
X148920057Y-79142857D02*
X149015295Y-79095238D01*
X149015295Y-79095238D02*
X149158152Y-79095238D01*
X149158152Y-79095238D02*
X149253390Y-79142857D01*
X149253390Y-79142857D02*
X149301009Y-79190476D01*
X149301009Y-79190476D02*
X149348628Y-79285714D01*
X149348628Y-79285714D02*
X149348628Y-79666666D01*
X149539104Y-78714285D02*
X149539104Y-78238095D01*
X149824819Y-78809523D02*
X148824819Y-78476190D01*
X148824819Y-78476190D02*
X149824819Y-78142857D01*
X149824819Y-77285714D02*
X149824819Y-77857142D01*
X149824819Y-77571428D02*
X148824819Y-77571428D01*
X148824819Y-77571428D02*
X148967676Y-77666666D01*
X148967676Y-77666666D02*
X149062914Y-77761904D01*
X149062914Y-77761904D02*
X149110533Y-77857142D01*
X109333333Y-69824819D02*
X109000000Y-69348628D01*
X108761905Y-69824819D02*
X108761905Y-68824819D01*
X108761905Y-68824819D02*
X109142857Y-68824819D01*
X109142857Y-68824819D02*
X109238095Y-68872438D01*
X109238095Y-68872438D02*
X109285714Y-68920057D01*
X109285714Y-68920057D02*
X109333333Y-69015295D01*
X109333333Y-69015295D02*
X109333333Y-69158152D01*
X109333333Y-69158152D02*
X109285714Y-69253390D01*
X109285714Y-69253390D02*
X109238095Y-69301009D01*
X109238095Y-69301009D02*
X109142857Y-69348628D01*
X109142857Y-69348628D02*
X108761905Y-69348628D01*
X110285714Y-69824819D02*
X109714286Y-69824819D01*
X110000000Y-69824819D02*
X110000000Y-68824819D01*
X110000000Y-68824819D02*
X109904762Y-68967676D01*
X109904762Y-68967676D02*
X109809524Y-69062914D01*
X109809524Y-69062914D02*
X109714286Y-69110533D01*
X106486905Y-62914819D02*
X106486905Y-61914819D01*
X106486905Y-61914819D02*
X106725000Y-61914819D01*
X106725000Y-61914819D02*
X106867857Y-61962438D01*
X106867857Y-61962438D02*
X106963095Y-62057676D01*
X106963095Y-62057676D02*
X107010714Y-62152914D01*
X107010714Y-62152914D02*
X107058333Y-62343390D01*
X107058333Y-62343390D02*
X107058333Y-62486247D01*
X107058333Y-62486247D02*
X107010714Y-62676723D01*
X107010714Y-62676723D02*
X106963095Y-62771961D01*
X106963095Y-62771961D02*
X106867857Y-62867200D01*
X106867857Y-62867200D02*
X106725000Y-62914819D01*
X106725000Y-62914819D02*
X106486905Y-62914819D01*
X108010714Y-62914819D02*
X107439286Y-62914819D01*
X107725000Y-62914819D02*
X107725000Y-61914819D01*
X107725000Y-61914819D02*
X107629762Y-62057676D01*
X107629762Y-62057676D02*
X107534524Y-62152914D01*
X107534524Y-62152914D02*
X107439286Y-62200533D01*
D11*
%TO.C,U1*%
X128750000Y-58360000D02*
X128750000Y-68640000D01*
X128750000Y-68640000D02*
X133250000Y-68640000D01*
X130000000Y-58360000D02*
X128750000Y-58360000D01*
X133250000Y-58360000D02*
X132000000Y-58360000D01*
X133250000Y-68640000D02*
X133250000Y-58360000D01*
X125750000Y-58300000D02*
X136250000Y-58300000D01*
X136250000Y-68700000D01*
X125750000Y-68700000D01*
X125750000Y-58300000D01*
X132000000Y-58360000D02*
G75*
G02*
X130000000Y-58360000I-1000000J0D01*
G01*
%TO.C,SW2*%
X152250000Y-63000000D02*
X153750000Y-63000000D01*
X156250000Y-61750000D02*
X156250000Y-57250000D01*
X149750000Y-57250000D02*
X149750000Y-61750000D01*
X153750000Y-56000000D02*
X152250000Y-56000000D01*
%TO.C,SW1*%
X166500000Y-64250000D02*
X166500000Y-65750000D01*
X167750000Y-68250000D02*
X172250000Y-68250000D01*
X172250000Y-61750000D02*
X167750000Y-61750000D01*
X173500000Y-65750000D02*
X173500000Y-64250000D01*
%TO.C,SW0*%
X99380000Y-38190000D02*
X114620000Y-38190000D01*
X99380000Y-44540000D02*
X114620000Y-44540000D01*
X99380000Y-45810000D02*
X99380000Y-38190000D01*
X99380000Y-45810000D02*
X114620000Y-45810000D01*
X114620000Y-45810000D02*
X114620000Y-38190000D01*
%TO.C,SOURCE_DC1*%
X160290000Y-40590000D02*
X160290000Y-43410000D01*
X160290000Y-40590000D02*
X161990000Y-39290000D01*
X160290000Y-43410000D02*
X161990000Y-44710000D01*
X161990000Y-39290000D02*
X170710000Y-39290000D01*
X161990000Y-44710000D02*
X170710000Y-44710000D01*
X170710000Y-39290000D02*
X170710000Y-44710000D01*
%TO.C,RA2*%
X141630000Y-51270000D02*
X141630000Y-44730000D01*
X141960000Y-51270000D02*
X141630000Y-51270000D01*
X144040000Y-51270000D02*
X144370000Y-51270000D01*
X144370000Y-51270000D02*
X144370000Y-44730000D01*
X141630000Y-44730000D02*
X141960000Y-44730000D01*
X144370000Y-44730000D02*
X144040000Y-44730000D01*
%TO.C,RA1*%
X148370000Y-75230000D02*
X148370000Y-81770000D01*
X148040000Y-75230000D02*
X148370000Y-75230000D01*
X145960000Y-75230000D02*
X145630000Y-75230000D01*
X145630000Y-75230000D02*
X145630000Y-81770000D01*
X148370000Y-81770000D02*
X148040000Y-81770000D01*
X145630000Y-81770000D02*
X145960000Y-81770000D01*
%TO.C,R1*%
X112770000Y-68370000D02*
X106230000Y-68370000D01*
X112770000Y-68040000D02*
X112770000Y-68370000D01*
X112770000Y-65960000D02*
X112770000Y-65630000D01*
X112770000Y-65630000D02*
X106230000Y-65630000D01*
X106230000Y-68370000D02*
X106230000Y-68040000D01*
X106230000Y-65630000D02*
X106230000Y-65960000D01*
%TO.C,D1*%
X109790000Y-60045000D02*
X109790000Y-56955000D01*
X109790000Y-60044830D02*
G75*
G02*
X104240000Y-58500000I-2560000J1544830D01*
G01*
X104240000Y-58500000D02*
G75*
G02*
X109790000Y-56955170I2990000J0D01*
G01*
X109730000Y-58500000D02*
G75*
G02*
X104730000Y-58500000I-2500000J0D01*
G01*
X104730000Y-58500000D02*
G75*
G02*
X109730000Y-58500000I2500000J0D01*
G01*
%TD*%
M02*
