M48
; DRILL file {KiCad 8.0.9} date 2025-08-13T21:24:57+0200
; FORMAT={-:-/ absolute / inch / decimal}
; #@! TF.CreationDate,2025-08-13T21:24:57+02:00
; #@! TF.GenerationSoftware,Kicad,Pcbnew,8.0.9
; #@! TF.FileFunction,Plated,1,2,PTH
FMAT,2
INCH
; #@! TA.AperFunction,Plated,PTH,ComponentDrill
T1C0.0394
; #@! TA.AperFunction,Plated,PTH,ComponentDrill
T2C0.0433
; #@! TA.AperFunction,Plated,PTH,ComponentDrill
T3C0.0472
; #@! TA.AperFunction,Plated,PTH,ComponentDrill
T4C0.0512
%
G90
G05
T1
X1.9291Y-1.9317
X2.4016Y-3.4278
X4.3701Y-3.0512
X4.3701Y-3.248
X4.4291Y-1.7913
X4.4291Y-1.9882
T2
X1.6701Y-3.4278
X1.7882Y-2.3451
X2.0701Y-3.4278
X2.1882Y-2.3451
X2.4378Y-2.5616
X2.4378Y-2.9553
X2.8378Y-2.5616
X2.8378Y-2.9553
X3.7961Y-2.2638
X3.8961Y-2.2638
X3.9152Y-3.1087
X3.9152Y-3.2087
X3.9152Y-3.3087
X3.9961Y-2.2638
T3
X2.3819Y-1.6732
X2.3819Y-1.9685
X3.3661Y-1.7152
X3.3661Y-2.0104
T4
X1.8443Y-2.7191
X1.8443Y-2.916
X4.9213Y-1.9033
X4.9667Y-2.9528
X4.9667Y-3.1496
X5.1181Y-1.9033
M30
