%TF.GenerationSoftware,KiCad,Pcbnew,8.0.4*%
%TF.CreationDate,2024-10-22T12:12:08+02:00*%
%TF.ProjectId,regulateur_tension,72656775-6c61-4746-9575-725f74656e73,rev?*%
%TF.SameCoordinates,Original*%
%TF.FileFunction,Legend,Top*%
%TF.FilePolarity,Positive*%
%FSLAX46Y46*%
G04 Gerber Fmt 4.6, Leading zero omitted, Abs format (unit mm)*
G04 Created by KiCad (PCBNEW 8.0.4) date 2024-10-22 12:12:08*
%MOMM*%
%LPD*%
G01*
G04 APERTURE LIST*
%ADD10C,0.150000*%
%ADD11C,0.120000*%
G04 APERTURE END LIST*
D10*
X32733333Y-23219580D02*
X32685714Y-23267200D01*
X32685714Y-23267200D02*
X32542857Y-23314819D01*
X32542857Y-23314819D02*
X32447619Y-23314819D01*
X32447619Y-23314819D02*
X32304762Y-23267200D01*
X32304762Y-23267200D02*
X32209524Y-23171961D01*
X32209524Y-23171961D02*
X32161905Y-23076723D01*
X32161905Y-23076723D02*
X32114286Y-22886247D01*
X32114286Y-22886247D02*
X32114286Y-22743390D01*
X32114286Y-22743390D02*
X32161905Y-22552914D01*
X32161905Y-22552914D02*
X32209524Y-22457676D01*
X32209524Y-22457676D02*
X32304762Y-22362438D01*
X32304762Y-22362438D02*
X32447619Y-22314819D01*
X32447619Y-22314819D02*
X32542857Y-22314819D01*
X32542857Y-22314819D02*
X32685714Y-22362438D01*
X32685714Y-22362438D02*
X32733333Y-22410057D01*
X33685714Y-23314819D02*
X33114286Y-23314819D01*
X33400000Y-23314819D02*
X33400000Y-22314819D01*
X33400000Y-22314819D02*
X33304762Y-22457676D01*
X33304762Y-22457676D02*
X33209524Y-22552914D01*
X33209524Y-22552914D02*
X33114286Y-22600533D01*
X89354819Y-56046666D02*
X88878628Y-56379999D01*
X89354819Y-56618094D02*
X88354819Y-56618094D01*
X88354819Y-56618094D02*
X88354819Y-56237142D01*
X88354819Y-56237142D02*
X88402438Y-56141904D01*
X88402438Y-56141904D02*
X88450057Y-56094285D01*
X88450057Y-56094285D02*
X88545295Y-56046666D01*
X88545295Y-56046666D02*
X88688152Y-56046666D01*
X88688152Y-56046666D02*
X88783390Y-56094285D01*
X88783390Y-56094285D02*
X88831009Y-56141904D01*
X88831009Y-56141904D02*
X88878628Y-56237142D01*
X88878628Y-56237142D02*
X88878628Y-56618094D01*
X88450057Y-55665713D02*
X88402438Y-55618094D01*
X88402438Y-55618094D02*
X88354819Y-55522856D01*
X88354819Y-55522856D02*
X88354819Y-55284761D01*
X88354819Y-55284761D02*
X88402438Y-55189523D01*
X88402438Y-55189523D02*
X88450057Y-55141904D01*
X88450057Y-55141904D02*
X88545295Y-55094285D01*
X88545295Y-55094285D02*
X88640533Y-55094285D01*
X88640533Y-55094285D02*
X88783390Y-55141904D01*
X88783390Y-55141904D02*
X89354819Y-55713332D01*
X89354819Y-55713332D02*
X89354819Y-55094285D01*
X47521905Y-34694819D02*
X47521905Y-33694819D01*
X47521905Y-33694819D02*
X47760000Y-33694819D01*
X47760000Y-33694819D02*
X47902857Y-33742438D01*
X47902857Y-33742438D02*
X47998095Y-33837676D01*
X47998095Y-33837676D02*
X48045714Y-33932914D01*
X48045714Y-33932914D02*
X48093333Y-34123390D01*
X48093333Y-34123390D02*
X48093333Y-34266247D01*
X48093333Y-34266247D02*
X48045714Y-34456723D01*
X48045714Y-34456723D02*
X47998095Y-34551961D01*
X47998095Y-34551961D02*
X47902857Y-34647200D01*
X47902857Y-34647200D02*
X47760000Y-34694819D01*
X47760000Y-34694819D02*
X47521905Y-34694819D01*
X48950476Y-34028152D02*
X48950476Y-34694819D01*
X48712381Y-33647200D02*
X48474286Y-34361485D01*
X48474286Y-34361485D02*
X49093333Y-34361485D01*
X42918095Y-35064819D02*
X42918095Y-34064819D01*
X43489523Y-35064819D02*
X43060952Y-34493390D01*
X43489523Y-34064819D02*
X42918095Y-34636247D01*
X83314819Y-38440952D02*
X83314819Y-38250476D01*
X83314819Y-38250476D02*
X83362438Y-38155238D01*
X83362438Y-38155238D02*
X83457676Y-38060000D01*
X83457676Y-38060000D02*
X83648152Y-38012381D01*
X83648152Y-38012381D02*
X83981485Y-38012381D01*
X83981485Y-38012381D02*
X84171961Y-38060000D01*
X84171961Y-38060000D02*
X84267200Y-38155238D01*
X84267200Y-38155238D02*
X84314819Y-38250476D01*
X84314819Y-38250476D02*
X84314819Y-38440952D01*
X84314819Y-38440952D02*
X84267200Y-38536190D01*
X84267200Y-38536190D02*
X84171961Y-38631428D01*
X84171961Y-38631428D02*
X83981485Y-38679047D01*
X83981485Y-38679047D02*
X83648152Y-38679047D01*
X83648152Y-38679047D02*
X83457676Y-38631428D01*
X83457676Y-38631428D02*
X83362438Y-38536190D01*
X83362438Y-38536190D02*
X83314819Y-38440952D01*
X83314819Y-37583809D02*
X84124342Y-37583809D01*
X84124342Y-37583809D02*
X84219580Y-37536190D01*
X84219580Y-37536190D02*
X84267200Y-37488571D01*
X84267200Y-37488571D02*
X84314819Y-37393333D01*
X84314819Y-37393333D02*
X84314819Y-37202857D01*
X84314819Y-37202857D02*
X84267200Y-37107619D01*
X84267200Y-37107619D02*
X84219580Y-37060000D01*
X84219580Y-37060000D02*
X84124342Y-37012381D01*
X84124342Y-37012381D02*
X83314819Y-37012381D01*
X83314819Y-36679047D02*
X83314819Y-36107619D01*
X84314819Y-36393333D02*
X83314819Y-36393333D01*
X84314819Y-35774285D02*
X83314819Y-35774285D01*
X83314819Y-35774285D02*
X83314819Y-35393333D01*
X83314819Y-35393333D02*
X83362438Y-35298095D01*
X83362438Y-35298095D02*
X83410057Y-35250476D01*
X83410057Y-35250476D02*
X83505295Y-35202857D01*
X83505295Y-35202857D02*
X83648152Y-35202857D01*
X83648152Y-35202857D02*
X83743390Y-35250476D01*
X83743390Y-35250476D02*
X83791009Y-35298095D01*
X83791009Y-35298095D02*
X83838628Y-35393333D01*
X83838628Y-35393333D02*
X83838628Y-35774285D01*
X83314819Y-34774285D02*
X84124342Y-34774285D01*
X84124342Y-34774285D02*
X84219580Y-34726666D01*
X84219580Y-34726666D02*
X84267200Y-34679047D01*
X84267200Y-34679047D02*
X84314819Y-34583809D01*
X84314819Y-34583809D02*
X84314819Y-34393333D01*
X84314819Y-34393333D02*
X84267200Y-34298095D01*
X84267200Y-34298095D02*
X84219580Y-34250476D01*
X84219580Y-34250476D02*
X84124342Y-34202857D01*
X84124342Y-34202857D02*
X83314819Y-34202857D01*
X83314819Y-33869523D02*
X83314819Y-33298095D01*
X84314819Y-33583809D02*
X83314819Y-33583809D01*
X84314819Y-32440952D02*
X84314819Y-33012380D01*
X84314819Y-32726666D02*
X83314819Y-32726666D01*
X83314819Y-32726666D02*
X83457676Y-32821904D01*
X83457676Y-32821904D02*
X83552914Y-32917142D01*
X83552914Y-32917142D02*
X83600533Y-33012380D01*
X72200951Y-18234819D02*
X71867618Y-17758628D01*
X71629523Y-18234819D02*
X71629523Y-17234819D01*
X71629523Y-17234819D02*
X72010475Y-17234819D01*
X72010475Y-17234819D02*
X72105713Y-17282438D01*
X72105713Y-17282438D02*
X72153332Y-17330057D01*
X72153332Y-17330057D02*
X72200951Y-17425295D01*
X72200951Y-17425295D02*
X72200951Y-17568152D01*
X72200951Y-17568152D02*
X72153332Y-17663390D01*
X72153332Y-17663390D02*
X72105713Y-17711009D01*
X72105713Y-17711009D02*
X72010475Y-17758628D01*
X72010475Y-17758628D02*
X71629523Y-17758628D01*
X73010475Y-18187200D02*
X72915237Y-18234819D01*
X72915237Y-18234819D02*
X72724761Y-18234819D01*
X72724761Y-18234819D02*
X72629523Y-18187200D01*
X72629523Y-18187200D02*
X72581904Y-18091961D01*
X72581904Y-18091961D02*
X72581904Y-17711009D01*
X72581904Y-17711009D02*
X72629523Y-17615771D01*
X72629523Y-17615771D02*
X72724761Y-17568152D01*
X72724761Y-17568152D02*
X72915237Y-17568152D01*
X72915237Y-17568152D02*
X73010475Y-17615771D01*
X73010475Y-17615771D02*
X73058094Y-17711009D01*
X73058094Y-17711009D02*
X73058094Y-17806247D01*
X73058094Y-17806247D02*
X72581904Y-17901485D01*
X73915237Y-17568152D02*
X73915237Y-18377676D01*
X73915237Y-18377676D02*
X73867618Y-18472914D01*
X73867618Y-18472914D02*
X73819999Y-18520533D01*
X73819999Y-18520533D02*
X73724761Y-18568152D01*
X73724761Y-18568152D02*
X73581904Y-18568152D01*
X73581904Y-18568152D02*
X73486666Y-18520533D01*
X73915237Y-18187200D02*
X73819999Y-18234819D01*
X73819999Y-18234819D02*
X73629523Y-18234819D01*
X73629523Y-18234819D02*
X73534285Y-18187200D01*
X73534285Y-18187200D02*
X73486666Y-18139580D01*
X73486666Y-18139580D02*
X73439047Y-18044342D01*
X73439047Y-18044342D02*
X73439047Y-17758628D01*
X73439047Y-17758628D02*
X73486666Y-17663390D01*
X73486666Y-17663390D02*
X73534285Y-17615771D01*
X73534285Y-17615771D02*
X73629523Y-17568152D01*
X73629523Y-17568152D02*
X73819999Y-17568152D01*
X73819999Y-17568152D02*
X73915237Y-17615771D01*
X74819999Y-17568152D02*
X74819999Y-18234819D01*
X74391428Y-17568152D02*
X74391428Y-18091961D01*
X74391428Y-18091961D02*
X74439047Y-18187200D01*
X74439047Y-18187200D02*
X74534285Y-18234819D01*
X74534285Y-18234819D02*
X74677142Y-18234819D01*
X74677142Y-18234819D02*
X74772380Y-18187200D01*
X74772380Y-18187200D02*
X74819999Y-18139580D01*
X75439047Y-18234819D02*
X75343809Y-18187200D01*
X75343809Y-18187200D02*
X75296190Y-18091961D01*
X75296190Y-18091961D02*
X75296190Y-17234819D01*
X76248571Y-18234819D02*
X76248571Y-17711009D01*
X76248571Y-17711009D02*
X76200952Y-17615771D01*
X76200952Y-17615771D02*
X76105714Y-17568152D01*
X76105714Y-17568152D02*
X75915238Y-17568152D01*
X75915238Y-17568152D02*
X75820000Y-17615771D01*
X76248571Y-18187200D02*
X76153333Y-18234819D01*
X76153333Y-18234819D02*
X75915238Y-18234819D01*
X75915238Y-18234819D02*
X75820000Y-18187200D01*
X75820000Y-18187200D02*
X75772381Y-18091961D01*
X75772381Y-18091961D02*
X75772381Y-17996723D01*
X75772381Y-17996723D02*
X75820000Y-17901485D01*
X75820000Y-17901485D02*
X75915238Y-17853866D01*
X75915238Y-17853866D02*
X76153333Y-17853866D01*
X76153333Y-17853866D02*
X76248571Y-17806247D01*
X76581905Y-17568152D02*
X76962857Y-17568152D01*
X76724762Y-17234819D02*
X76724762Y-18091961D01*
X76724762Y-18091961D02*
X76772381Y-18187200D01*
X76772381Y-18187200D02*
X76867619Y-18234819D01*
X76867619Y-18234819D02*
X76962857Y-18234819D01*
X77677143Y-18187200D02*
X77581905Y-18234819D01*
X77581905Y-18234819D02*
X77391429Y-18234819D01*
X77391429Y-18234819D02*
X77296191Y-18187200D01*
X77296191Y-18187200D02*
X77248572Y-18091961D01*
X77248572Y-18091961D02*
X77248572Y-17711009D01*
X77248572Y-17711009D02*
X77296191Y-17615771D01*
X77296191Y-17615771D02*
X77391429Y-17568152D01*
X77391429Y-17568152D02*
X77581905Y-17568152D01*
X77581905Y-17568152D02*
X77677143Y-17615771D01*
X77677143Y-17615771D02*
X77724762Y-17711009D01*
X77724762Y-17711009D02*
X77724762Y-17806247D01*
X77724762Y-17806247D02*
X77248572Y-17901485D01*
X78581905Y-17568152D02*
X78581905Y-18234819D01*
X78153334Y-17568152D02*
X78153334Y-18091961D01*
X78153334Y-18091961D02*
X78200953Y-18187200D01*
X78200953Y-18187200D02*
X78296191Y-18234819D01*
X78296191Y-18234819D02*
X78439048Y-18234819D01*
X78439048Y-18234819D02*
X78534286Y-18187200D01*
X78534286Y-18187200D02*
X78581905Y-18139580D01*
X79058096Y-18234819D02*
X79058096Y-17568152D01*
X79058096Y-17758628D02*
X79105715Y-17663390D01*
X79105715Y-17663390D02*
X79153334Y-17615771D01*
X79153334Y-17615771D02*
X79248572Y-17568152D01*
X79248572Y-17568152D02*
X79343810Y-17568152D01*
X79534287Y-17234819D02*
X79867620Y-18234819D01*
X79867620Y-18234819D02*
X80200953Y-17234819D01*
X81058096Y-18234819D02*
X80486668Y-18234819D01*
X80772382Y-18234819D02*
X80772382Y-17234819D01*
X80772382Y-17234819D02*
X80677144Y-17377676D01*
X80677144Y-17377676D02*
X80581906Y-17472914D01*
X80581906Y-17472914D02*
X80486668Y-17520533D01*
X27321905Y-52474819D02*
X27321905Y-51474819D01*
X27321905Y-51474819D02*
X27560000Y-51474819D01*
X27560000Y-51474819D02*
X27702857Y-51522438D01*
X27702857Y-51522438D02*
X27798095Y-51617676D01*
X27798095Y-51617676D02*
X27845714Y-51712914D01*
X27845714Y-51712914D02*
X27893333Y-51903390D01*
X27893333Y-51903390D02*
X27893333Y-52046247D01*
X27893333Y-52046247D02*
X27845714Y-52236723D01*
X27845714Y-52236723D02*
X27798095Y-52331961D01*
X27798095Y-52331961D02*
X27702857Y-52427200D01*
X27702857Y-52427200D02*
X27560000Y-52474819D01*
X27560000Y-52474819D02*
X27321905Y-52474819D01*
X28226667Y-51474819D02*
X28845714Y-51474819D01*
X28845714Y-51474819D02*
X28512381Y-51855771D01*
X28512381Y-51855771D02*
X28655238Y-51855771D01*
X28655238Y-51855771D02*
X28750476Y-51903390D01*
X28750476Y-51903390D02*
X28798095Y-51951009D01*
X28798095Y-51951009D02*
X28845714Y-52046247D01*
X28845714Y-52046247D02*
X28845714Y-52284342D01*
X28845714Y-52284342D02*
X28798095Y-52379580D01*
X28798095Y-52379580D02*
X28750476Y-52427200D01*
X28750476Y-52427200D02*
X28655238Y-52474819D01*
X28655238Y-52474819D02*
X28369524Y-52474819D01*
X28369524Y-52474819D02*
X28274286Y-52427200D01*
X28274286Y-52427200D02*
X28226667Y-52379580D01*
X22718095Y-52844819D02*
X22718095Y-51844819D01*
X23289523Y-52844819D02*
X22860952Y-52273390D01*
X23289523Y-51844819D02*
X22718095Y-52416247D01*
X63859580Y-16916666D02*
X63907200Y-16964285D01*
X63907200Y-16964285D02*
X63954819Y-17107142D01*
X63954819Y-17107142D02*
X63954819Y-17202380D01*
X63954819Y-17202380D02*
X63907200Y-17345237D01*
X63907200Y-17345237D02*
X63811961Y-17440475D01*
X63811961Y-17440475D02*
X63716723Y-17488094D01*
X63716723Y-17488094D02*
X63526247Y-17535713D01*
X63526247Y-17535713D02*
X63383390Y-17535713D01*
X63383390Y-17535713D02*
X63192914Y-17488094D01*
X63192914Y-17488094D02*
X63097676Y-17440475D01*
X63097676Y-17440475D02*
X63002438Y-17345237D01*
X63002438Y-17345237D02*
X62954819Y-17202380D01*
X62954819Y-17202380D02*
X62954819Y-17107142D01*
X62954819Y-17107142D02*
X63002438Y-16964285D01*
X63002438Y-16964285D02*
X63050057Y-16916666D01*
X63050057Y-16535713D02*
X63002438Y-16488094D01*
X63002438Y-16488094D02*
X62954819Y-16392856D01*
X62954819Y-16392856D02*
X62954819Y-16154761D01*
X62954819Y-16154761D02*
X63002438Y-16059523D01*
X63002438Y-16059523D02*
X63050057Y-16011904D01*
X63050057Y-16011904D02*
X63145295Y-15964285D01*
X63145295Y-15964285D02*
X63240533Y-15964285D01*
X63240533Y-15964285D02*
X63383390Y-16011904D01*
X63383390Y-16011904D02*
X63954819Y-16583332D01*
X63954819Y-16583332D02*
X63954819Y-15964285D01*
X25904819Y-26138094D02*
X24904819Y-26138094D01*
X24904819Y-26138094D02*
X24904819Y-25899999D01*
X24904819Y-25899999D02*
X24952438Y-25757142D01*
X24952438Y-25757142D02*
X25047676Y-25661904D01*
X25047676Y-25661904D02*
X25142914Y-25614285D01*
X25142914Y-25614285D02*
X25333390Y-25566666D01*
X25333390Y-25566666D02*
X25476247Y-25566666D01*
X25476247Y-25566666D02*
X25666723Y-25614285D01*
X25666723Y-25614285D02*
X25761961Y-25661904D01*
X25761961Y-25661904D02*
X25857200Y-25757142D01*
X25857200Y-25757142D02*
X25904819Y-25899999D01*
X25904819Y-25899999D02*
X25904819Y-26138094D01*
X25904819Y-24614285D02*
X25904819Y-25185713D01*
X25904819Y-24899999D02*
X24904819Y-24899999D01*
X24904819Y-24899999D02*
X25047676Y-24995237D01*
X25047676Y-24995237D02*
X25142914Y-25090475D01*
X25142914Y-25090475D02*
X25190533Y-25185713D01*
X25534819Y-20581904D02*
X24534819Y-20581904D01*
X25534819Y-20010476D02*
X24963390Y-20439047D01*
X24534819Y-20010476D02*
X25106247Y-20581904D01*
X47521905Y-52474819D02*
X47521905Y-51474819D01*
X47521905Y-51474819D02*
X47760000Y-51474819D01*
X47760000Y-51474819D02*
X47902857Y-51522438D01*
X47902857Y-51522438D02*
X47998095Y-51617676D01*
X47998095Y-51617676D02*
X48045714Y-51712914D01*
X48045714Y-51712914D02*
X48093333Y-51903390D01*
X48093333Y-51903390D02*
X48093333Y-52046247D01*
X48093333Y-52046247D02*
X48045714Y-52236723D01*
X48045714Y-52236723D02*
X47998095Y-52331961D01*
X47998095Y-52331961D02*
X47902857Y-52427200D01*
X47902857Y-52427200D02*
X47760000Y-52474819D01*
X47760000Y-52474819D02*
X47521905Y-52474819D01*
X48474286Y-51570057D02*
X48521905Y-51522438D01*
X48521905Y-51522438D02*
X48617143Y-51474819D01*
X48617143Y-51474819D02*
X48855238Y-51474819D01*
X48855238Y-51474819D02*
X48950476Y-51522438D01*
X48950476Y-51522438D02*
X48998095Y-51570057D01*
X48998095Y-51570057D02*
X49045714Y-51665295D01*
X49045714Y-51665295D02*
X49045714Y-51760533D01*
X49045714Y-51760533D02*
X48998095Y-51903390D01*
X48998095Y-51903390D02*
X48426667Y-52474819D01*
X48426667Y-52474819D02*
X49045714Y-52474819D01*
X42918095Y-52844819D02*
X42918095Y-51844819D01*
X43489523Y-52844819D02*
X43060952Y-52273390D01*
X43489523Y-51844819D02*
X42918095Y-52416247D01*
X38554819Y-49434285D02*
X37554819Y-49434285D01*
X38554819Y-48958095D02*
X37554819Y-48958095D01*
X37554819Y-48958095D02*
X38554819Y-48386667D01*
X38554819Y-48386667D02*
X37554819Y-48386667D01*
X38554819Y-47910476D02*
X37554819Y-47910476D01*
X37554819Y-47910476D02*
X37554819Y-47529524D01*
X37554819Y-47529524D02*
X37602438Y-47434286D01*
X37602438Y-47434286D02*
X37650057Y-47386667D01*
X37650057Y-47386667D02*
X37745295Y-47339048D01*
X37745295Y-47339048D02*
X37888152Y-47339048D01*
X37888152Y-47339048D02*
X37983390Y-47386667D01*
X37983390Y-47386667D02*
X38031009Y-47434286D01*
X38031009Y-47434286D02*
X38078628Y-47529524D01*
X38078628Y-47529524D02*
X38078628Y-47910476D01*
X37554819Y-46910476D02*
X38364342Y-46910476D01*
X38364342Y-46910476D02*
X38459580Y-46862857D01*
X38459580Y-46862857D02*
X38507200Y-46815238D01*
X38507200Y-46815238D02*
X38554819Y-46720000D01*
X38554819Y-46720000D02*
X38554819Y-46529524D01*
X38554819Y-46529524D02*
X38507200Y-46434286D01*
X38507200Y-46434286D02*
X38459580Y-46386667D01*
X38459580Y-46386667D02*
X38364342Y-46339048D01*
X38364342Y-46339048D02*
X37554819Y-46339048D01*
X37554819Y-46005714D02*
X37554819Y-45434286D01*
X38554819Y-45720000D02*
X37554819Y-45720000D01*
X38650057Y-45339048D02*
X38650057Y-44577143D01*
X38269104Y-44386666D02*
X38269104Y-43910476D01*
X38554819Y-44481904D02*
X37554819Y-44148571D01*
X37554819Y-44148571D02*
X38554819Y-43815238D01*
X38459580Y-42910476D02*
X38507200Y-42958095D01*
X38507200Y-42958095D02*
X38554819Y-43100952D01*
X38554819Y-43100952D02*
X38554819Y-43196190D01*
X38554819Y-43196190D02*
X38507200Y-43339047D01*
X38507200Y-43339047D02*
X38411961Y-43434285D01*
X38411961Y-43434285D02*
X38316723Y-43481904D01*
X38316723Y-43481904D02*
X38126247Y-43529523D01*
X38126247Y-43529523D02*
X37983390Y-43529523D01*
X37983390Y-43529523D02*
X37792914Y-43481904D01*
X37792914Y-43481904D02*
X37697676Y-43434285D01*
X37697676Y-43434285D02*
X37602438Y-43339047D01*
X37602438Y-43339047D02*
X37554819Y-43196190D01*
X37554819Y-43196190D02*
X37554819Y-43100952D01*
X37554819Y-43100952D02*
X37602438Y-42958095D01*
X37602438Y-42958095D02*
X37650057Y-42910476D01*
X38554819Y-41958095D02*
X38554819Y-42529523D01*
X38554819Y-42243809D02*
X37554819Y-42243809D01*
X37554819Y-42243809D02*
X37697676Y-42339047D01*
X37697676Y-42339047D02*
X37792914Y-42434285D01*
X37792914Y-42434285D02*
X37840533Y-42529523D01*
X73493333Y-38384819D02*
X73160000Y-37908628D01*
X72921905Y-38384819D02*
X72921905Y-37384819D01*
X72921905Y-37384819D02*
X73302857Y-37384819D01*
X73302857Y-37384819D02*
X73398095Y-37432438D01*
X73398095Y-37432438D02*
X73445714Y-37480057D01*
X73445714Y-37480057D02*
X73493333Y-37575295D01*
X73493333Y-37575295D02*
X73493333Y-37718152D01*
X73493333Y-37718152D02*
X73445714Y-37813390D01*
X73445714Y-37813390D02*
X73398095Y-37861009D01*
X73398095Y-37861009D02*
X73302857Y-37908628D01*
X73302857Y-37908628D02*
X72921905Y-37908628D01*
X74445714Y-38384819D02*
X73874286Y-38384819D01*
X74160000Y-38384819D02*
X74160000Y-37384819D01*
X74160000Y-37384819D02*
X74064762Y-37527676D01*
X74064762Y-37527676D02*
X73969524Y-37622914D01*
X73969524Y-37622914D02*
X73874286Y-37670533D01*
D11*
%TO.C,C1*%
X34765431Y-20295000D02*
X36065431Y-20295000D01*
X35415431Y-19645000D02*
X35415431Y-20945000D01*
X41850000Y-17430000D02*
X41850000Y-30590000D01*
X41890000Y-17430000D02*
X41890000Y-30590000D01*
X41930000Y-17430000D02*
X41930000Y-30590000D01*
X41970000Y-17431000D02*
X41970000Y-30589000D01*
X42010000Y-17431000D02*
X42010000Y-30589000D01*
X42050000Y-17433000D02*
X42050000Y-30587000D01*
X42090000Y-17434000D02*
X42090000Y-30586000D01*
X42130000Y-17435000D02*
X42130000Y-30585000D01*
X42170000Y-17437000D02*
X42170000Y-30583000D01*
X42210000Y-17439000D02*
X42210000Y-30581000D01*
X42250000Y-17442000D02*
X42250000Y-30578000D01*
X42290000Y-17444000D02*
X42290000Y-30576000D01*
X42330000Y-17447000D02*
X42330000Y-30573000D01*
X42370000Y-17450000D02*
X42370000Y-30570000D01*
X42410000Y-17453000D02*
X42410000Y-30567000D01*
X42450000Y-17457000D02*
X42450000Y-30563000D01*
X42490000Y-17461000D02*
X42490000Y-30559000D01*
X42530000Y-17465000D02*
X42530000Y-30555000D01*
X42571000Y-17469000D02*
X42571000Y-30551000D01*
X42611000Y-17473000D02*
X42611000Y-30547000D01*
X42651000Y-17478000D02*
X42651000Y-30542000D01*
X42691000Y-17483000D02*
X42691000Y-30537000D01*
X42731000Y-17488000D02*
X42731000Y-30532000D01*
X42771000Y-17494000D02*
X42771000Y-30526000D01*
X42811000Y-17499000D02*
X42811000Y-30521000D01*
X42851000Y-17505000D02*
X42851000Y-30515000D01*
X42891000Y-17512000D02*
X42891000Y-30508000D01*
X42931000Y-17518000D02*
X42931000Y-30502000D01*
X42971000Y-17525000D02*
X42971000Y-30495000D01*
X43011000Y-17532000D02*
X43011000Y-30488000D01*
X43051000Y-17539000D02*
X43051000Y-30481000D01*
X43091000Y-17547000D02*
X43091000Y-30473000D01*
X43131000Y-17554000D02*
X43131000Y-30466000D01*
X43171000Y-17562000D02*
X43171000Y-30458000D01*
X43211000Y-17571000D02*
X43211000Y-30449000D01*
X43251000Y-17579000D02*
X43251000Y-30441000D01*
X43291000Y-17588000D02*
X43291000Y-30432000D01*
X43331000Y-17597000D02*
X43331000Y-30423000D01*
X43371000Y-17606000D02*
X43371000Y-30414000D01*
X43411000Y-17616000D02*
X43411000Y-30404000D01*
X43451000Y-17626000D02*
X43451000Y-30394000D01*
X43491000Y-17636000D02*
X43491000Y-30384000D01*
X43531000Y-17646000D02*
X43531000Y-30374000D01*
X43571000Y-17657000D02*
X43571000Y-30363000D01*
X43611000Y-17668000D02*
X43611000Y-30352000D01*
X43651000Y-17679000D02*
X43651000Y-30341000D01*
X43691000Y-17690000D02*
X43691000Y-30330000D01*
X43731000Y-17702000D02*
X43731000Y-30318000D01*
X43771000Y-17714000D02*
X43771000Y-30306000D01*
X43811000Y-17726000D02*
X43811000Y-30294000D01*
X43851000Y-17739000D02*
X43851000Y-30281000D01*
X43891000Y-17752000D02*
X43891000Y-30268000D01*
X43931000Y-17765000D02*
X43931000Y-30255000D01*
X43971000Y-17778000D02*
X43971000Y-30242000D01*
X44011000Y-17792000D02*
X44011000Y-30228000D01*
X44051000Y-17806000D02*
X44051000Y-30214000D01*
X44091000Y-17820000D02*
X44091000Y-30200000D01*
X44131000Y-17835000D02*
X44131000Y-30185000D01*
X44171000Y-17849000D02*
X44171000Y-22570000D01*
X44171000Y-25450000D02*
X44171000Y-30171000D01*
X44211000Y-17864000D02*
X44211000Y-22570000D01*
X44211000Y-25450000D02*
X44211000Y-30156000D01*
X44251000Y-17880000D02*
X44251000Y-22570000D01*
X44251000Y-25450000D02*
X44251000Y-30140000D01*
X44291000Y-17896000D02*
X44291000Y-22570000D01*
X44291000Y-25450000D02*
X44291000Y-30124000D01*
X44331000Y-17912000D02*
X44331000Y-22570000D01*
X44331000Y-25450000D02*
X44331000Y-30108000D01*
X44371000Y-17928000D02*
X44371000Y-22570000D01*
X44371000Y-25450000D02*
X44371000Y-30092000D01*
X44411000Y-17945000D02*
X44411000Y-22570000D01*
X44411000Y-25450000D02*
X44411000Y-30075000D01*
X44451000Y-17961000D02*
X44451000Y-22570000D01*
X44451000Y-25450000D02*
X44451000Y-30059000D01*
X44491000Y-17979000D02*
X44491000Y-22570000D01*
X44491000Y-25450000D02*
X44491000Y-30041000D01*
X44531000Y-17996000D02*
X44531000Y-22570000D01*
X44531000Y-25450000D02*
X44531000Y-30024000D01*
X44571000Y-18014000D02*
X44571000Y-22570000D01*
X44571000Y-25450000D02*
X44571000Y-30006000D01*
X44611000Y-18032000D02*
X44611000Y-22570000D01*
X44611000Y-25450000D02*
X44611000Y-29988000D01*
X44651000Y-18051000D02*
X44651000Y-22570000D01*
X44651000Y-25450000D02*
X44651000Y-29969000D01*
X44691000Y-18070000D02*
X44691000Y-22570000D01*
X44691000Y-25450000D02*
X44691000Y-29950000D01*
X44731000Y-18089000D02*
X44731000Y-22570000D01*
X44731000Y-25450000D02*
X44731000Y-29931000D01*
X44771000Y-18108000D02*
X44771000Y-22570000D01*
X44771000Y-25450000D02*
X44771000Y-29912000D01*
X44811000Y-18128000D02*
X44811000Y-22570000D01*
X44811000Y-25450000D02*
X44811000Y-29892000D01*
X44851000Y-18148000D02*
X44851000Y-22570000D01*
X44851000Y-25450000D02*
X44851000Y-29872000D01*
X44891000Y-18169000D02*
X44891000Y-22570000D01*
X44891000Y-25450000D02*
X44891000Y-29851000D01*
X44931000Y-18190000D02*
X44931000Y-22570000D01*
X44931000Y-25450000D02*
X44931000Y-29830000D01*
X44971000Y-18211000D02*
X44971000Y-22570000D01*
X44971000Y-25450000D02*
X44971000Y-29809000D01*
X45011000Y-18232000D02*
X45011000Y-22570000D01*
X45011000Y-25450000D02*
X45011000Y-29788000D01*
X45051000Y-18254000D02*
X45051000Y-22570000D01*
X45051000Y-25450000D02*
X45051000Y-29766000D01*
X45091000Y-18277000D02*
X45091000Y-22570000D01*
X45091000Y-25450000D02*
X45091000Y-29743000D01*
X45131000Y-18299000D02*
X45131000Y-22570000D01*
X45131000Y-25450000D02*
X45131000Y-29721000D01*
X45171000Y-18322000D02*
X45171000Y-22570000D01*
X45171000Y-25450000D02*
X45171000Y-29698000D01*
X45211000Y-18346000D02*
X45211000Y-22570000D01*
X45211000Y-25450000D02*
X45211000Y-29674000D01*
X45251000Y-18369000D02*
X45251000Y-22570000D01*
X45251000Y-25450000D02*
X45251000Y-29651000D01*
X45291000Y-18393000D02*
X45291000Y-22570000D01*
X45291000Y-25450000D02*
X45291000Y-29627000D01*
X45331000Y-18418000D02*
X45331000Y-22570000D01*
X45331000Y-25450000D02*
X45331000Y-29602000D01*
X45371000Y-18443000D02*
X45371000Y-22570000D01*
X45371000Y-25450000D02*
X45371000Y-29577000D01*
X45411000Y-18468000D02*
X45411000Y-22570000D01*
X45411000Y-25450000D02*
X45411000Y-29552000D01*
X45451000Y-18494000D02*
X45451000Y-22570000D01*
X45451000Y-25450000D02*
X45451000Y-29526000D01*
X45491000Y-18520000D02*
X45491000Y-22570000D01*
X45491000Y-25450000D02*
X45491000Y-29500000D01*
X45531000Y-18547000D02*
X45531000Y-22570000D01*
X45531000Y-25450000D02*
X45531000Y-29473000D01*
X45571000Y-18574000D02*
X45571000Y-22570000D01*
X45571000Y-25450000D02*
X45571000Y-29446000D01*
X45611000Y-18601000D02*
X45611000Y-22570000D01*
X45611000Y-25450000D02*
X45611000Y-29419000D01*
X45651000Y-18629000D02*
X45651000Y-22570000D01*
X45651000Y-25450000D02*
X45651000Y-29391000D01*
X45691000Y-18657000D02*
X45691000Y-22570000D01*
X45691000Y-25450000D02*
X45691000Y-29363000D01*
X45731000Y-18686000D02*
X45731000Y-22570000D01*
X45731000Y-25450000D02*
X45731000Y-29334000D01*
X45771000Y-18715000D02*
X45771000Y-22570000D01*
X45771000Y-25450000D02*
X45771000Y-29305000D01*
X45811000Y-18745000D02*
X45811000Y-22570000D01*
X45811000Y-25450000D02*
X45811000Y-29275000D01*
X45851000Y-18775000D02*
X45851000Y-22570000D01*
X45851000Y-25450000D02*
X45851000Y-29245000D01*
X45891000Y-18805000D02*
X45891000Y-22570000D01*
X45891000Y-25450000D02*
X45891000Y-29215000D01*
X45931000Y-18836000D02*
X45931000Y-22570000D01*
X45931000Y-25450000D02*
X45931000Y-29184000D01*
X45971000Y-18868000D02*
X45971000Y-22570000D01*
X45971000Y-25450000D02*
X45971000Y-29152000D01*
X46011000Y-18900000D02*
X46011000Y-22570000D01*
X46011000Y-25450000D02*
X46011000Y-29120000D01*
X46051000Y-18932000D02*
X46051000Y-22570000D01*
X46051000Y-25450000D02*
X46051000Y-29088000D01*
X46091000Y-18966000D02*
X46091000Y-22570000D01*
X46091000Y-25450000D02*
X46091000Y-29054000D01*
X46131000Y-18999000D02*
X46131000Y-22570000D01*
X46131000Y-25450000D02*
X46131000Y-29021000D01*
X46171000Y-19033000D02*
X46171000Y-22570000D01*
X46171000Y-25450000D02*
X46171000Y-28987000D01*
X46211000Y-19068000D02*
X46211000Y-22570000D01*
X46211000Y-25450000D02*
X46211000Y-28952000D01*
X46251000Y-19103000D02*
X46251000Y-22570000D01*
X46251000Y-25450000D02*
X46251000Y-28917000D01*
X46291000Y-19139000D02*
X46291000Y-22570000D01*
X46291000Y-25450000D02*
X46291000Y-28881000D01*
X46331000Y-19176000D02*
X46331000Y-22570000D01*
X46331000Y-25450000D02*
X46331000Y-28844000D01*
X46371000Y-19213000D02*
X46371000Y-22570000D01*
X46371000Y-25450000D02*
X46371000Y-28807000D01*
X46411000Y-19250000D02*
X46411000Y-22570000D01*
X46411000Y-25450000D02*
X46411000Y-28770000D01*
X46451000Y-19289000D02*
X46451000Y-22570000D01*
X46451000Y-25450000D02*
X46451000Y-28731000D01*
X46491000Y-19328000D02*
X46491000Y-22570000D01*
X46491000Y-25450000D02*
X46491000Y-28692000D01*
X46531000Y-19367000D02*
X46531000Y-22570000D01*
X46531000Y-25450000D02*
X46531000Y-28653000D01*
X46571000Y-19408000D02*
X46571000Y-22570000D01*
X46571000Y-25450000D02*
X46571000Y-28612000D01*
X46611000Y-19449000D02*
X46611000Y-22570000D01*
X46611000Y-25450000D02*
X46611000Y-28571000D01*
X46651000Y-19491000D02*
X46651000Y-22570000D01*
X46651000Y-25450000D02*
X46651000Y-28529000D01*
X46691000Y-19533000D02*
X46691000Y-22570000D01*
X46691000Y-25450000D02*
X46691000Y-28487000D01*
X46731000Y-19576000D02*
X46731000Y-22570000D01*
X46731000Y-25450000D02*
X46731000Y-28444000D01*
X46771000Y-19620000D02*
X46771000Y-22570000D01*
X46771000Y-25450000D02*
X46771000Y-28400000D01*
X46811000Y-19665000D02*
X46811000Y-22570000D01*
X46811000Y-25450000D02*
X46811000Y-28355000D01*
X46851000Y-19711000D02*
X46851000Y-22570000D01*
X46851000Y-25450000D02*
X46851000Y-28309000D01*
X46891000Y-19757000D02*
X46891000Y-22570000D01*
X46891000Y-25450000D02*
X46891000Y-28263000D01*
X46931000Y-19805000D02*
X46931000Y-22570000D01*
X46931000Y-25450000D02*
X46931000Y-28215000D01*
X46971000Y-19853000D02*
X46971000Y-22570000D01*
X46971000Y-25450000D02*
X46971000Y-28167000D01*
X47011000Y-19902000D02*
X47011000Y-22570000D01*
X47011000Y-25450000D02*
X47011000Y-28118000D01*
X47051000Y-19953000D02*
X47051000Y-28067000D01*
X47091000Y-20004000D02*
X47091000Y-28016000D01*
X47131000Y-20056000D02*
X47131000Y-27964000D01*
X47171000Y-20110000D02*
X47171000Y-27910000D01*
X47211000Y-20164000D02*
X47211000Y-27856000D01*
X47251000Y-20220000D02*
X47251000Y-27800000D01*
X47291000Y-20277000D02*
X47291000Y-27743000D01*
X47331000Y-20335000D02*
X47331000Y-27685000D01*
X47371000Y-20395000D02*
X47371000Y-27625000D01*
X47411000Y-20456000D02*
X47411000Y-27564000D01*
X47451000Y-20519000D02*
X47451000Y-27501000D01*
X47491000Y-20583000D02*
X47491000Y-27437000D01*
X47531000Y-20649000D02*
X47531000Y-27371000D01*
X47571000Y-20717000D02*
X47571000Y-27303000D01*
X47611000Y-20787000D02*
X47611000Y-27233000D01*
X47651000Y-20858000D02*
X47651000Y-27162000D01*
X47691000Y-20932000D02*
X47691000Y-27088000D01*
X47731000Y-21008000D02*
X47731000Y-27012000D01*
X47771000Y-21087000D02*
X47771000Y-26933000D01*
X47811000Y-21168000D02*
X47811000Y-26852000D01*
X47851000Y-21252000D02*
X47851000Y-26768000D01*
X47891000Y-21340000D02*
X47891000Y-26680000D01*
X47931000Y-21431000D02*
X47931000Y-26589000D01*
X47971000Y-21526000D02*
X47971000Y-26494000D01*
X48011000Y-21625000D02*
X48011000Y-26395000D01*
X48051000Y-21729000D02*
X48051000Y-26291000D01*
X48091000Y-21839000D02*
X48091000Y-26181000D01*
X48131000Y-21955000D02*
X48131000Y-26065000D01*
X48171000Y-22079000D02*
X48171000Y-25941000D01*
X48211000Y-22212000D02*
X48211000Y-25808000D01*
X48251000Y-22357000D02*
X48251000Y-25663000D01*
X48291000Y-22516000D02*
X48291000Y-25504000D01*
X48331000Y-22695000D02*
X48331000Y-25325000D01*
X48371000Y-22903000D02*
X48371000Y-25117000D01*
X48411000Y-23160000D02*
X48411000Y-24860000D01*
X48451000Y-23535000D02*
X48451000Y-24485000D01*
X48470000Y-24010000D02*
G75*
G02*
X35230000Y-24010000I-6620000J0D01*
G01*
X35230000Y-24010000D02*
G75*
G02*
X48470000Y-24010000I6620000J0D01*
G01*
%TO.C,R2*%
X70820000Y-46100000D02*
X70820000Y-64340000D01*
X72515000Y-46100000D02*
X70820000Y-46100000D01*
X77515000Y-46100000D02*
X75365000Y-46100000D01*
X82514000Y-46100000D02*
X80365000Y-46100000D01*
X87060000Y-46100000D02*
X85366000Y-46100000D01*
X87060000Y-46100000D02*
X87060000Y-64340000D01*
X87060000Y-64340000D02*
X70820000Y-64340000D01*
%TO.C,D4*%
X44520000Y-36710000D02*
X45540000Y-36710000D01*
X45540000Y-35240000D02*
X45540000Y-38180000D01*
X45540000Y-38180000D02*
X50980000Y-38180000D01*
X46320000Y-35240000D02*
X46320000Y-38180000D01*
X46440000Y-35240000D02*
X46440000Y-38180000D01*
X46560000Y-35240000D02*
X46560000Y-38180000D01*
X50980000Y-35240000D02*
X45540000Y-35240000D01*
X50980000Y-38180000D02*
X50980000Y-35240000D01*
X52000000Y-36710000D02*
X50980000Y-36710000D01*
%TO.C,OUTPUT1*%
X87200000Y-29070000D02*
X95620000Y-29070000D01*
X87200000Y-39190000D02*
X87200000Y-29070000D01*
X87200000Y-39190000D02*
X95620000Y-39190000D01*
X87260000Y-30630000D02*
X88260000Y-30630000D01*
X87260000Y-32630000D02*
X87260000Y-30630000D01*
X87260000Y-32630000D02*
X88260000Y-32630000D01*
X87260000Y-35630000D02*
X88260000Y-35630000D01*
X87260000Y-37630000D02*
X87260000Y-35630000D01*
X87260000Y-37630000D02*
X88260000Y-37630000D01*
X88260000Y-32630000D02*
X88260000Y-30630000D01*
X88260000Y-37630000D02*
X88260000Y-35630000D01*
X89259000Y-39190000D02*
X89259000Y-29070000D01*
X90285000Y-30560000D02*
X90321000Y-30595000D01*
X90491000Y-30355000D02*
X90537000Y-30402000D01*
X92583000Y-32857000D02*
X92629000Y-32904000D01*
X92799000Y-32664000D02*
X92834000Y-32699000D01*
X93560000Y-39190000D02*
X93560000Y-29070000D01*
X95060000Y-39190000D02*
X95060000Y-29070000D01*
X95120000Y-39430000D02*
X95860000Y-39430000D01*
X95620000Y-39190000D02*
X95620000Y-29070000D01*
X95860000Y-39430000D02*
X95860000Y-38930000D01*
X90024573Y-37313042D02*
G75*
G02*
X90025000Y-35946000I1535420J683041D01*
G01*
X90876958Y-35094573D02*
G75*
G02*
X92244000Y-35095000I683042J-1535427D01*
G01*
X92243042Y-38165427D02*
G75*
G02*
X90876000Y-38165000I-683041J1535420D01*
G01*
X93094756Y-35946682D02*
G75*
G02*
X93240000Y-36630000I-1534756J-683318D01*
G01*
X93240253Y-36601195D02*
G75*
G02*
X93095000Y-37314000I-1680254J-28806D01*
G01*
X93240000Y-31630000D02*
G75*
G02*
X89880000Y-31630000I-1680000J0D01*
G01*
X89880000Y-31630000D02*
G75*
G02*
X93240000Y-31630000I1680000J0D01*
G01*
%TO.C,RegulateurV1*%
X71200000Y-23280000D02*
X71200000Y-27921000D01*
X71200000Y-23280000D02*
X81440000Y-23280000D01*
X71200000Y-24790000D02*
X81440000Y-24790000D01*
X71200000Y-27921000D02*
X81440000Y-27921000D01*
X74470000Y-23280000D02*
X74470000Y-24790000D01*
X78171000Y-23280000D02*
X78171000Y-24790000D01*
X81440000Y-23280000D02*
X81440000Y-27921000D01*
%TO.C,D3*%
X24320000Y-54490000D02*
X25340000Y-54490000D01*
X25340000Y-53020000D02*
X25340000Y-55960000D01*
X25340000Y-55960000D02*
X30780000Y-55960000D01*
X26120000Y-53020000D02*
X26120000Y-55960000D01*
X26240000Y-53020000D02*
X26240000Y-55960000D01*
X26360000Y-53020000D02*
X26360000Y-55960000D01*
X30780000Y-53020000D02*
X25340000Y-53020000D01*
X30780000Y-55960000D02*
X30780000Y-53020000D01*
X31800000Y-54490000D02*
X30780000Y-54490000D01*
%TO.C,C2*%
X56980000Y-26511000D02*
X52259000Y-26511000D01*
X56980000Y-26551000D02*
X52274000Y-26551000D01*
X56980000Y-26591000D02*
X52290000Y-26591000D01*
X56980000Y-26631000D02*
X52306000Y-26631000D01*
X56980000Y-26671000D02*
X52322000Y-26671000D01*
X56980000Y-26711000D02*
X52338000Y-26711000D01*
X56980000Y-26751000D02*
X52355000Y-26751000D01*
X56980000Y-26791000D02*
X52371000Y-26791000D01*
X56980000Y-26831000D02*
X52389000Y-26831000D01*
X56980000Y-26871000D02*
X52406000Y-26871000D01*
X56980000Y-26911000D02*
X52424000Y-26911000D01*
X56980000Y-26951000D02*
X52442000Y-26951000D01*
X56980000Y-26991000D02*
X52461000Y-26991000D01*
X56980000Y-27031000D02*
X52480000Y-27031000D01*
X56980000Y-27071000D02*
X52499000Y-27071000D01*
X56980000Y-27111000D02*
X52518000Y-27111000D01*
X56980000Y-27151000D02*
X52538000Y-27151000D01*
X56980000Y-27191000D02*
X52558000Y-27191000D01*
X56980000Y-27231000D02*
X52579000Y-27231000D01*
X56980000Y-27271000D02*
X52600000Y-27271000D01*
X56980000Y-27311000D02*
X52621000Y-27311000D01*
X56980000Y-27351000D02*
X52642000Y-27351000D01*
X56980000Y-27391000D02*
X52664000Y-27391000D01*
X56980000Y-27431000D02*
X52687000Y-27431000D01*
X56980000Y-27471000D02*
X52709000Y-27471000D01*
X56980000Y-27511000D02*
X52732000Y-27511000D01*
X56980000Y-27551000D02*
X52756000Y-27551000D01*
X56980000Y-27591000D02*
X52779000Y-27591000D01*
X56980000Y-27631000D02*
X52803000Y-27631000D01*
X56980000Y-27671000D02*
X52828000Y-27671000D01*
X56980000Y-27711000D02*
X52853000Y-27711000D01*
X56980000Y-27751000D02*
X52878000Y-27751000D01*
X56980000Y-27791000D02*
X52904000Y-27791000D01*
X56980000Y-27831000D02*
X52930000Y-27831000D01*
X56980000Y-27871000D02*
X52957000Y-27871000D01*
X56980000Y-27911000D02*
X52984000Y-27911000D01*
X56980000Y-27951000D02*
X53011000Y-27951000D01*
X56980000Y-27991000D02*
X53039000Y-27991000D01*
X56980000Y-28031000D02*
X53067000Y-28031000D01*
X56980000Y-28071000D02*
X53096000Y-28071000D01*
X56980000Y-28111000D02*
X53125000Y-28111000D01*
X56980000Y-28151000D02*
X53155000Y-28151000D01*
X56980000Y-28191000D02*
X53185000Y-28191000D01*
X56980000Y-28231000D02*
X53215000Y-28231000D01*
X56980000Y-28271000D02*
X53246000Y-28271000D01*
X56980000Y-28311000D02*
X53278000Y-28311000D01*
X56980000Y-28351000D02*
X53310000Y-28351000D01*
X56980000Y-28391000D02*
X53342000Y-28391000D01*
X56980000Y-28431000D02*
X53376000Y-28431000D01*
X56980000Y-28471000D02*
X53409000Y-28471000D01*
X56980000Y-28511000D02*
X53443000Y-28511000D01*
X56980000Y-28551000D02*
X53478000Y-28551000D01*
X56980000Y-28591000D02*
X53513000Y-28591000D01*
X56980000Y-28631000D02*
X53549000Y-28631000D01*
X56980000Y-28671000D02*
X53586000Y-28671000D01*
X56980000Y-28711000D02*
X53623000Y-28711000D01*
X56980000Y-28751000D02*
X53660000Y-28751000D01*
X56980000Y-28791000D02*
X53699000Y-28791000D01*
X56980000Y-28831000D02*
X53738000Y-28831000D01*
X56980000Y-28871000D02*
X53777000Y-28871000D01*
X56980000Y-28911000D02*
X53818000Y-28911000D01*
X56980000Y-28951000D02*
X53859000Y-28951000D01*
X56980000Y-28991000D02*
X53901000Y-28991000D01*
X56980000Y-29031000D02*
X53943000Y-29031000D01*
X56980000Y-29071000D02*
X53986000Y-29071000D01*
X56980000Y-29111000D02*
X54030000Y-29111000D01*
X56980000Y-29151000D02*
X54075000Y-29151000D01*
X56980000Y-29191000D02*
X54121000Y-29191000D01*
X56980000Y-29231000D02*
X54167000Y-29231000D01*
X56980000Y-29271000D02*
X54215000Y-29271000D01*
X56980000Y-29311000D02*
X54263000Y-29311000D01*
X56980000Y-29351000D02*
X54312000Y-29351000D01*
X58895000Y-30791000D02*
X57945000Y-30791000D01*
X59270000Y-30751000D02*
X57570000Y-30751000D01*
X59527000Y-30711000D02*
X57313000Y-30711000D01*
X59735000Y-30671000D02*
X57105000Y-30671000D01*
X59914000Y-30631000D02*
X56926000Y-30631000D01*
X60073000Y-30591000D02*
X56767000Y-30591000D01*
X60218000Y-30551000D02*
X56622000Y-30551000D01*
X60351000Y-30511000D02*
X56489000Y-30511000D01*
X60475000Y-30471000D02*
X56365000Y-30471000D01*
X60591000Y-30431000D02*
X56249000Y-30431000D01*
X60701000Y-30391000D02*
X56139000Y-30391000D01*
X60805000Y-30351000D02*
X56035000Y-30351000D01*
X60904000Y-30311000D02*
X55936000Y-30311000D01*
X60999000Y-30271000D02*
X55841000Y-30271000D01*
X61090000Y-30231000D02*
X55750000Y-30231000D01*
X61178000Y-30191000D02*
X55662000Y-30191000D01*
X61262000Y-30151000D02*
X55578000Y-30151000D01*
X61343000Y-30111000D02*
X55497000Y-30111000D01*
X61422000Y-30071000D02*
X55418000Y-30071000D01*
X61498000Y-30031000D02*
X55342000Y-30031000D01*
X61572000Y-29991000D02*
X55268000Y-29991000D01*
X61643000Y-29951000D02*
X55197000Y-29951000D01*
X61713000Y-29911000D02*
X55127000Y-29911000D01*
X61781000Y-29871000D02*
X55059000Y-29871000D01*
X61847000Y-29831000D02*
X54993000Y-29831000D01*
X61911000Y-29791000D02*
X54929000Y-29791000D01*
X61974000Y-29751000D02*
X54866000Y-29751000D01*
X62035000Y-29711000D02*
X54805000Y-29711000D01*
X62095000Y-29671000D02*
X54745000Y-29671000D01*
X62135000Y-17105431D02*
X62135000Y-18405431D01*
X62153000Y-29631000D02*
X54687000Y-29631000D01*
X62210000Y-29591000D02*
X54630000Y-29591000D01*
X62266000Y-29551000D02*
X54574000Y-29551000D01*
X62320000Y-29511000D02*
X54520000Y-29511000D01*
X62374000Y-29471000D02*
X54466000Y-29471000D01*
X62426000Y-29431000D02*
X54414000Y-29431000D01*
X62477000Y-29391000D02*
X54363000Y-29391000D01*
X62528000Y-29351000D02*
X59860000Y-29351000D01*
X62577000Y-29311000D02*
X59860000Y-29311000D01*
X62625000Y-29271000D02*
X59860000Y-29271000D01*
X62673000Y-29231000D02*
X59860000Y-29231000D01*
X62719000Y-29191000D02*
X59860000Y-29191000D01*
X62765000Y-29151000D02*
X59860000Y-29151000D01*
X62785000Y-17755431D02*
X61485000Y-17755431D01*
X62810000Y-29111000D02*
X59860000Y-29111000D01*
X62854000Y-29071000D02*
X59860000Y-29071000D01*
X62897000Y-29031000D02*
X59860000Y-29031000D01*
X62939000Y-28991000D02*
X59860000Y-28991000D01*
X62981000Y-28951000D02*
X59860000Y-28951000D01*
X63022000Y-28911000D02*
X59860000Y-28911000D01*
X63063000Y-28871000D02*
X59860000Y-28871000D01*
X63102000Y-28831000D02*
X59860000Y-28831000D01*
X63141000Y-28791000D02*
X59860000Y-28791000D01*
X63180000Y-28751000D02*
X59860000Y-28751000D01*
X63217000Y-28711000D02*
X59860000Y-28711000D01*
X63254000Y-28671000D02*
X59860000Y-28671000D01*
X63291000Y-28631000D02*
X59860000Y-28631000D01*
X63327000Y-28591000D02*
X59860000Y-28591000D01*
X63362000Y-28551000D02*
X59860000Y-28551000D01*
X63397000Y-28511000D02*
X59860000Y-28511000D01*
X63431000Y-28471000D02*
X59860000Y-28471000D01*
X63464000Y-28431000D02*
X59860000Y-28431000D01*
X63498000Y-28391000D02*
X59860000Y-28391000D01*
X63530000Y-28351000D02*
X59860000Y-28351000D01*
X63562000Y-28311000D02*
X59860000Y-28311000D01*
X63594000Y-28271000D02*
X59860000Y-28271000D01*
X63625000Y-28231000D02*
X59860000Y-28231000D01*
X63655000Y-28191000D02*
X59860000Y-28191000D01*
X63685000Y-28151000D02*
X59860000Y-28151000D01*
X63715000Y-28111000D02*
X59860000Y-28111000D01*
X63744000Y-28071000D02*
X59860000Y-28071000D01*
X63773000Y-28031000D02*
X59860000Y-28031000D01*
X63801000Y-27991000D02*
X59860000Y-27991000D01*
X63829000Y-27951000D02*
X59860000Y-27951000D01*
X63856000Y-27911000D02*
X59860000Y-27911000D01*
X63883000Y-27871000D02*
X59860000Y-27871000D01*
X63910000Y-27831000D02*
X59860000Y-27831000D01*
X63936000Y-27791000D02*
X59860000Y-27791000D01*
X63962000Y-27751000D02*
X59860000Y-27751000D01*
X63987000Y-27711000D02*
X59860000Y-27711000D01*
X64012000Y-27671000D02*
X59860000Y-27671000D01*
X64037000Y-27631000D02*
X59860000Y-27631000D01*
X64061000Y-27591000D02*
X59860000Y-27591000D01*
X64084000Y-27551000D02*
X59860000Y-27551000D01*
X64108000Y-27511000D02*
X59860000Y-27511000D01*
X64131000Y-27471000D02*
X59860000Y-27471000D01*
X64153000Y-27431000D02*
X59860000Y-27431000D01*
X64176000Y-27391000D02*
X59860000Y-27391000D01*
X64198000Y-27351000D02*
X59860000Y-27351000D01*
X64219000Y-27311000D02*
X59860000Y-27311000D01*
X64240000Y-27271000D02*
X59860000Y-27271000D01*
X64261000Y-27231000D02*
X59860000Y-27231000D01*
X64282000Y-27191000D02*
X59860000Y-27191000D01*
X64302000Y-27151000D02*
X59860000Y-27151000D01*
X64322000Y-27111000D02*
X59860000Y-27111000D01*
X64341000Y-27071000D02*
X59860000Y-27071000D01*
X64360000Y-27031000D02*
X59860000Y-27031000D01*
X64379000Y-26991000D02*
X59860000Y-26991000D01*
X64398000Y-26951000D02*
X59860000Y-26951000D01*
X64416000Y-26911000D02*
X59860000Y-26911000D01*
X64434000Y-26871000D02*
X59860000Y-26871000D01*
X64451000Y-26831000D02*
X59860000Y-26831000D01*
X64469000Y-26791000D02*
X59860000Y-26791000D01*
X64485000Y-26751000D02*
X59860000Y-26751000D01*
X64502000Y-26711000D02*
X59860000Y-26711000D01*
X64518000Y-26671000D02*
X59860000Y-26671000D01*
X64534000Y-26631000D02*
X59860000Y-26631000D01*
X64550000Y-26591000D02*
X59860000Y-26591000D01*
X64566000Y-26551000D02*
X59860000Y-26551000D01*
X64581000Y-26511000D02*
X59860000Y-26511000D01*
X64595000Y-26471000D02*
X52245000Y-26471000D01*
X64610000Y-26431000D02*
X52230000Y-26431000D01*
X64624000Y-26391000D02*
X52216000Y-26391000D01*
X64638000Y-26351000D02*
X52202000Y-26351000D01*
X64652000Y-26311000D02*
X52188000Y-26311000D01*
X64665000Y-26271000D02*
X52175000Y-26271000D01*
X64678000Y-26231000D02*
X52162000Y-26231000D01*
X64691000Y-26191000D02*
X52149000Y-26191000D01*
X64704000Y-26151000D02*
X52136000Y-26151000D01*
X64716000Y-26111000D02*
X52124000Y-26111000D01*
X64728000Y-26071000D02*
X52112000Y-26071000D01*
X64740000Y-26031000D02*
X52100000Y-26031000D01*
X64751000Y-25991000D02*
X52089000Y-25991000D01*
X64762000Y-25951000D02*
X52078000Y-25951000D01*
X64773000Y-25911000D02*
X52067000Y-25911000D01*
X64784000Y-25871000D02*
X52056000Y-25871000D01*
X64794000Y-25831000D02*
X52046000Y-25831000D01*
X64804000Y-25791000D02*
X52036000Y-25791000D01*
X64814000Y-25751000D02*
X52026000Y-25751000D01*
X64824000Y-25711000D02*
X52016000Y-25711000D01*
X64833000Y-25671000D02*
X52007000Y-25671000D01*
X64842000Y-25631000D02*
X51998000Y-25631000D01*
X64851000Y-25591000D02*
X51989000Y-25591000D01*
X64859000Y-25551000D02*
X51981000Y-25551000D01*
X64868000Y-25511000D02*
X51972000Y-25511000D01*
X64876000Y-25471000D02*
X51964000Y-25471000D01*
X64883000Y-25431000D02*
X51957000Y-25431000D01*
X64891000Y-25391000D02*
X51949000Y-25391000D01*
X64898000Y-25351000D02*
X51942000Y-25351000D01*
X64905000Y-25311000D02*
X51935000Y-25311000D01*
X64912000Y-25271000D02*
X51928000Y-25271000D01*
X64918000Y-25231000D02*
X51922000Y-25231000D01*
X64925000Y-25191000D02*
X51915000Y-25191000D01*
X64931000Y-25151000D02*
X51909000Y-25151000D01*
X64936000Y-25111000D02*
X51904000Y-25111000D01*
X64942000Y-25071000D02*
X51898000Y-25071000D01*
X64947000Y-25031000D02*
X51893000Y-25031000D01*
X64952000Y-24991000D02*
X51888000Y-24991000D01*
X64957000Y-24951000D02*
X51883000Y-24951000D01*
X64961000Y-24911000D02*
X51879000Y-24911000D01*
X64965000Y-24870000D02*
X51875000Y-24870000D01*
X64969000Y-24830000D02*
X51871000Y-24830000D01*
X64973000Y-24790000D02*
X51867000Y-24790000D01*
X64977000Y-24750000D02*
X51863000Y-24750000D01*
X64980000Y-24710000D02*
X51860000Y-24710000D01*
X64983000Y-24670000D02*
X51857000Y-24670000D01*
X64986000Y-24630000D02*
X51854000Y-24630000D01*
X64988000Y-24590000D02*
X51852000Y-24590000D01*
X64991000Y-24550000D02*
X51849000Y-24550000D01*
X64993000Y-24510000D02*
X51847000Y-24510000D01*
X64995000Y-24470000D02*
X51845000Y-24470000D01*
X64996000Y-24430000D02*
X51844000Y-24430000D01*
X64997000Y-24390000D02*
X51843000Y-24390000D01*
X64999000Y-24310000D02*
X51841000Y-24310000D01*
X64999000Y-24350000D02*
X51841000Y-24350000D01*
X65000000Y-24190000D02*
X51840000Y-24190000D01*
X65000000Y-24230000D02*
X51840000Y-24230000D01*
X65000000Y-24270000D02*
X51840000Y-24270000D01*
X65040000Y-24190000D02*
G75*
G02*
X51800000Y-24190000I-6620000J0D01*
G01*
X51800000Y-24190000D02*
G75*
G02*
X65040000Y-24190000I6620000J0D01*
G01*
%TO.C,D1*%
X21510000Y-22680000D02*
X21510000Y-28120000D01*
X21510000Y-28120000D02*
X24450000Y-28120000D01*
X22980000Y-21660000D02*
X22980000Y-22680000D01*
X22980000Y-29140000D02*
X22980000Y-28120000D01*
X24450000Y-22680000D02*
X21510000Y-22680000D01*
X24450000Y-23460000D02*
X21510000Y-23460000D01*
X24450000Y-23580000D02*
X21510000Y-23580000D01*
X24450000Y-23700000D02*
X21510000Y-23700000D01*
X24450000Y-28120000D02*
X24450000Y-22680000D01*
%TO.C,D2*%
X44520000Y-54490000D02*
X45540000Y-54490000D01*
X45540000Y-53020000D02*
X45540000Y-55960000D01*
X45540000Y-55960000D02*
X50980000Y-55960000D01*
X46320000Y-53020000D02*
X46320000Y-55960000D01*
X46440000Y-53020000D02*
X46440000Y-55960000D01*
X46560000Y-53020000D02*
X46560000Y-55960000D01*
X50980000Y-53020000D02*
X45540000Y-53020000D01*
X50980000Y-55960000D02*
X50980000Y-53020000D01*
X52000000Y-54490000D02*
X50980000Y-54490000D01*
%TO.C,INPUT_AC1*%
X26300000Y-36450000D02*
X26300000Y-36950000D01*
X26540000Y-36690000D02*
X26540000Y-46810000D01*
X27040000Y-36450000D02*
X26300000Y-36450000D01*
X27100000Y-36690000D02*
X27100000Y-46810000D01*
X28600000Y-36690000D02*
X28600000Y-46810000D01*
X29361000Y-43216000D02*
X29326000Y-43181000D01*
X29577000Y-43023000D02*
X29531000Y-42976000D01*
X31669000Y-45525000D02*
X31623000Y-45478000D01*
X31875000Y-45320000D02*
X31839000Y-45285000D01*
X32901000Y-36690000D02*
X32901000Y-46810000D01*
X33900000Y-38250000D02*
X33900000Y-40250000D01*
X33900000Y-43250000D02*
X33900000Y-45250000D01*
X34900000Y-38250000D02*
X33900000Y-38250000D01*
X34900000Y-38250000D02*
X34900000Y-40250000D01*
X34900000Y-40250000D02*
X33900000Y-40250000D01*
X34900000Y-43250000D02*
X33900000Y-43250000D01*
X34900000Y-43250000D02*
X34900000Y-45250000D01*
X34900000Y-45250000D02*
X33900000Y-45250000D01*
X34960000Y-36690000D02*
X26540000Y-36690000D01*
X34960000Y-36690000D02*
X34960000Y-46810000D01*
X34960000Y-46810000D02*
X26540000Y-46810000D01*
X28919747Y-39278805D02*
G75*
G02*
X29065000Y-38566000I1680254J28806D01*
G01*
X29065244Y-39933318D02*
G75*
G02*
X28920000Y-39250000I1534756J683318D01*
G01*
X29916958Y-37714573D02*
G75*
G02*
X31284000Y-37715000I683041J-1535420D01*
G01*
X31283042Y-40785427D02*
G75*
G02*
X29916000Y-40785000I-683042J1535427D01*
G01*
X32135427Y-38566958D02*
G75*
G02*
X32135000Y-39934000I-1535420J-683041D01*
G01*
X32280000Y-44250000D02*
G75*
G02*
X28920000Y-44250000I-1680000J0D01*
G01*
X28920000Y-44250000D02*
G75*
G02*
X32280000Y-44250000I1680000J0D01*
G01*
%TO.C,R1*%
X74830000Y-35560000D02*
X72220000Y-35560000D01*
X77570000Y-35560000D02*
G75*
G02*
X74830000Y-35560000I-1370000J0D01*
G01*
X74830000Y-35560000D02*
G75*
G02*
X77570000Y-35560000I1370000J0D01*
G01*
%TD*%
M02*
