%TF.GenerationSoftware,KiCad,Pcbnew,8.0.4*%
%TF.CreationDate,2025-01-03T11:27:22+01:00*%
%TF.ProjectId,miso_mosi,6d69736f-5f6d-46f7-9369-2e6b69636164,rev?*%
%TF.SameCoordinates,Original*%
%TF.FileFunction,Soldermask,Bot*%
%TF.FilePolarity,Negative*%
%FSLAX46Y46*%
G04 Gerber Fmt 4.6, Leading zero omitted, Abs format (unit mm)*
G04 Created by KiCad (PCBNEW 8.0.4) date 2025-01-03 11:27:22*
%MOMM*%
%LPD*%
G01*
G04 APERTURE LIST*
%ADD10R,1.800000X1.800000*%
%ADD11C,1.800000*%
%ADD12R,1.700000X1.700000*%
%ADD13O,1.700000X1.700000*%
%ADD14C,2.800000*%
%ADD15O,2.800000X2.800000*%
%ADD16R,1.600000X1.600000*%
%ADD17O,1.600000X1.600000*%
G04 APERTURE END LIST*
D10*
%TO.C,D1*%
X105319000Y-56662000D03*
D11*
X105319000Y-59202000D03*
%TD*%
D12*
%TO.C,RFID_RC522*%
X90790000Y-142183000D03*
D13*
X88250000Y-142183000D03*
X85710000Y-142183000D03*
X83170000Y-142183000D03*
X80630000Y-142183000D03*
X78090000Y-142183000D03*
X75550000Y-142183000D03*
X73010000Y-142183000D03*
%TD*%
D14*
%TO.C,R1*%
X89027000Y-31242000D03*
D15*
X89027000Y-56642000D03*
%TD*%
D16*
%TO.C,A1*%
X81661000Y-67818000D03*
D17*
X84201000Y-67818000D03*
X86741000Y-67818000D03*
X89281000Y-67818000D03*
X91821000Y-67818000D03*
X94361000Y-67818000D03*
X96901000Y-67818000D03*
X99441000Y-67818000D03*
X104521000Y-67818000D03*
X107061000Y-67818000D03*
X109601000Y-67818000D03*
X112141000Y-67818000D03*
X114681000Y-67818000D03*
X117221000Y-67818000D03*
X117221000Y-116078000D03*
X114681000Y-116078000D03*
X112141000Y-116078000D03*
X109601000Y-116078000D03*
X107061000Y-116078000D03*
X104521000Y-116078000D03*
X101981000Y-116078000D03*
X99441000Y-116078000D03*
X95381000Y-116078000D03*
X92841000Y-116078000D03*
X90301000Y-116078000D03*
X87761000Y-116078000D03*
X85221000Y-116078000D03*
X82681000Y-116078000D03*
X80141000Y-116078000D03*
X77601000Y-116078000D03*
X75061000Y-116078000D03*
X72521000Y-116078000D03*
%TD*%
M02*
