%TF.GenerationSoftware,KiCad,Pcbnew,8.0.4*%
%TF.CreationDate,2025-01-03T11:27:22+01:00*%
%TF.ProjectId,miso_mosi,6d69736f-5f6d-46f7-9369-2e6b69636164,rev?*%
%TF.SameCoordinates,Original*%
%TF.FileFunction,Copper,L1,Top*%
%TF.FilePolarity,Positive*%
%FSLAX46Y46*%
G04 Gerber Fmt 4.6, Leading zero omitted, Abs format (unit mm)*
G04 Created by KiCad (PCBNEW 8.0.4) date 2025-01-03 11:27:22*
%MOMM*%
%LPD*%
G01*
G04 APERTURE LIST*
%TA.AperFunction,ComponentPad*%
%ADD10R,1.800000X1.800000*%
%TD*%
%TA.AperFunction,ComponentPad*%
%ADD11C,1.800000*%
%TD*%
%TA.AperFunction,ComponentPad*%
%ADD12R,1.700000X1.700000*%
%TD*%
%TA.AperFunction,ComponentPad*%
%ADD13O,1.700000X1.700000*%
%TD*%
%TA.AperFunction,ComponentPad*%
%ADD14C,2.800000*%
%TD*%
%TA.AperFunction,ComponentPad*%
%ADD15O,2.800000X2.800000*%
%TD*%
%TA.AperFunction,ComponentPad*%
%ADD16R,1.600000X1.600000*%
%TD*%
%TA.AperFunction,ComponentPad*%
%ADD17O,1.600000X1.600000*%
%TD*%
%TA.AperFunction,Conductor*%
%ADD18C,1.000000*%
%TD*%
G04 APERTURE END LIST*
D10*
%TO.P,D1,1,K*%
%TO.N,Net-(D1-K)*%
X105319000Y-56662000D03*
D11*
%TO.P,D1,2,A*%
%TO.N,Net-(A1-D7)*%
X105319000Y-59202000D03*
%TD*%
D12*
%TO.P,RFID_RC522,1,Pin_1*%
%TO.N,SDA_SS*%
X90790000Y-142183000D03*
D13*
%TO.P,RFID_RC522,2,Pin_2*%
%TO.N,SCK*%
X88250000Y-142183000D03*
%TO.P,RFID_RC522,3,Pin_3*%
%TO.N,MOSI*%
X85710000Y-142183000D03*
%TO.P,RFID_RC522,4,Pin_4*%
%TO.N,MISO*%
X83170000Y-142183000D03*
%TO.P,RFID_RC522,5,Pin_5*%
%TO.N,unconnected-(RFID_RC522-Pin_5-Pad5)*%
X80630000Y-142183000D03*
%TO.P,RFID_RC522,6,Pin_6*%
%TO.N,/GND*%
X78090000Y-142183000D03*
%TO.P,RFID_RC522,7,Pin_7*%
%TO.N,RST*%
X75550000Y-142183000D03*
%TO.P,RFID_RC522,8,Pin_8*%
%TO.N,/3V3*%
X73010000Y-142183000D03*
%TD*%
D14*
%TO.P,R1,1*%
%TO.N,Net-(D1-K)*%
X89027000Y-31242000D03*
D15*
%TO.P,R1,2*%
%TO.N,Net-(A1-GND-Pad7)*%
X89027000Y-56642000D03*
%TD*%
D16*
%TO.P,A1,1,NC*%
%TO.N,unconnected-(A1-NC-Pad1)*%
X81661000Y-67818000D03*
D17*
%TO.P,A1,2,IOREF*%
%TO.N,unconnected-(A1-IOREF-Pad2)*%
X84201000Y-67818000D03*
%TO.P,A1,3,~{RESET}*%
%TO.N,unconnected-(A1-~{RESET}-Pad3)*%
X86741000Y-67818000D03*
%TO.P,A1,4,3V3*%
%TO.N,/3V3*%
X89281000Y-67818000D03*
%TO.P,A1,5,+5V*%
%TO.N,unconnected-(A1-+5V-Pad5)*%
X91821000Y-67818000D03*
%TO.P,A1,6,GND*%
%TO.N,unconnected-(A1-GND-Pad6)*%
X94361000Y-67818000D03*
%TO.P,A1,7,GND*%
%TO.N,Net-(A1-GND-Pad7)*%
X96901000Y-67818000D03*
%TO.P,A1,8,VIN*%
%TO.N,unconnected-(A1-VIN-Pad8)*%
X99441000Y-67818000D03*
%TO.P,A1,9,A0*%
%TO.N,unconnected-(A1-A0-Pad9)*%
X104521000Y-67818000D03*
%TO.P,A1,10,A1*%
%TO.N,unconnected-(A1-A1-Pad10)*%
X107061000Y-67818000D03*
%TO.P,A1,11,A2*%
%TO.N,unconnected-(A1-A2-Pad11)*%
X109601000Y-67818000D03*
%TO.P,A1,12,A3*%
%TO.N,unconnected-(A1-A3-Pad12)*%
X112141000Y-67818000D03*
%TO.P,A1,13,SDA/A4*%
%TO.N,unconnected-(A1-SDA{slash}A4-Pad13)*%
X114681000Y-67818000D03*
%TO.P,A1,14,SCL/A5*%
%TO.N,unconnected-(A1-SCL{slash}A5-Pad14)*%
X117221000Y-67818000D03*
%TO.P,A1,15,D0/RX*%
%TO.N,unconnected-(A1-D0{slash}RX-Pad15)*%
X117221000Y-116078000D03*
%TO.P,A1,16,D1/TX*%
%TO.N,unconnected-(A1-D1{slash}TX-Pad16)*%
X114681000Y-116078000D03*
%TO.P,A1,17,D2*%
%TO.N,unconnected-(A1-D2-Pad17)*%
X112141000Y-116078000D03*
%TO.P,A1,18,D3*%
%TO.N,unconnected-(A1-D3-Pad18)*%
X109601000Y-116078000D03*
%TO.P,A1,19,D4*%
%TO.N,unconnected-(A1-D4-Pad19)*%
X107061000Y-116078000D03*
%TO.P,A1,20,D5*%
%TO.N,unconnected-(A1-D5-Pad20)*%
X104521000Y-116078000D03*
%TO.P,A1,21,D6*%
%TO.N,unconnected-(A1-D6-Pad21)*%
X101981000Y-116078000D03*
%TO.P,A1,22,D7*%
%TO.N,Net-(A1-D7)*%
X99441000Y-116078000D03*
%TO.P,A1,23,D8*%
%TO.N,unconnected-(A1-D8-Pad23)*%
X95381000Y-116078000D03*
%TO.P,A1,24,D9*%
%TO.N,RST*%
X92841000Y-116078000D03*
%TO.P,A1,25,D10*%
%TO.N,SDA_SS*%
X90301000Y-116078000D03*
%TO.P,A1,26,D11*%
%TO.N,MOSI*%
X87761000Y-116078000D03*
%TO.P,A1,27,D12*%
%TO.N,MISO*%
X85221000Y-116078000D03*
%TO.P,A1,28,D13*%
%TO.N,SCK*%
X82681000Y-116078000D03*
%TO.P,A1,29,GND*%
%TO.N,/GND*%
X80141000Y-116078000D03*
%TO.P,A1,30,AREF*%
%TO.N,unconnected-(A1-AREF-Pad30)*%
X77601000Y-116078000D03*
%TO.P,A1,31,SDA/A4*%
%TO.N,unconnected-(A1-SDA{slash}A4-Pad31)*%
X75061000Y-116078000D03*
%TO.P,A1,32,SCL/A5*%
%TO.N,unconnected-(A1-SCL{slash}A5-Pad32)*%
X72521000Y-116078000D03*
%TD*%
D18*
%TO.N,SCK*%
X82681000Y-125480000D02*
X82681000Y-116078000D01*
X88250000Y-131049000D02*
X82681000Y-125480000D01*
X88250000Y-142183000D02*
X88250000Y-131049000D01*
%TO.N,RST*%
X89535000Y-109728000D02*
X92841000Y-113034000D01*
X68961000Y-109728000D02*
X89535000Y-109728000D01*
X75550000Y-142183000D02*
X68961000Y-135594000D01*
X68961000Y-135594000D02*
X68961000Y-109728000D01*
X92841000Y-113034000D02*
X92841000Y-116078000D01*
%TD*%
M02*
