M48
; DRILL file {KiCad 8.0.4} date 2025-01-03T11:47:04+0100
; FORMAT={-:-/ absolute / inch / decimal}
; #@! TF.CreationDate,2025-01-03T11:47:04+01:00
; #@! TF.GenerationSoftware,Kicad,Pcbnew,8.0.4
; #@! TF.FileFunction,Plated,1,2,PTH
FMAT,2
INCH
; #@! TA.AperFunction,Plated,PTH,ComponentDrill
T1C0.0354
; #@! TA.AperFunction,Plated,PTH,ComponentDrill
T2C0.0394
; #@! TA.AperFunction,Plated,PTH,ComponentDrill
T3C0.0551
%
G90
G05
T1
X4.1464Y-2.2308
X4.1464Y-2.3308
T2
X2.8552Y-4.57
X2.8744Y-5.5978
X2.9552Y-4.57
X2.9744Y-5.5978
X3.0552Y-4.57
X3.0744Y-5.5978
X3.1552Y-4.57
X3.1744Y-5.5978
X3.215Y-2.67
X3.2552Y-4.57
X3.2744Y-5.5978
X3.315Y-2.67
X3.3552Y-4.57
X3.3744Y-5.5978
X3.415Y-2.67
X3.4552Y-4.57
X3.4744Y-5.5978
X3.515Y-2.67
X3.5552Y-4.57
X3.5744Y-5.5978
X3.615Y-2.67
X3.6552Y-4.57
X3.715Y-2.67
X3.7552Y-4.57
X3.815Y-2.67
X3.915Y-2.67
X3.915Y-4.57
X4.015Y-4.57
X4.115Y-2.67
X4.115Y-4.57
X4.215Y-2.67
X4.215Y-4.57
X4.315Y-2.67
X4.315Y-4.57
X4.415Y-2.67
X4.415Y-4.57
X4.515Y-2.67
X4.515Y-4.57
X4.615Y-2.67
X4.615Y-4.57
T3
X3.505Y-1.23
X3.505Y-2.23
M30
