%TF.GenerationSoftware,KiCad,Pcbnew,8.0.4*%
%TF.CreationDate,2024-08-26T23:26:11+02:00*%
%TF.ProjectId,regulateur_tension,72656775-6c61-4746-9575-725f74656e73,rev?*%
%TF.SameCoordinates,Original*%
%TF.FileFunction,Legend,Top*%
%TF.FilePolarity,Positive*%
%FSLAX46Y46*%
G04 Gerber Fmt 4.6, Leading zero omitted, Abs format (unit mm)*
G04 Created by KiCad (PCBNEW 8.0.4) date 2024-08-26 23:26:11*
%MOMM*%
%LPD*%
G01*
G04 APERTURE LIST*
%ADD10C,0.150000*%
%ADD11C,0.120000*%
G04 APERTURE END LIST*
D10*
X38554819Y-49434285D02*
X37554819Y-49434285D01*
X38554819Y-48958095D02*
X37554819Y-48958095D01*
X37554819Y-48958095D02*
X38554819Y-48386667D01*
X38554819Y-48386667D02*
X37554819Y-48386667D01*
X38554819Y-47910476D02*
X37554819Y-47910476D01*
X37554819Y-47910476D02*
X37554819Y-47529524D01*
X37554819Y-47529524D02*
X37602438Y-47434286D01*
X37602438Y-47434286D02*
X37650057Y-47386667D01*
X37650057Y-47386667D02*
X37745295Y-47339048D01*
X37745295Y-47339048D02*
X37888152Y-47339048D01*
X37888152Y-47339048D02*
X37983390Y-47386667D01*
X37983390Y-47386667D02*
X38031009Y-47434286D01*
X38031009Y-47434286D02*
X38078628Y-47529524D01*
X38078628Y-47529524D02*
X38078628Y-47910476D01*
X37554819Y-46910476D02*
X38364342Y-46910476D01*
X38364342Y-46910476D02*
X38459580Y-46862857D01*
X38459580Y-46862857D02*
X38507200Y-46815238D01*
X38507200Y-46815238D02*
X38554819Y-46720000D01*
X38554819Y-46720000D02*
X38554819Y-46529524D01*
X38554819Y-46529524D02*
X38507200Y-46434286D01*
X38507200Y-46434286D02*
X38459580Y-46386667D01*
X38459580Y-46386667D02*
X38364342Y-46339048D01*
X38364342Y-46339048D02*
X37554819Y-46339048D01*
X37554819Y-46005714D02*
X37554819Y-45434286D01*
X38554819Y-45720000D02*
X37554819Y-45720000D01*
X38650057Y-45339048D02*
X38650057Y-44577143D01*
X38269104Y-44386666D02*
X38269104Y-43910476D01*
X38554819Y-44481904D02*
X37554819Y-44148571D01*
X37554819Y-44148571D02*
X38554819Y-43815238D01*
X38459580Y-42910476D02*
X38507200Y-42958095D01*
X38507200Y-42958095D02*
X38554819Y-43100952D01*
X38554819Y-43100952D02*
X38554819Y-43196190D01*
X38554819Y-43196190D02*
X38507200Y-43339047D01*
X38507200Y-43339047D02*
X38411961Y-43434285D01*
X38411961Y-43434285D02*
X38316723Y-43481904D01*
X38316723Y-43481904D02*
X38126247Y-43529523D01*
X38126247Y-43529523D02*
X37983390Y-43529523D01*
X37983390Y-43529523D02*
X37792914Y-43481904D01*
X37792914Y-43481904D02*
X37697676Y-43434285D01*
X37697676Y-43434285D02*
X37602438Y-43339047D01*
X37602438Y-43339047D02*
X37554819Y-43196190D01*
X37554819Y-43196190D02*
X37554819Y-43100952D01*
X37554819Y-43100952D02*
X37602438Y-42958095D01*
X37602438Y-42958095D02*
X37650057Y-42910476D01*
X38554819Y-41958095D02*
X38554819Y-42529523D01*
X38554819Y-42243809D02*
X37554819Y-42243809D01*
X37554819Y-42243809D02*
X37697676Y-42339047D01*
X37697676Y-42339047D02*
X37792914Y-42434285D01*
X37792914Y-42434285D02*
X37840533Y-42529523D01*
X45101905Y-52474819D02*
X45101905Y-51474819D01*
X45101905Y-51474819D02*
X45340000Y-51474819D01*
X45340000Y-51474819D02*
X45482857Y-51522438D01*
X45482857Y-51522438D02*
X45578095Y-51617676D01*
X45578095Y-51617676D02*
X45625714Y-51712914D01*
X45625714Y-51712914D02*
X45673333Y-51903390D01*
X45673333Y-51903390D02*
X45673333Y-52046247D01*
X45673333Y-52046247D02*
X45625714Y-52236723D01*
X45625714Y-52236723D02*
X45578095Y-52331961D01*
X45578095Y-52331961D02*
X45482857Y-52427200D01*
X45482857Y-52427200D02*
X45340000Y-52474819D01*
X45340000Y-52474819D02*
X45101905Y-52474819D01*
X46054286Y-51570057D02*
X46101905Y-51522438D01*
X46101905Y-51522438D02*
X46197143Y-51474819D01*
X46197143Y-51474819D02*
X46435238Y-51474819D01*
X46435238Y-51474819D02*
X46530476Y-51522438D01*
X46530476Y-51522438D02*
X46578095Y-51570057D01*
X46578095Y-51570057D02*
X46625714Y-51665295D01*
X46625714Y-51665295D02*
X46625714Y-51760533D01*
X46625714Y-51760533D02*
X46578095Y-51903390D01*
X46578095Y-51903390D02*
X46006667Y-52474819D01*
X46006667Y-52474819D02*
X46625714Y-52474819D01*
X40498095Y-52844819D02*
X40498095Y-51844819D01*
X41069523Y-52844819D02*
X40640952Y-52273390D01*
X41069523Y-51844819D02*
X40498095Y-52416247D01*
X25904819Y-29828094D02*
X24904819Y-29828094D01*
X24904819Y-29828094D02*
X24904819Y-29589999D01*
X24904819Y-29589999D02*
X24952438Y-29447142D01*
X24952438Y-29447142D02*
X25047676Y-29351904D01*
X25047676Y-29351904D02*
X25142914Y-29304285D01*
X25142914Y-29304285D02*
X25333390Y-29256666D01*
X25333390Y-29256666D02*
X25476247Y-29256666D01*
X25476247Y-29256666D02*
X25666723Y-29304285D01*
X25666723Y-29304285D02*
X25761961Y-29351904D01*
X25761961Y-29351904D02*
X25857200Y-29447142D01*
X25857200Y-29447142D02*
X25904819Y-29589999D01*
X25904819Y-29589999D02*
X25904819Y-29828094D01*
X25904819Y-28304285D02*
X25904819Y-28875713D01*
X25904819Y-28589999D02*
X24904819Y-28589999D01*
X24904819Y-28589999D02*
X25047676Y-28685237D01*
X25047676Y-28685237D02*
X25142914Y-28780475D01*
X25142914Y-28780475D02*
X25190533Y-28875713D01*
X25534819Y-24271904D02*
X24534819Y-24271904D01*
X25534819Y-23700476D02*
X24963390Y-24129047D01*
X24534819Y-23700476D02*
X25106247Y-24271904D01*
X66399580Y-17946666D02*
X66447200Y-17994285D01*
X66447200Y-17994285D02*
X66494819Y-18137142D01*
X66494819Y-18137142D02*
X66494819Y-18232380D01*
X66494819Y-18232380D02*
X66447200Y-18375237D01*
X66447200Y-18375237D02*
X66351961Y-18470475D01*
X66351961Y-18470475D02*
X66256723Y-18518094D01*
X66256723Y-18518094D02*
X66066247Y-18565713D01*
X66066247Y-18565713D02*
X65923390Y-18565713D01*
X65923390Y-18565713D02*
X65732914Y-18518094D01*
X65732914Y-18518094D02*
X65637676Y-18470475D01*
X65637676Y-18470475D02*
X65542438Y-18375237D01*
X65542438Y-18375237D02*
X65494819Y-18232380D01*
X65494819Y-18232380D02*
X65494819Y-18137142D01*
X65494819Y-18137142D02*
X65542438Y-17994285D01*
X65542438Y-17994285D02*
X65590057Y-17946666D01*
X65590057Y-17565713D02*
X65542438Y-17518094D01*
X65542438Y-17518094D02*
X65494819Y-17422856D01*
X65494819Y-17422856D02*
X65494819Y-17184761D01*
X65494819Y-17184761D02*
X65542438Y-17089523D01*
X65542438Y-17089523D02*
X65590057Y-17041904D01*
X65590057Y-17041904D02*
X65685295Y-16994285D01*
X65685295Y-16994285D02*
X65780533Y-16994285D01*
X65780533Y-16994285D02*
X65923390Y-17041904D01*
X65923390Y-17041904D02*
X66494819Y-17613332D01*
X66494819Y-17613332D02*
X66494819Y-16994285D01*
X27321905Y-52474819D02*
X27321905Y-51474819D01*
X27321905Y-51474819D02*
X27560000Y-51474819D01*
X27560000Y-51474819D02*
X27702857Y-51522438D01*
X27702857Y-51522438D02*
X27798095Y-51617676D01*
X27798095Y-51617676D02*
X27845714Y-51712914D01*
X27845714Y-51712914D02*
X27893333Y-51903390D01*
X27893333Y-51903390D02*
X27893333Y-52046247D01*
X27893333Y-52046247D02*
X27845714Y-52236723D01*
X27845714Y-52236723D02*
X27798095Y-52331961D01*
X27798095Y-52331961D02*
X27702857Y-52427200D01*
X27702857Y-52427200D02*
X27560000Y-52474819D01*
X27560000Y-52474819D02*
X27321905Y-52474819D01*
X28226667Y-51474819D02*
X28845714Y-51474819D01*
X28845714Y-51474819D02*
X28512381Y-51855771D01*
X28512381Y-51855771D02*
X28655238Y-51855771D01*
X28655238Y-51855771D02*
X28750476Y-51903390D01*
X28750476Y-51903390D02*
X28798095Y-51951009D01*
X28798095Y-51951009D02*
X28845714Y-52046247D01*
X28845714Y-52046247D02*
X28845714Y-52284342D01*
X28845714Y-52284342D02*
X28798095Y-52379580D01*
X28798095Y-52379580D02*
X28750476Y-52427200D01*
X28750476Y-52427200D02*
X28655238Y-52474819D01*
X28655238Y-52474819D02*
X28369524Y-52474819D01*
X28369524Y-52474819D02*
X28274286Y-52427200D01*
X28274286Y-52427200D02*
X28226667Y-52379580D01*
X22718095Y-52844819D02*
X22718095Y-51844819D01*
X23289523Y-52844819D02*
X22860952Y-52273390D01*
X23289523Y-51844819D02*
X22718095Y-52416247D01*
X45101905Y-34694819D02*
X45101905Y-33694819D01*
X45101905Y-33694819D02*
X45340000Y-33694819D01*
X45340000Y-33694819D02*
X45482857Y-33742438D01*
X45482857Y-33742438D02*
X45578095Y-33837676D01*
X45578095Y-33837676D02*
X45625714Y-33932914D01*
X45625714Y-33932914D02*
X45673333Y-34123390D01*
X45673333Y-34123390D02*
X45673333Y-34266247D01*
X45673333Y-34266247D02*
X45625714Y-34456723D01*
X45625714Y-34456723D02*
X45578095Y-34551961D01*
X45578095Y-34551961D02*
X45482857Y-34647200D01*
X45482857Y-34647200D02*
X45340000Y-34694819D01*
X45340000Y-34694819D02*
X45101905Y-34694819D01*
X46530476Y-34028152D02*
X46530476Y-34694819D01*
X46292381Y-33647200D02*
X46054286Y-34361485D01*
X46054286Y-34361485D02*
X46673333Y-34361485D01*
X40498095Y-35064819D02*
X40498095Y-34064819D01*
X41069523Y-35064819D02*
X40640952Y-34493390D01*
X41069523Y-34064819D02*
X40498095Y-34636247D01*
X73493333Y-38384819D02*
X73160000Y-37908628D01*
X72921905Y-38384819D02*
X72921905Y-37384819D01*
X72921905Y-37384819D02*
X73302857Y-37384819D01*
X73302857Y-37384819D02*
X73398095Y-37432438D01*
X73398095Y-37432438D02*
X73445714Y-37480057D01*
X73445714Y-37480057D02*
X73493333Y-37575295D01*
X73493333Y-37575295D02*
X73493333Y-37718152D01*
X73493333Y-37718152D02*
X73445714Y-37813390D01*
X73445714Y-37813390D02*
X73398095Y-37861009D01*
X73398095Y-37861009D02*
X73302857Y-37908628D01*
X73302857Y-37908628D02*
X72921905Y-37908628D01*
X74445714Y-38384819D02*
X73874286Y-38384819D01*
X74160000Y-38384819D02*
X74160000Y-37384819D01*
X74160000Y-37384819D02*
X74064762Y-37527676D01*
X74064762Y-37527676D02*
X73969524Y-37622914D01*
X73969524Y-37622914D02*
X73874286Y-37670533D01*
X72200951Y-18234819D02*
X71867618Y-17758628D01*
X71629523Y-18234819D02*
X71629523Y-17234819D01*
X71629523Y-17234819D02*
X72010475Y-17234819D01*
X72010475Y-17234819D02*
X72105713Y-17282438D01*
X72105713Y-17282438D02*
X72153332Y-17330057D01*
X72153332Y-17330057D02*
X72200951Y-17425295D01*
X72200951Y-17425295D02*
X72200951Y-17568152D01*
X72200951Y-17568152D02*
X72153332Y-17663390D01*
X72153332Y-17663390D02*
X72105713Y-17711009D01*
X72105713Y-17711009D02*
X72010475Y-17758628D01*
X72010475Y-17758628D02*
X71629523Y-17758628D01*
X73010475Y-18187200D02*
X72915237Y-18234819D01*
X72915237Y-18234819D02*
X72724761Y-18234819D01*
X72724761Y-18234819D02*
X72629523Y-18187200D01*
X72629523Y-18187200D02*
X72581904Y-18091961D01*
X72581904Y-18091961D02*
X72581904Y-17711009D01*
X72581904Y-17711009D02*
X72629523Y-17615771D01*
X72629523Y-17615771D02*
X72724761Y-17568152D01*
X72724761Y-17568152D02*
X72915237Y-17568152D01*
X72915237Y-17568152D02*
X73010475Y-17615771D01*
X73010475Y-17615771D02*
X73058094Y-17711009D01*
X73058094Y-17711009D02*
X73058094Y-17806247D01*
X73058094Y-17806247D02*
X72581904Y-17901485D01*
X73915237Y-17568152D02*
X73915237Y-18377676D01*
X73915237Y-18377676D02*
X73867618Y-18472914D01*
X73867618Y-18472914D02*
X73819999Y-18520533D01*
X73819999Y-18520533D02*
X73724761Y-18568152D01*
X73724761Y-18568152D02*
X73581904Y-18568152D01*
X73581904Y-18568152D02*
X73486666Y-18520533D01*
X73915237Y-18187200D02*
X73819999Y-18234819D01*
X73819999Y-18234819D02*
X73629523Y-18234819D01*
X73629523Y-18234819D02*
X73534285Y-18187200D01*
X73534285Y-18187200D02*
X73486666Y-18139580D01*
X73486666Y-18139580D02*
X73439047Y-18044342D01*
X73439047Y-18044342D02*
X73439047Y-17758628D01*
X73439047Y-17758628D02*
X73486666Y-17663390D01*
X73486666Y-17663390D02*
X73534285Y-17615771D01*
X73534285Y-17615771D02*
X73629523Y-17568152D01*
X73629523Y-17568152D02*
X73819999Y-17568152D01*
X73819999Y-17568152D02*
X73915237Y-17615771D01*
X74819999Y-17568152D02*
X74819999Y-18234819D01*
X74391428Y-17568152D02*
X74391428Y-18091961D01*
X74391428Y-18091961D02*
X74439047Y-18187200D01*
X74439047Y-18187200D02*
X74534285Y-18234819D01*
X74534285Y-18234819D02*
X74677142Y-18234819D01*
X74677142Y-18234819D02*
X74772380Y-18187200D01*
X74772380Y-18187200D02*
X74819999Y-18139580D01*
X75439047Y-18234819D02*
X75343809Y-18187200D01*
X75343809Y-18187200D02*
X75296190Y-18091961D01*
X75296190Y-18091961D02*
X75296190Y-17234819D01*
X76248571Y-18234819D02*
X76248571Y-17711009D01*
X76248571Y-17711009D02*
X76200952Y-17615771D01*
X76200952Y-17615771D02*
X76105714Y-17568152D01*
X76105714Y-17568152D02*
X75915238Y-17568152D01*
X75915238Y-17568152D02*
X75820000Y-17615771D01*
X76248571Y-18187200D02*
X76153333Y-18234819D01*
X76153333Y-18234819D02*
X75915238Y-18234819D01*
X75915238Y-18234819D02*
X75820000Y-18187200D01*
X75820000Y-18187200D02*
X75772381Y-18091961D01*
X75772381Y-18091961D02*
X75772381Y-17996723D01*
X75772381Y-17996723D02*
X75820000Y-17901485D01*
X75820000Y-17901485D02*
X75915238Y-17853866D01*
X75915238Y-17853866D02*
X76153333Y-17853866D01*
X76153333Y-17853866D02*
X76248571Y-17806247D01*
X76581905Y-17568152D02*
X76962857Y-17568152D01*
X76724762Y-17234819D02*
X76724762Y-18091961D01*
X76724762Y-18091961D02*
X76772381Y-18187200D01*
X76772381Y-18187200D02*
X76867619Y-18234819D01*
X76867619Y-18234819D02*
X76962857Y-18234819D01*
X77677143Y-18187200D02*
X77581905Y-18234819D01*
X77581905Y-18234819D02*
X77391429Y-18234819D01*
X77391429Y-18234819D02*
X77296191Y-18187200D01*
X77296191Y-18187200D02*
X77248572Y-18091961D01*
X77248572Y-18091961D02*
X77248572Y-17711009D01*
X77248572Y-17711009D02*
X77296191Y-17615771D01*
X77296191Y-17615771D02*
X77391429Y-17568152D01*
X77391429Y-17568152D02*
X77581905Y-17568152D01*
X77581905Y-17568152D02*
X77677143Y-17615771D01*
X77677143Y-17615771D02*
X77724762Y-17711009D01*
X77724762Y-17711009D02*
X77724762Y-17806247D01*
X77724762Y-17806247D02*
X77248572Y-17901485D01*
X78581905Y-17568152D02*
X78581905Y-18234819D01*
X78153334Y-17568152D02*
X78153334Y-18091961D01*
X78153334Y-18091961D02*
X78200953Y-18187200D01*
X78200953Y-18187200D02*
X78296191Y-18234819D01*
X78296191Y-18234819D02*
X78439048Y-18234819D01*
X78439048Y-18234819D02*
X78534286Y-18187200D01*
X78534286Y-18187200D02*
X78581905Y-18139580D01*
X79058096Y-18234819D02*
X79058096Y-17568152D01*
X79058096Y-17758628D02*
X79105715Y-17663390D01*
X79105715Y-17663390D02*
X79153334Y-17615771D01*
X79153334Y-17615771D02*
X79248572Y-17568152D01*
X79248572Y-17568152D02*
X79343810Y-17568152D01*
X79534287Y-17234819D02*
X79867620Y-18234819D01*
X79867620Y-18234819D02*
X80200953Y-17234819D01*
X81058096Y-18234819D02*
X80486668Y-18234819D01*
X80772382Y-18234819D02*
X80772382Y-17234819D01*
X80772382Y-17234819D02*
X80677144Y-17377676D01*
X80677144Y-17377676D02*
X80581906Y-17472914D01*
X80581906Y-17472914D02*
X80486668Y-17520533D01*
X35393333Y-20679580D02*
X35345714Y-20727200D01*
X35345714Y-20727200D02*
X35202857Y-20774819D01*
X35202857Y-20774819D02*
X35107619Y-20774819D01*
X35107619Y-20774819D02*
X34964762Y-20727200D01*
X34964762Y-20727200D02*
X34869524Y-20631961D01*
X34869524Y-20631961D02*
X34821905Y-20536723D01*
X34821905Y-20536723D02*
X34774286Y-20346247D01*
X34774286Y-20346247D02*
X34774286Y-20203390D01*
X34774286Y-20203390D02*
X34821905Y-20012914D01*
X34821905Y-20012914D02*
X34869524Y-19917676D01*
X34869524Y-19917676D02*
X34964762Y-19822438D01*
X34964762Y-19822438D02*
X35107619Y-19774819D01*
X35107619Y-19774819D02*
X35202857Y-19774819D01*
X35202857Y-19774819D02*
X35345714Y-19822438D01*
X35345714Y-19822438D02*
X35393333Y-19870057D01*
X36345714Y-20774819D02*
X35774286Y-20774819D01*
X36060000Y-20774819D02*
X36060000Y-19774819D01*
X36060000Y-19774819D02*
X35964762Y-19917676D01*
X35964762Y-19917676D02*
X35869524Y-20012914D01*
X35869524Y-20012914D02*
X35774286Y-20060533D01*
X89354819Y-56046666D02*
X88878628Y-56379999D01*
X89354819Y-56618094D02*
X88354819Y-56618094D01*
X88354819Y-56618094D02*
X88354819Y-56237142D01*
X88354819Y-56237142D02*
X88402438Y-56141904D01*
X88402438Y-56141904D02*
X88450057Y-56094285D01*
X88450057Y-56094285D02*
X88545295Y-56046666D01*
X88545295Y-56046666D02*
X88688152Y-56046666D01*
X88688152Y-56046666D02*
X88783390Y-56094285D01*
X88783390Y-56094285D02*
X88831009Y-56141904D01*
X88831009Y-56141904D02*
X88878628Y-56237142D01*
X88878628Y-56237142D02*
X88878628Y-56618094D01*
X88450057Y-55665713D02*
X88402438Y-55618094D01*
X88402438Y-55618094D02*
X88354819Y-55522856D01*
X88354819Y-55522856D02*
X88354819Y-55284761D01*
X88354819Y-55284761D02*
X88402438Y-55189523D01*
X88402438Y-55189523D02*
X88450057Y-55141904D01*
X88450057Y-55141904D02*
X88545295Y-55094285D01*
X88545295Y-55094285D02*
X88640533Y-55094285D01*
X88640533Y-55094285D02*
X88783390Y-55141904D01*
X88783390Y-55141904D02*
X89354819Y-55713332D01*
X89354819Y-55713332D02*
X89354819Y-55094285D01*
X83314819Y-38440952D02*
X83314819Y-38250476D01*
X83314819Y-38250476D02*
X83362438Y-38155238D01*
X83362438Y-38155238D02*
X83457676Y-38060000D01*
X83457676Y-38060000D02*
X83648152Y-38012381D01*
X83648152Y-38012381D02*
X83981485Y-38012381D01*
X83981485Y-38012381D02*
X84171961Y-38060000D01*
X84171961Y-38060000D02*
X84267200Y-38155238D01*
X84267200Y-38155238D02*
X84314819Y-38250476D01*
X84314819Y-38250476D02*
X84314819Y-38440952D01*
X84314819Y-38440952D02*
X84267200Y-38536190D01*
X84267200Y-38536190D02*
X84171961Y-38631428D01*
X84171961Y-38631428D02*
X83981485Y-38679047D01*
X83981485Y-38679047D02*
X83648152Y-38679047D01*
X83648152Y-38679047D02*
X83457676Y-38631428D01*
X83457676Y-38631428D02*
X83362438Y-38536190D01*
X83362438Y-38536190D02*
X83314819Y-38440952D01*
X83314819Y-37583809D02*
X84124342Y-37583809D01*
X84124342Y-37583809D02*
X84219580Y-37536190D01*
X84219580Y-37536190D02*
X84267200Y-37488571D01*
X84267200Y-37488571D02*
X84314819Y-37393333D01*
X84314819Y-37393333D02*
X84314819Y-37202857D01*
X84314819Y-37202857D02*
X84267200Y-37107619D01*
X84267200Y-37107619D02*
X84219580Y-37060000D01*
X84219580Y-37060000D02*
X84124342Y-37012381D01*
X84124342Y-37012381D02*
X83314819Y-37012381D01*
X83314819Y-36679047D02*
X83314819Y-36107619D01*
X84314819Y-36393333D02*
X83314819Y-36393333D01*
X84314819Y-35774285D02*
X83314819Y-35774285D01*
X83314819Y-35774285D02*
X83314819Y-35393333D01*
X83314819Y-35393333D02*
X83362438Y-35298095D01*
X83362438Y-35298095D02*
X83410057Y-35250476D01*
X83410057Y-35250476D02*
X83505295Y-35202857D01*
X83505295Y-35202857D02*
X83648152Y-35202857D01*
X83648152Y-35202857D02*
X83743390Y-35250476D01*
X83743390Y-35250476D02*
X83791009Y-35298095D01*
X83791009Y-35298095D02*
X83838628Y-35393333D01*
X83838628Y-35393333D02*
X83838628Y-35774285D01*
X83314819Y-34774285D02*
X84124342Y-34774285D01*
X84124342Y-34774285D02*
X84219580Y-34726666D01*
X84219580Y-34726666D02*
X84267200Y-34679047D01*
X84267200Y-34679047D02*
X84314819Y-34583809D01*
X84314819Y-34583809D02*
X84314819Y-34393333D01*
X84314819Y-34393333D02*
X84267200Y-34298095D01*
X84267200Y-34298095D02*
X84219580Y-34250476D01*
X84219580Y-34250476D02*
X84124342Y-34202857D01*
X84124342Y-34202857D02*
X83314819Y-34202857D01*
X83314819Y-33869523D02*
X83314819Y-33298095D01*
X84314819Y-33583809D02*
X83314819Y-33583809D01*
X84314819Y-32440952D02*
X84314819Y-33012380D01*
X84314819Y-32726666D02*
X83314819Y-32726666D01*
X83314819Y-32726666D02*
X83457676Y-32821904D01*
X83457676Y-32821904D02*
X83552914Y-32917142D01*
X83552914Y-32917142D02*
X83600533Y-33012380D01*
D11*
%TO.C,INPUT_AC1*%
X32280000Y-44250000D02*
G75*
G02*
X28920000Y-44250000I-1680000J0D01*
G01*
X28920000Y-44250000D02*
G75*
G02*
X32280000Y-44250000I1680000J0D01*
G01*
X32135427Y-38566958D02*
G75*
G02*
X32135000Y-39934000I-1535420J-683041D01*
G01*
X31283042Y-40785427D02*
G75*
G02*
X29916000Y-40785000I-683042J1535427D01*
G01*
X29916958Y-37714573D02*
G75*
G02*
X31284000Y-37715000I683041J-1535420D01*
G01*
X29065244Y-39933318D02*
G75*
G02*
X28920000Y-39250000I1534756J683318D01*
G01*
X28919747Y-39278805D02*
G75*
G02*
X29065000Y-38566000I1680254J28806D01*
G01*
X34960000Y-46810000D02*
X26540000Y-46810000D01*
X34960000Y-36690000D02*
X34960000Y-46810000D01*
X34960000Y-36690000D02*
X26540000Y-36690000D01*
X34900000Y-45250000D02*
X33900000Y-45250000D01*
X34900000Y-43250000D02*
X34900000Y-45250000D01*
X34900000Y-43250000D02*
X33900000Y-43250000D01*
X34900000Y-40250000D02*
X33900000Y-40250000D01*
X34900000Y-38250000D02*
X34900000Y-40250000D01*
X34900000Y-38250000D02*
X33900000Y-38250000D01*
X33900000Y-43250000D02*
X33900000Y-45250000D01*
X33900000Y-38250000D02*
X33900000Y-40250000D01*
X32901000Y-36690000D02*
X32901000Y-46810000D01*
X31875000Y-45320000D02*
X31839000Y-45285000D01*
X31669000Y-45525000D02*
X31623000Y-45478000D01*
X29577000Y-43023000D02*
X29531000Y-42976000D01*
X29361000Y-43216000D02*
X29326000Y-43181000D01*
X28600000Y-36690000D02*
X28600000Y-46810000D01*
X27100000Y-36690000D02*
X27100000Y-46810000D01*
X27040000Y-36450000D02*
X26300000Y-36450000D01*
X26540000Y-36690000D02*
X26540000Y-46810000D01*
X26300000Y-36450000D02*
X26300000Y-36950000D01*
%TO.C,D2*%
X49580000Y-54490000D02*
X48560000Y-54490000D01*
X48560000Y-55960000D02*
X48560000Y-53020000D01*
X48560000Y-53020000D02*
X43120000Y-53020000D01*
X44140000Y-53020000D02*
X44140000Y-55960000D01*
X44020000Y-53020000D02*
X44020000Y-55960000D01*
X43900000Y-53020000D02*
X43900000Y-55960000D01*
X43120000Y-55960000D02*
X48560000Y-55960000D01*
X43120000Y-53020000D02*
X43120000Y-55960000D01*
X42100000Y-54490000D02*
X43120000Y-54490000D01*
%TO.C,D1*%
X22980000Y-25350000D02*
X22980000Y-26370000D01*
X24450000Y-26370000D02*
X21510000Y-26370000D01*
X21510000Y-26370000D02*
X21510000Y-31810000D01*
X24450000Y-27150000D02*
X21510000Y-27150000D01*
X24450000Y-27270000D02*
X21510000Y-27270000D01*
X24450000Y-27390000D02*
X21510000Y-27390000D01*
X24450000Y-31810000D02*
X24450000Y-26370000D01*
X21510000Y-31810000D02*
X24450000Y-31810000D01*
X22980000Y-32830000D02*
X22980000Y-31810000D01*
%TO.C,C2*%
X62255000Y-18135431D02*
X62255000Y-19435431D01*
X62905000Y-18785431D02*
X61605000Y-18785431D01*
X65120000Y-25220000D02*
X51960000Y-25220000D01*
X65120000Y-25260000D02*
X51960000Y-25260000D01*
X65120000Y-25300000D02*
X51960000Y-25300000D01*
X65119000Y-25340000D02*
X51961000Y-25340000D01*
X65119000Y-25380000D02*
X51961000Y-25380000D01*
X65117000Y-25420000D02*
X51963000Y-25420000D01*
X65116000Y-25460000D02*
X51964000Y-25460000D01*
X65115000Y-25500000D02*
X51965000Y-25500000D01*
X65113000Y-25540000D02*
X51967000Y-25540000D01*
X65111000Y-25580000D02*
X51969000Y-25580000D01*
X65108000Y-25620000D02*
X51972000Y-25620000D01*
X65106000Y-25660000D02*
X51974000Y-25660000D01*
X65103000Y-25700000D02*
X51977000Y-25700000D01*
X65100000Y-25740000D02*
X51980000Y-25740000D01*
X65097000Y-25780000D02*
X51983000Y-25780000D01*
X65093000Y-25820000D02*
X51987000Y-25820000D01*
X65089000Y-25860000D02*
X51991000Y-25860000D01*
X65085000Y-25900000D02*
X51995000Y-25900000D01*
X65081000Y-25941000D02*
X51999000Y-25941000D01*
X65077000Y-25981000D02*
X52003000Y-25981000D01*
X65072000Y-26021000D02*
X52008000Y-26021000D01*
X65067000Y-26061000D02*
X52013000Y-26061000D01*
X65062000Y-26101000D02*
X52018000Y-26101000D01*
X65056000Y-26141000D02*
X52024000Y-26141000D01*
X65051000Y-26181000D02*
X52029000Y-26181000D01*
X65045000Y-26221000D02*
X52035000Y-26221000D01*
X65038000Y-26261000D02*
X52042000Y-26261000D01*
X65032000Y-26301000D02*
X52048000Y-26301000D01*
X65025000Y-26341000D02*
X52055000Y-26341000D01*
X65018000Y-26381000D02*
X52062000Y-26381000D01*
X65011000Y-26421000D02*
X52069000Y-26421000D01*
X65003000Y-26461000D02*
X52077000Y-26461000D01*
X64996000Y-26501000D02*
X52084000Y-26501000D01*
X64988000Y-26541000D02*
X52092000Y-26541000D01*
X64979000Y-26581000D02*
X52101000Y-26581000D01*
X64971000Y-26621000D02*
X52109000Y-26621000D01*
X64962000Y-26661000D02*
X52118000Y-26661000D01*
X64953000Y-26701000D02*
X52127000Y-26701000D01*
X64944000Y-26741000D02*
X52136000Y-26741000D01*
X64934000Y-26781000D02*
X52146000Y-26781000D01*
X64924000Y-26821000D02*
X52156000Y-26821000D01*
X64914000Y-26861000D02*
X52166000Y-26861000D01*
X64904000Y-26901000D02*
X52176000Y-26901000D01*
X64893000Y-26941000D02*
X52187000Y-26941000D01*
X64882000Y-26981000D02*
X52198000Y-26981000D01*
X64871000Y-27021000D02*
X52209000Y-27021000D01*
X64860000Y-27061000D02*
X52220000Y-27061000D01*
X64848000Y-27101000D02*
X52232000Y-27101000D01*
X64836000Y-27141000D02*
X52244000Y-27141000D01*
X64824000Y-27181000D02*
X52256000Y-27181000D01*
X64811000Y-27221000D02*
X52269000Y-27221000D01*
X64798000Y-27261000D02*
X52282000Y-27261000D01*
X64785000Y-27301000D02*
X52295000Y-27301000D01*
X64772000Y-27341000D02*
X52308000Y-27341000D01*
X64758000Y-27381000D02*
X52322000Y-27381000D01*
X64744000Y-27421000D02*
X52336000Y-27421000D01*
X64730000Y-27461000D02*
X52350000Y-27461000D01*
X64715000Y-27501000D02*
X52365000Y-27501000D01*
X64701000Y-27541000D02*
X59980000Y-27541000D01*
X57100000Y-27541000D02*
X52379000Y-27541000D01*
X64686000Y-27581000D02*
X59980000Y-27581000D01*
X57100000Y-27581000D02*
X52394000Y-27581000D01*
X64670000Y-27621000D02*
X59980000Y-27621000D01*
X57100000Y-27621000D02*
X52410000Y-27621000D01*
X64654000Y-27661000D02*
X59980000Y-27661000D01*
X57100000Y-27661000D02*
X52426000Y-27661000D01*
X64638000Y-27701000D02*
X59980000Y-27701000D01*
X57100000Y-27701000D02*
X52442000Y-27701000D01*
X64622000Y-27741000D02*
X59980000Y-27741000D01*
X57100000Y-27741000D02*
X52458000Y-27741000D01*
X64605000Y-27781000D02*
X59980000Y-27781000D01*
X57100000Y-27781000D02*
X52475000Y-27781000D01*
X64589000Y-27821000D02*
X59980000Y-27821000D01*
X57100000Y-27821000D02*
X52491000Y-27821000D01*
X64571000Y-27861000D02*
X59980000Y-27861000D01*
X57100000Y-27861000D02*
X52509000Y-27861000D01*
X64554000Y-27901000D02*
X59980000Y-27901000D01*
X57100000Y-27901000D02*
X52526000Y-27901000D01*
X64536000Y-27941000D02*
X59980000Y-27941000D01*
X57100000Y-27941000D02*
X52544000Y-27941000D01*
X64518000Y-27981000D02*
X59980000Y-27981000D01*
X57100000Y-27981000D02*
X52562000Y-27981000D01*
X64499000Y-28021000D02*
X59980000Y-28021000D01*
X57100000Y-28021000D02*
X52581000Y-28021000D01*
X64480000Y-28061000D02*
X59980000Y-28061000D01*
X57100000Y-28061000D02*
X52600000Y-28061000D01*
X64461000Y-28101000D02*
X59980000Y-28101000D01*
X57100000Y-28101000D02*
X52619000Y-28101000D01*
X64442000Y-28141000D02*
X59980000Y-28141000D01*
X57100000Y-28141000D02*
X52638000Y-28141000D01*
X64422000Y-28181000D02*
X59980000Y-28181000D01*
X57100000Y-28181000D02*
X52658000Y-28181000D01*
X64402000Y-28221000D02*
X59980000Y-28221000D01*
X57100000Y-28221000D02*
X52678000Y-28221000D01*
X64381000Y-28261000D02*
X59980000Y-28261000D01*
X57100000Y-28261000D02*
X52699000Y-28261000D01*
X64360000Y-28301000D02*
X59980000Y-28301000D01*
X57100000Y-28301000D02*
X52720000Y-28301000D01*
X64339000Y-28341000D02*
X59980000Y-28341000D01*
X57100000Y-28341000D02*
X52741000Y-28341000D01*
X64318000Y-28381000D02*
X59980000Y-28381000D01*
X57100000Y-28381000D02*
X52762000Y-28381000D01*
X64296000Y-28421000D02*
X59980000Y-28421000D01*
X57100000Y-28421000D02*
X52784000Y-28421000D01*
X64273000Y-28461000D02*
X59980000Y-28461000D01*
X57100000Y-28461000D02*
X52807000Y-28461000D01*
X64251000Y-28501000D02*
X59980000Y-28501000D01*
X57100000Y-28501000D02*
X52829000Y-28501000D01*
X64228000Y-28541000D02*
X59980000Y-28541000D01*
X57100000Y-28541000D02*
X52852000Y-28541000D01*
X64204000Y-28581000D02*
X59980000Y-28581000D01*
X57100000Y-28581000D02*
X52876000Y-28581000D01*
X64181000Y-28621000D02*
X59980000Y-28621000D01*
X57100000Y-28621000D02*
X52899000Y-28621000D01*
X64157000Y-28661000D02*
X59980000Y-28661000D01*
X57100000Y-28661000D02*
X52923000Y-28661000D01*
X64132000Y-28701000D02*
X59980000Y-28701000D01*
X57100000Y-28701000D02*
X52948000Y-28701000D01*
X64107000Y-28741000D02*
X59980000Y-28741000D01*
X57100000Y-28741000D02*
X52973000Y-28741000D01*
X64082000Y-28781000D02*
X59980000Y-28781000D01*
X57100000Y-28781000D02*
X52998000Y-28781000D01*
X64056000Y-28821000D02*
X59980000Y-28821000D01*
X57100000Y-28821000D02*
X53024000Y-28821000D01*
X64030000Y-28861000D02*
X59980000Y-28861000D01*
X57100000Y-28861000D02*
X53050000Y-28861000D01*
X64003000Y-28901000D02*
X59980000Y-28901000D01*
X57100000Y-28901000D02*
X53077000Y-28901000D01*
X63976000Y-28941000D02*
X59980000Y-28941000D01*
X57100000Y-28941000D02*
X53104000Y-28941000D01*
X63949000Y-28981000D02*
X59980000Y-28981000D01*
X57100000Y-28981000D02*
X53131000Y-28981000D01*
X63921000Y-29021000D02*
X59980000Y-29021000D01*
X57100000Y-29021000D02*
X53159000Y-29021000D01*
X63893000Y-29061000D02*
X59980000Y-29061000D01*
X57100000Y-29061000D02*
X53187000Y-29061000D01*
X63864000Y-29101000D02*
X59980000Y-29101000D01*
X57100000Y-29101000D02*
X53216000Y-29101000D01*
X63835000Y-29141000D02*
X59980000Y-29141000D01*
X57100000Y-29141000D02*
X53245000Y-29141000D01*
X63805000Y-29181000D02*
X59980000Y-29181000D01*
X57100000Y-29181000D02*
X53275000Y-29181000D01*
X63775000Y-29221000D02*
X59980000Y-29221000D01*
X57100000Y-29221000D02*
X53305000Y-29221000D01*
X63745000Y-29261000D02*
X59980000Y-29261000D01*
X57100000Y-29261000D02*
X53335000Y-29261000D01*
X63714000Y-29301000D02*
X59980000Y-29301000D01*
X57100000Y-29301000D02*
X53366000Y-29301000D01*
X63682000Y-29341000D02*
X59980000Y-29341000D01*
X57100000Y-29341000D02*
X53398000Y-29341000D01*
X63650000Y-29381000D02*
X59980000Y-29381000D01*
X57100000Y-29381000D02*
X53430000Y-29381000D01*
X63618000Y-29421000D02*
X59980000Y-29421000D01*
X57100000Y-29421000D02*
X53462000Y-29421000D01*
X63584000Y-29461000D02*
X59980000Y-29461000D01*
X57100000Y-29461000D02*
X53496000Y-29461000D01*
X63551000Y-29501000D02*
X59980000Y-29501000D01*
X57100000Y-29501000D02*
X53529000Y-29501000D01*
X63517000Y-29541000D02*
X59980000Y-29541000D01*
X57100000Y-29541000D02*
X53563000Y-29541000D01*
X63482000Y-29581000D02*
X59980000Y-29581000D01*
X57100000Y-29581000D02*
X53598000Y-29581000D01*
X63447000Y-29621000D02*
X59980000Y-29621000D01*
X57100000Y-29621000D02*
X53633000Y-29621000D01*
X63411000Y-29661000D02*
X59980000Y-29661000D01*
X57100000Y-29661000D02*
X53669000Y-29661000D01*
X63374000Y-29701000D02*
X59980000Y-29701000D01*
X57100000Y-29701000D02*
X53706000Y-29701000D01*
X63337000Y-29741000D02*
X59980000Y-29741000D01*
X57100000Y-29741000D02*
X53743000Y-29741000D01*
X63300000Y-29781000D02*
X59980000Y-29781000D01*
X57100000Y-29781000D02*
X53780000Y-29781000D01*
X63261000Y-29821000D02*
X59980000Y-29821000D01*
X57100000Y-29821000D02*
X53819000Y-29821000D01*
X63222000Y-29861000D02*
X59980000Y-29861000D01*
X57100000Y-29861000D02*
X53858000Y-29861000D01*
X63183000Y-29901000D02*
X59980000Y-29901000D01*
X57100000Y-29901000D02*
X53897000Y-29901000D01*
X63142000Y-29941000D02*
X59980000Y-29941000D01*
X57100000Y-29941000D02*
X53938000Y-29941000D01*
X63101000Y-29981000D02*
X59980000Y-29981000D01*
X57100000Y-29981000D02*
X53979000Y-29981000D01*
X63059000Y-30021000D02*
X59980000Y-30021000D01*
X57100000Y-30021000D02*
X54021000Y-30021000D01*
X63017000Y-30061000D02*
X59980000Y-30061000D01*
X57100000Y-30061000D02*
X54063000Y-30061000D01*
X62974000Y-30101000D02*
X59980000Y-30101000D01*
X57100000Y-30101000D02*
X54106000Y-30101000D01*
X62930000Y-30141000D02*
X59980000Y-30141000D01*
X57100000Y-30141000D02*
X54150000Y-30141000D01*
X62885000Y-30181000D02*
X59980000Y-30181000D01*
X57100000Y-30181000D02*
X54195000Y-30181000D01*
X62839000Y-30221000D02*
X59980000Y-30221000D01*
X57100000Y-30221000D02*
X54241000Y-30221000D01*
X62793000Y-30261000D02*
X59980000Y-30261000D01*
X57100000Y-30261000D02*
X54287000Y-30261000D01*
X62745000Y-30301000D02*
X59980000Y-30301000D01*
X57100000Y-30301000D02*
X54335000Y-30301000D01*
X62697000Y-30341000D02*
X59980000Y-30341000D01*
X57100000Y-30341000D02*
X54383000Y-30341000D01*
X62648000Y-30381000D02*
X59980000Y-30381000D01*
X57100000Y-30381000D02*
X54432000Y-30381000D01*
X62597000Y-30421000D02*
X54483000Y-30421000D01*
X62546000Y-30461000D02*
X54534000Y-30461000D01*
X62494000Y-30501000D02*
X54586000Y-30501000D01*
X62440000Y-30541000D02*
X54640000Y-30541000D01*
X62386000Y-30581000D02*
X54694000Y-30581000D01*
X62330000Y-30621000D02*
X54750000Y-30621000D01*
X62273000Y-30661000D02*
X54807000Y-30661000D01*
X62215000Y-30701000D02*
X54865000Y-30701000D01*
X62155000Y-30741000D02*
X54925000Y-30741000D01*
X62094000Y-30781000D02*
X54986000Y-30781000D01*
X62031000Y-30821000D02*
X55049000Y-30821000D01*
X61967000Y-30861000D02*
X55113000Y-30861000D01*
X61901000Y-30901000D02*
X55179000Y-30901000D01*
X61833000Y-30941000D02*
X55247000Y-30941000D01*
X61763000Y-30981000D02*
X55317000Y-30981000D01*
X61692000Y-31021000D02*
X55388000Y-31021000D01*
X61618000Y-31061000D02*
X55462000Y-31061000D01*
X61542000Y-31101000D02*
X55538000Y-31101000D01*
X61463000Y-31141000D02*
X55617000Y-31141000D01*
X61382000Y-31181000D02*
X55698000Y-31181000D01*
X61298000Y-31221000D02*
X55782000Y-31221000D01*
X61210000Y-31261000D02*
X55870000Y-31261000D01*
X61119000Y-31301000D02*
X55961000Y-31301000D01*
X61024000Y-31341000D02*
X56056000Y-31341000D01*
X60925000Y-31381000D02*
X56155000Y-31381000D01*
X60821000Y-31421000D02*
X56259000Y-31421000D01*
X60711000Y-31461000D02*
X56369000Y-31461000D01*
X60595000Y-31501000D02*
X56485000Y-31501000D01*
X60471000Y-31541000D02*
X56609000Y-31541000D01*
X60338000Y-31581000D02*
X56742000Y-31581000D01*
X60193000Y-31621000D02*
X56887000Y-31621000D01*
X60034000Y-31661000D02*
X57046000Y-31661000D01*
X59855000Y-31701000D02*
X57225000Y-31701000D01*
X59647000Y-31741000D02*
X57433000Y-31741000D01*
X59390000Y-31781000D02*
X57690000Y-31781000D01*
X59015000Y-31821000D02*
X58065000Y-31821000D01*
X65160000Y-25220000D02*
G75*
G02*
X51920000Y-25220000I-6620000J0D01*
G01*
X51920000Y-25220000D02*
G75*
G02*
X65160000Y-25220000I6620000J0D01*
G01*
%TO.C,D3*%
X24320000Y-54490000D02*
X25340000Y-54490000D01*
X25340000Y-53020000D02*
X25340000Y-55960000D01*
X25340000Y-55960000D02*
X30780000Y-55960000D01*
X26120000Y-53020000D02*
X26120000Y-55960000D01*
X26240000Y-53020000D02*
X26240000Y-55960000D01*
X26360000Y-53020000D02*
X26360000Y-55960000D01*
X30780000Y-53020000D02*
X25340000Y-53020000D01*
X30780000Y-55960000D02*
X30780000Y-53020000D01*
X31800000Y-54490000D02*
X30780000Y-54490000D01*
%TO.C,D4*%
X49580000Y-36710000D02*
X48560000Y-36710000D01*
X48560000Y-38180000D02*
X48560000Y-35240000D01*
X48560000Y-35240000D02*
X43120000Y-35240000D01*
X44140000Y-35240000D02*
X44140000Y-38180000D01*
X44020000Y-35240000D02*
X44020000Y-38180000D01*
X43900000Y-35240000D02*
X43900000Y-38180000D01*
X43120000Y-38180000D02*
X48560000Y-38180000D01*
X43120000Y-35240000D02*
X43120000Y-38180000D01*
X42100000Y-36710000D02*
X43120000Y-36710000D01*
%TO.C,R1*%
X77570000Y-35560000D02*
G75*
G02*
X74830000Y-35560000I-1370000J0D01*
G01*
X74830000Y-35560000D02*
G75*
G02*
X77570000Y-35560000I1370000J0D01*
G01*
X74830000Y-35560000D02*
X72220000Y-35560000D01*
%TO.C,RegulateurV1*%
X81440000Y-23280000D02*
X81440000Y-27921000D01*
X78171000Y-23280000D02*
X78171000Y-24790000D01*
X74470000Y-23280000D02*
X74470000Y-24790000D01*
X71200000Y-27921000D02*
X81440000Y-27921000D01*
X71200000Y-24790000D02*
X81440000Y-24790000D01*
X71200000Y-23280000D02*
X81440000Y-23280000D01*
X71200000Y-23280000D02*
X71200000Y-27921000D01*
%TO.C,C1*%
X37425431Y-20295000D02*
X38725431Y-20295000D01*
X38075431Y-19645000D02*
X38075431Y-20945000D01*
X44510000Y-17430000D02*
X44510000Y-30590000D01*
X44550000Y-17430000D02*
X44550000Y-30590000D01*
X44590000Y-17430000D02*
X44590000Y-30590000D01*
X44630000Y-17431000D02*
X44630000Y-30589000D01*
X44670000Y-17431000D02*
X44670000Y-30589000D01*
X44710000Y-17433000D02*
X44710000Y-30587000D01*
X44750000Y-17434000D02*
X44750000Y-30586000D01*
X44790000Y-17435000D02*
X44790000Y-30585000D01*
X44830000Y-17437000D02*
X44830000Y-30583000D01*
X44870000Y-17439000D02*
X44870000Y-30581000D01*
X44910000Y-17442000D02*
X44910000Y-30578000D01*
X44950000Y-17444000D02*
X44950000Y-30576000D01*
X44990000Y-17447000D02*
X44990000Y-30573000D01*
X45030000Y-17450000D02*
X45030000Y-30570000D01*
X45070000Y-17453000D02*
X45070000Y-30567000D01*
X45110000Y-17457000D02*
X45110000Y-30563000D01*
X45150000Y-17461000D02*
X45150000Y-30559000D01*
X45190000Y-17465000D02*
X45190000Y-30555000D01*
X45231000Y-17469000D02*
X45231000Y-30551000D01*
X45271000Y-17473000D02*
X45271000Y-30547000D01*
X45311000Y-17478000D02*
X45311000Y-30542000D01*
X45351000Y-17483000D02*
X45351000Y-30537000D01*
X45391000Y-17488000D02*
X45391000Y-30532000D01*
X45431000Y-17494000D02*
X45431000Y-30526000D01*
X45471000Y-17499000D02*
X45471000Y-30521000D01*
X45511000Y-17505000D02*
X45511000Y-30515000D01*
X45551000Y-17512000D02*
X45551000Y-30508000D01*
X45591000Y-17518000D02*
X45591000Y-30502000D01*
X45631000Y-17525000D02*
X45631000Y-30495000D01*
X45671000Y-17532000D02*
X45671000Y-30488000D01*
X45711000Y-17539000D02*
X45711000Y-30481000D01*
X45751000Y-17547000D02*
X45751000Y-30473000D01*
X45791000Y-17554000D02*
X45791000Y-30466000D01*
X45831000Y-17562000D02*
X45831000Y-30458000D01*
X45871000Y-17571000D02*
X45871000Y-30449000D01*
X45911000Y-17579000D02*
X45911000Y-30441000D01*
X45951000Y-17588000D02*
X45951000Y-30432000D01*
X45991000Y-17597000D02*
X45991000Y-30423000D01*
X46031000Y-17606000D02*
X46031000Y-30414000D01*
X46071000Y-17616000D02*
X46071000Y-30404000D01*
X46111000Y-17626000D02*
X46111000Y-30394000D01*
X46151000Y-17636000D02*
X46151000Y-30384000D01*
X46191000Y-17646000D02*
X46191000Y-30374000D01*
X46231000Y-17657000D02*
X46231000Y-30363000D01*
X46271000Y-17668000D02*
X46271000Y-30352000D01*
X46311000Y-17679000D02*
X46311000Y-30341000D01*
X46351000Y-17690000D02*
X46351000Y-30330000D01*
X46391000Y-17702000D02*
X46391000Y-30318000D01*
X46431000Y-17714000D02*
X46431000Y-30306000D01*
X46471000Y-17726000D02*
X46471000Y-30294000D01*
X46511000Y-17739000D02*
X46511000Y-30281000D01*
X46551000Y-17752000D02*
X46551000Y-30268000D01*
X46591000Y-17765000D02*
X46591000Y-30255000D01*
X46631000Y-17778000D02*
X46631000Y-30242000D01*
X46671000Y-17792000D02*
X46671000Y-30228000D01*
X46711000Y-17806000D02*
X46711000Y-30214000D01*
X46751000Y-17820000D02*
X46751000Y-30200000D01*
X46791000Y-17835000D02*
X46791000Y-30185000D01*
X46831000Y-17849000D02*
X46831000Y-22570000D01*
X46831000Y-25450000D02*
X46831000Y-30171000D01*
X46871000Y-17864000D02*
X46871000Y-22570000D01*
X46871000Y-25450000D02*
X46871000Y-30156000D01*
X46911000Y-17880000D02*
X46911000Y-22570000D01*
X46911000Y-25450000D02*
X46911000Y-30140000D01*
X46951000Y-17896000D02*
X46951000Y-22570000D01*
X46951000Y-25450000D02*
X46951000Y-30124000D01*
X46991000Y-17912000D02*
X46991000Y-22570000D01*
X46991000Y-25450000D02*
X46991000Y-30108000D01*
X47031000Y-17928000D02*
X47031000Y-22570000D01*
X47031000Y-25450000D02*
X47031000Y-30092000D01*
X47071000Y-17945000D02*
X47071000Y-22570000D01*
X47071000Y-25450000D02*
X47071000Y-30075000D01*
X47111000Y-17961000D02*
X47111000Y-22570000D01*
X47111000Y-25450000D02*
X47111000Y-30059000D01*
X47151000Y-17979000D02*
X47151000Y-22570000D01*
X47151000Y-25450000D02*
X47151000Y-30041000D01*
X47191000Y-17996000D02*
X47191000Y-22570000D01*
X47191000Y-25450000D02*
X47191000Y-30024000D01*
X47231000Y-18014000D02*
X47231000Y-22570000D01*
X47231000Y-25450000D02*
X47231000Y-30006000D01*
X47271000Y-18032000D02*
X47271000Y-22570000D01*
X47271000Y-25450000D02*
X47271000Y-29988000D01*
X47311000Y-18051000D02*
X47311000Y-22570000D01*
X47311000Y-25450000D02*
X47311000Y-29969000D01*
X47351000Y-18070000D02*
X47351000Y-22570000D01*
X47351000Y-25450000D02*
X47351000Y-29950000D01*
X47391000Y-18089000D02*
X47391000Y-22570000D01*
X47391000Y-25450000D02*
X47391000Y-29931000D01*
X47431000Y-18108000D02*
X47431000Y-22570000D01*
X47431000Y-25450000D02*
X47431000Y-29912000D01*
X47471000Y-18128000D02*
X47471000Y-22570000D01*
X47471000Y-25450000D02*
X47471000Y-29892000D01*
X47511000Y-18148000D02*
X47511000Y-22570000D01*
X47511000Y-25450000D02*
X47511000Y-29872000D01*
X47551000Y-18169000D02*
X47551000Y-22570000D01*
X47551000Y-25450000D02*
X47551000Y-29851000D01*
X47591000Y-18190000D02*
X47591000Y-22570000D01*
X47591000Y-25450000D02*
X47591000Y-29830000D01*
X47631000Y-18211000D02*
X47631000Y-22570000D01*
X47631000Y-25450000D02*
X47631000Y-29809000D01*
X47671000Y-18232000D02*
X47671000Y-22570000D01*
X47671000Y-25450000D02*
X47671000Y-29788000D01*
X47711000Y-18254000D02*
X47711000Y-22570000D01*
X47711000Y-25450000D02*
X47711000Y-29766000D01*
X47751000Y-18277000D02*
X47751000Y-22570000D01*
X47751000Y-25450000D02*
X47751000Y-29743000D01*
X47791000Y-18299000D02*
X47791000Y-22570000D01*
X47791000Y-25450000D02*
X47791000Y-29721000D01*
X47831000Y-18322000D02*
X47831000Y-22570000D01*
X47831000Y-25450000D02*
X47831000Y-29698000D01*
X47871000Y-18346000D02*
X47871000Y-22570000D01*
X47871000Y-25450000D02*
X47871000Y-29674000D01*
X47911000Y-18369000D02*
X47911000Y-22570000D01*
X47911000Y-25450000D02*
X47911000Y-29651000D01*
X47951000Y-18393000D02*
X47951000Y-22570000D01*
X47951000Y-25450000D02*
X47951000Y-29627000D01*
X47991000Y-18418000D02*
X47991000Y-22570000D01*
X47991000Y-25450000D02*
X47991000Y-29602000D01*
X48031000Y-18443000D02*
X48031000Y-22570000D01*
X48031000Y-25450000D02*
X48031000Y-29577000D01*
X48071000Y-18468000D02*
X48071000Y-22570000D01*
X48071000Y-25450000D02*
X48071000Y-29552000D01*
X48111000Y-18494000D02*
X48111000Y-22570000D01*
X48111000Y-25450000D02*
X48111000Y-29526000D01*
X48151000Y-18520000D02*
X48151000Y-22570000D01*
X48151000Y-25450000D02*
X48151000Y-29500000D01*
X48191000Y-18547000D02*
X48191000Y-22570000D01*
X48191000Y-25450000D02*
X48191000Y-29473000D01*
X48231000Y-18574000D02*
X48231000Y-22570000D01*
X48231000Y-25450000D02*
X48231000Y-29446000D01*
X48271000Y-18601000D02*
X48271000Y-22570000D01*
X48271000Y-25450000D02*
X48271000Y-29419000D01*
X48311000Y-18629000D02*
X48311000Y-22570000D01*
X48311000Y-25450000D02*
X48311000Y-29391000D01*
X48351000Y-18657000D02*
X48351000Y-22570000D01*
X48351000Y-25450000D02*
X48351000Y-29363000D01*
X48391000Y-18686000D02*
X48391000Y-22570000D01*
X48391000Y-25450000D02*
X48391000Y-29334000D01*
X48431000Y-18715000D02*
X48431000Y-22570000D01*
X48431000Y-25450000D02*
X48431000Y-29305000D01*
X48471000Y-18745000D02*
X48471000Y-22570000D01*
X48471000Y-25450000D02*
X48471000Y-29275000D01*
X48511000Y-18775000D02*
X48511000Y-22570000D01*
X48511000Y-25450000D02*
X48511000Y-29245000D01*
X48551000Y-18805000D02*
X48551000Y-22570000D01*
X48551000Y-25450000D02*
X48551000Y-29215000D01*
X48591000Y-18836000D02*
X48591000Y-22570000D01*
X48591000Y-25450000D02*
X48591000Y-29184000D01*
X48631000Y-18868000D02*
X48631000Y-22570000D01*
X48631000Y-25450000D02*
X48631000Y-29152000D01*
X48671000Y-18900000D02*
X48671000Y-22570000D01*
X48671000Y-25450000D02*
X48671000Y-29120000D01*
X48711000Y-18932000D02*
X48711000Y-22570000D01*
X48711000Y-25450000D02*
X48711000Y-29088000D01*
X48751000Y-18966000D02*
X48751000Y-22570000D01*
X48751000Y-25450000D02*
X48751000Y-29054000D01*
X48791000Y-18999000D02*
X48791000Y-22570000D01*
X48791000Y-25450000D02*
X48791000Y-29021000D01*
X48831000Y-19033000D02*
X48831000Y-22570000D01*
X48831000Y-25450000D02*
X48831000Y-28987000D01*
X48871000Y-19068000D02*
X48871000Y-22570000D01*
X48871000Y-25450000D02*
X48871000Y-28952000D01*
X48911000Y-19103000D02*
X48911000Y-22570000D01*
X48911000Y-25450000D02*
X48911000Y-28917000D01*
X48951000Y-19139000D02*
X48951000Y-22570000D01*
X48951000Y-25450000D02*
X48951000Y-28881000D01*
X48991000Y-19176000D02*
X48991000Y-22570000D01*
X48991000Y-25450000D02*
X48991000Y-28844000D01*
X49031000Y-19213000D02*
X49031000Y-22570000D01*
X49031000Y-25450000D02*
X49031000Y-28807000D01*
X49071000Y-19250000D02*
X49071000Y-22570000D01*
X49071000Y-25450000D02*
X49071000Y-28770000D01*
X49111000Y-19289000D02*
X49111000Y-22570000D01*
X49111000Y-25450000D02*
X49111000Y-28731000D01*
X49151000Y-19328000D02*
X49151000Y-22570000D01*
X49151000Y-25450000D02*
X49151000Y-28692000D01*
X49191000Y-19367000D02*
X49191000Y-22570000D01*
X49191000Y-25450000D02*
X49191000Y-28653000D01*
X49231000Y-19408000D02*
X49231000Y-22570000D01*
X49231000Y-25450000D02*
X49231000Y-28612000D01*
X49271000Y-19449000D02*
X49271000Y-22570000D01*
X49271000Y-25450000D02*
X49271000Y-28571000D01*
X49311000Y-19491000D02*
X49311000Y-22570000D01*
X49311000Y-25450000D02*
X49311000Y-28529000D01*
X49351000Y-19533000D02*
X49351000Y-22570000D01*
X49351000Y-25450000D02*
X49351000Y-28487000D01*
X49391000Y-19576000D02*
X49391000Y-22570000D01*
X49391000Y-25450000D02*
X49391000Y-28444000D01*
X49431000Y-19620000D02*
X49431000Y-22570000D01*
X49431000Y-25450000D02*
X49431000Y-28400000D01*
X49471000Y-19665000D02*
X49471000Y-22570000D01*
X49471000Y-25450000D02*
X49471000Y-28355000D01*
X49511000Y-19711000D02*
X49511000Y-22570000D01*
X49511000Y-25450000D02*
X49511000Y-28309000D01*
X49551000Y-19757000D02*
X49551000Y-22570000D01*
X49551000Y-25450000D02*
X49551000Y-28263000D01*
X49591000Y-19805000D02*
X49591000Y-22570000D01*
X49591000Y-25450000D02*
X49591000Y-28215000D01*
X49631000Y-19853000D02*
X49631000Y-22570000D01*
X49631000Y-25450000D02*
X49631000Y-28167000D01*
X49671000Y-19902000D02*
X49671000Y-22570000D01*
X49671000Y-25450000D02*
X49671000Y-28118000D01*
X49711000Y-19953000D02*
X49711000Y-28067000D01*
X49751000Y-20004000D02*
X49751000Y-28016000D01*
X49791000Y-20056000D02*
X49791000Y-27964000D01*
X49831000Y-20110000D02*
X49831000Y-27910000D01*
X49871000Y-20164000D02*
X49871000Y-27856000D01*
X49911000Y-20220000D02*
X49911000Y-27800000D01*
X49951000Y-20277000D02*
X49951000Y-27743000D01*
X49991000Y-20335000D02*
X49991000Y-27685000D01*
X50031000Y-20395000D02*
X50031000Y-27625000D01*
X50071000Y-20456000D02*
X50071000Y-27564000D01*
X50111000Y-20519000D02*
X50111000Y-27501000D01*
X50151000Y-20583000D02*
X50151000Y-27437000D01*
X50191000Y-20649000D02*
X50191000Y-27371000D01*
X50231000Y-20717000D02*
X50231000Y-27303000D01*
X50271000Y-20787000D02*
X50271000Y-27233000D01*
X50311000Y-20858000D02*
X50311000Y-27162000D01*
X50351000Y-20932000D02*
X50351000Y-27088000D01*
X50391000Y-21008000D02*
X50391000Y-27012000D01*
X50431000Y-21087000D02*
X50431000Y-26933000D01*
X50471000Y-21168000D02*
X50471000Y-26852000D01*
X50511000Y-21252000D02*
X50511000Y-26768000D01*
X50551000Y-21340000D02*
X50551000Y-26680000D01*
X50591000Y-21431000D02*
X50591000Y-26589000D01*
X50631000Y-21526000D02*
X50631000Y-26494000D01*
X50671000Y-21625000D02*
X50671000Y-26395000D01*
X50711000Y-21729000D02*
X50711000Y-26291000D01*
X50751000Y-21839000D02*
X50751000Y-26181000D01*
X50791000Y-21955000D02*
X50791000Y-26065000D01*
X50831000Y-22079000D02*
X50831000Y-25941000D01*
X50871000Y-22212000D02*
X50871000Y-25808000D01*
X50911000Y-22357000D02*
X50911000Y-25663000D01*
X50951000Y-22516000D02*
X50951000Y-25504000D01*
X50991000Y-22695000D02*
X50991000Y-25325000D01*
X51031000Y-22903000D02*
X51031000Y-25117000D01*
X51071000Y-23160000D02*
X51071000Y-24860000D01*
X51111000Y-23535000D02*
X51111000Y-24485000D01*
X51130000Y-24010000D02*
G75*
G02*
X37890000Y-24010000I-6620000J0D01*
G01*
X37890000Y-24010000D02*
G75*
G02*
X51130000Y-24010000I6620000J0D01*
G01*
%TO.C,R2*%
X70820000Y-46100000D02*
X70820000Y-64340000D01*
X72515000Y-46100000D02*
X70820000Y-46100000D01*
X77515000Y-46100000D02*
X75365000Y-46100000D01*
X82514000Y-46100000D02*
X80365000Y-46100000D01*
X87060000Y-46100000D02*
X85366000Y-46100000D01*
X87060000Y-46100000D02*
X87060000Y-64340000D01*
X87060000Y-64340000D02*
X70820000Y-64340000D01*
%TO.C,OUTPUT1*%
X87200000Y-29070000D02*
X95620000Y-29070000D01*
X87200000Y-39190000D02*
X87200000Y-29070000D01*
X87200000Y-39190000D02*
X95620000Y-39190000D01*
X87260000Y-30630000D02*
X88260000Y-30630000D01*
X87260000Y-32630000D02*
X87260000Y-30630000D01*
X87260000Y-32630000D02*
X88260000Y-32630000D01*
X87260000Y-35630000D02*
X88260000Y-35630000D01*
X87260000Y-37630000D02*
X87260000Y-35630000D01*
X87260000Y-37630000D02*
X88260000Y-37630000D01*
X88260000Y-32630000D02*
X88260000Y-30630000D01*
X88260000Y-37630000D02*
X88260000Y-35630000D01*
X89259000Y-39190000D02*
X89259000Y-29070000D01*
X90285000Y-30560000D02*
X90321000Y-30595000D01*
X90491000Y-30355000D02*
X90537000Y-30402000D01*
X92583000Y-32857000D02*
X92629000Y-32904000D01*
X92799000Y-32664000D02*
X92834000Y-32699000D01*
X93560000Y-39190000D02*
X93560000Y-29070000D01*
X95060000Y-39190000D02*
X95060000Y-29070000D01*
X95120000Y-39430000D02*
X95860000Y-39430000D01*
X95620000Y-39190000D02*
X95620000Y-29070000D01*
X95860000Y-39430000D02*
X95860000Y-38930000D01*
X90024573Y-37313042D02*
G75*
G02*
X90025000Y-35946000I1535420J683041D01*
G01*
X90876958Y-35094573D02*
G75*
G02*
X92244000Y-35095000I683042J-1535427D01*
G01*
X92243042Y-38165427D02*
G75*
G02*
X90876000Y-38165000I-683041J1535420D01*
G01*
X93094756Y-35946682D02*
G75*
G02*
X93240000Y-36630000I-1534756J-683318D01*
G01*
X93240253Y-36601195D02*
G75*
G02*
X93095000Y-37314000I-1680254J-28806D01*
G01*
X93240000Y-31630000D02*
G75*
G02*
X89880000Y-31630000I-1680000J0D01*
G01*
X89880000Y-31630000D02*
G75*
G02*
X93240000Y-31630000I1680000J0D01*
G01*
%TD*%
M02*
