%TF.GenerationSoftware,KiCad,Pcbnew,8.0.9*%
%TF.CreationDate,2025-08-13T21:21:24+02:00*%
%TF.ProjectId,regulateur_tension,72656775-6c61-4746-9575-725f74656e73,rev?*%
%TF.SameCoordinates,Original*%
%TF.FileFunction,Legend,Top*%
%TF.FilePolarity,Positive*%
%FSLAX46Y46*%
G04 Gerber Fmt 4.6, Leading zero omitted, Abs format (unit mm)*
G04 Created by KiCad (PCBNEW 8.0.9) date 2025-08-13 21:21:24*
%MOMM*%
%LPD*%
G01*
G04 APERTURE LIST*
%ADD10C,0.150000*%
%ADD11C,0.120000*%
G04 APERTURE END LIST*
D10*
X94629819Y-82261904D02*
X95439342Y-82261904D01*
X95439342Y-82261904D02*
X95534580Y-82214285D01*
X95534580Y-82214285D02*
X95582200Y-82166666D01*
X95582200Y-82166666D02*
X95629819Y-82071428D01*
X95629819Y-82071428D02*
X95629819Y-81880952D01*
X95629819Y-81880952D02*
X95582200Y-81785714D01*
X95582200Y-81785714D02*
X95534580Y-81738095D01*
X95534580Y-81738095D02*
X95439342Y-81690476D01*
X95439342Y-81690476D02*
X94629819Y-81690476D01*
X94629819Y-81309523D02*
X94629819Y-80690476D01*
X94629819Y-80690476D02*
X95010771Y-81023809D01*
X95010771Y-81023809D02*
X95010771Y-80880952D01*
X95010771Y-80880952D02*
X95058390Y-80785714D01*
X95058390Y-80785714D02*
X95106009Y-80738095D01*
X95106009Y-80738095D02*
X95201247Y-80690476D01*
X95201247Y-80690476D02*
X95439342Y-80690476D01*
X95439342Y-80690476D02*
X95534580Y-80738095D01*
X95534580Y-80738095D02*
X95582200Y-80785714D01*
X95582200Y-80785714D02*
X95629819Y-80880952D01*
X95629819Y-80880952D02*
X95629819Y-81166666D01*
X95629819Y-81166666D02*
X95582200Y-81261904D01*
X95582200Y-81261904D02*
X95534580Y-81309523D01*
X98198095Y-52684819D02*
X98198095Y-53494342D01*
X98198095Y-53494342D02*
X98245714Y-53589580D01*
X98245714Y-53589580D02*
X98293333Y-53637200D01*
X98293333Y-53637200D02*
X98388571Y-53684819D01*
X98388571Y-53684819D02*
X98579047Y-53684819D01*
X98579047Y-53684819D02*
X98674285Y-53637200D01*
X98674285Y-53637200D02*
X98721904Y-53589580D01*
X98721904Y-53589580D02*
X98769523Y-53494342D01*
X98769523Y-53494342D02*
X98769523Y-52684819D01*
X99198095Y-52780057D02*
X99245714Y-52732438D01*
X99245714Y-52732438D02*
X99340952Y-52684819D01*
X99340952Y-52684819D02*
X99579047Y-52684819D01*
X99579047Y-52684819D02*
X99674285Y-52732438D01*
X99674285Y-52732438D02*
X99721904Y-52780057D01*
X99721904Y-52780057D02*
X99769523Y-52875295D01*
X99769523Y-52875295D02*
X99769523Y-52970533D01*
X99769523Y-52970533D02*
X99721904Y-53113390D01*
X99721904Y-53113390D02*
X99150476Y-53684819D01*
X99150476Y-53684819D02*
X99769523Y-53684819D01*
X118954819Y-73880952D02*
X118954819Y-73690476D01*
X118954819Y-73690476D02*
X119002438Y-73595238D01*
X119002438Y-73595238D02*
X119097676Y-73500000D01*
X119097676Y-73500000D02*
X119288152Y-73452381D01*
X119288152Y-73452381D02*
X119621485Y-73452381D01*
X119621485Y-73452381D02*
X119811961Y-73500000D01*
X119811961Y-73500000D02*
X119907200Y-73595238D01*
X119907200Y-73595238D02*
X119954819Y-73690476D01*
X119954819Y-73690476D02*
X119954819Y-73880952D01*
X119954819Y-73880952D02*
X119907200Y-73976190D01*
X119907200Y-73976190D02*
X119811961Y-74071428D01*
X119811961Y-74071428D02*
X119621485Y-74119047D01*
X119621485Y-74119047D02*
X119288152Y-74119047D01*
X119288152Y-74119047D02*
X119097676Y-74071428D01*
X119097676Y-74071428D02*
X119002438Y-73976190D01*
X119002438Y-73976190D02*
X118954819Y-73880952D01*
X118954819Y-73023809D02*
X119764342Y-73023809D01*
X119764342Y-73023809D02*
X119859580Y-72976190D01*
X119859580Y-72976190D02*
X119907200Y-72928571D01*
X119907200Y-72928571D02*
X119954819Y-72833333D01*
X119954819Y-72833333D02*
X119954819Y-72642857D01*
X119954819Y-72642857D02*
X119907200Y-72547619D01*
X119907200Y-72547619D02*
X119859580Y-72500000D01*
X119859580Y-72500000D02*
X119764342Y-72452381D01*
X119764342Y-72452381D02*
X118954819Y-72452381D01*
X118954819Y-72119047D02*
X118954819Y-71547619D01*
X119954819Y-71833333D02*
X118954819Y-71833333D01*
X119954819Y-71214285D02*
X118954819Y-71214285D01*
X118954819Y-71214285D02*
X118954819Y-70833333D01*
X118954819Y-70833333D02*
X119002438Y-70738095D01*
X119002438Y-70738095D02*
X119050057Y-70690476D01*
X119050057Y-70690476D02*
X119145295Y-70642857D01*
X119145295Y-70642857D02*
X119288152Y-70642857D01*
X119288152Y-70642857D02*
X119383390Y-70690476D01*
X119383390Y-70690476D02*
X119431009Y-70738095D01*
X119431009Y-70738095D02*
X119478628Y-70833333D01*
X119478628Y-70833333D02*
X119478628Y-71214285D01*
X118954819Y-70214285D02*
X119764342Y-70214285D01*
X119764342Y-70214285D02*
X119859580Y-70166666D01*
X119859580Y-70166666D02*
X119907200Y-70119047D01*
X119907200Y-70119047D02*
X119954819Y-70023809D01*
X119954819Y-70023809D02*
X119954819Y-69833333D01*
X119954819Y-69833333D02*
X119907200Y-69738095D01*
X119907200Y-69738095D02*
X119859580Y-69690476D01*
X119859580Y-69690476D02*
X119764342Y-69642857D01*
X119764342Y-69642857D02*
X118954819Y-69642857D01*
X118954819Y-69309523D02*
X118954819Y-68738095D01*
X119954819Y-69023809D02*
X118954819Y-69023809D01*
X119050057Y-68452380D02*
X119002438Y-68404761D01*
X119002438Y-68404761D02*
X118954819Y-68309523D01*
X118954819Y-68309523D02*
X118954819Y-68071428D01*
X118954819Y-68071428D02*
X119002438Y-67976190D01*
X119002438Y-67976190D02*
X119050057Y-67928571D01*
X119050057Y-67928571D02*
X119145295Y-67880952D01*
X119145295Y-67880952D02*
X119240533Y-67880952D01*
X119240533Y-67880952D02*
X119383390Y-67928571D01*
X119383390Y-67928571D02*
X119954819Y-68499999D01*
X119954819Y-68499999D02*
X119954819Y-67880952D01*
X124619047Y-54954819D02*
X124809523Y-54954819D01*
X124809523Y-54954819D02*
X124904761Y-55002438D01*
X124904761Y-55002438D02*
X124999999Y-55097676D01*
X124999999Y-55097676D02*
X125047618Y-55288152D01*
X125047618Y-55288152D02*
X125047618Y-55621485D01*
X125047618Y-55621485D02*
X124999999Y-55811961D01*
X124999999Y-55811961D02*
X124904761Y-55907200D01*
X124904761Y-55907200D02*
X124809523Y-55954819D01*
X124809523Y-55954819D02*
X124619047Y-55954819D01*
X124619047Y-55954819D02*
X124523809Y-55907200D01*
X124523809Y-55907200D02*
X124428571Y-55811961D01*
X124428571Y-55811961D02*
X124380952Y-55621485D01*
X124380952Y-55621485D02*
X124380952Y-55288152D01*
X124380952Y-55288152D02*
X124428571Y-55097676D01*
X124428571Y-55097676D02*
X124523809Y-55002438D01*
X124523809Y-55002438D02*
X124619047Y-54954819D01*
X125476190Y-54954819D02*
X125476190Y-55764342D01*
X125476190Y-55764342D02*
X125523809Y-55859580D01*
X125523809Y-55859580D02*
X125571428Y-55907200D01*
X125571428Y-55907200D02*
X125666666Y-55954819D01*
X125666666Y-55954819D02*
X125857142Y-55954819D01*
X125857142Y-55954819D02*
X125952380Y-55907200D01*
X125952380Y-55907200D02*
X125999999Y-55859580D01*
X125999999Y-55859580D02*
X126047618Y-55764342D01*
X126047618Y-55764342D02*
X126047618Y-54954819D01*
X126380952Y-54954819D02*
X126952380Y-54954819D01*
X126666666Y-55954819D02*
X126666666Y-54954819D01*
X127285714Y-55954819D02*
X127285714Y-54954819D01*
X127285714Y-54954819D02*
X127666666Y-54954819D01*
X127666666Y-54954819D02*
X127761904Y-55002438D01*
X127761904Y-55002438D02*
X127809523Y-55050057D01*
X127809523Y-55050057D02*
X127857142Y-55145295D01*
X127857142Y-55145295D02*
X127857142Y-55288152D01*
X127857142Y-55288152D02*
X127809523Y-55383390D01*
X127809523Y-55383390D02*
X127761904Y-55431009D01*
X127761904Y-55431009D02*
X127666666Y-55478628D01*
X127666666Y-55478628D02*
X127285714Y-55478628D01*
X128285714Y-54954819D02*
X128285714Y-55764342D01*
X128285714Y-55764342D02*
X128333333Y-55859580D01*
X128333333Y-55859580D02*
X128380952Y-55907200D01*
X128380952Y-55907200D02*
X128476190Y-55954819D01*
X128476190Y-55954819D02*
X128666666Y-55954819D01*
X128666666Y-55954819D02*
X128761904Y-55907200D01*
X128761904Y-55907200D02*
X128809523Y-55859580D01*
X128809523Y-55859580D02*
X128857142Y-55764342D01*
X128857142Y-55764342D02*
X128857142Y-54954819D01*
X129190476Y-54954819D02*
X129761904Y-54954819D01*
X129476190Y-55954819D02*
X129476190Y-54954819D01*
X130619047Y-55954819D02*
X130047619Y-55954819D01*
X130333333Y-55954819D02*
X130333333Y-54954819D01*
X130333333Y-54954819D02*
X130238095Y-55097676D01*
X130238095Y-55097676D02*
X130142857Y-55192914D01*
X130142857Y-55192914D02*
X130047619Y-55240533D01*
X60666666Y-84190034D02*
X60666666Y-84904319D01*
X60666666Y-84904319D02*
X60619047Y-85047176D01*
X60619047Y-85047176D02*
X60523809Y-85142415D01*
X60523809Y-85142415D02*
X60380952Y-85190034D01*
X60380952Y-85190034D02*
X60285714Y-85190034D01*
X61095238Y-84285272D02*
X61142857Y-84237653D01*
X61142857Y-84237653D02*
X61238095Y-84190034D01*
X61238095Y-84190034D02*
X61476190Y-84190034D01*
X61476190Y-84190034D02*
X61571428Y-84237653D01*
X61571428Y-84237653D02*
X61619047Y-84285272D01*
X61619047Y-84285272D02*
X61666666Y-84380510D01*
X61666666Y-84380510D02*
X61666666Y-84475748D01*
X61666666Y-84475748D02*
X61619047Y-84618605D01*
X61619047Y-84618605D02*
X61047619Y-85190034D01*
X61047619Y-85190034D02*
X61666666Y-85190034D01*
X46666666Y-45954819D02*
X46666666Y-46669104D01*
X46666666Y-46669104D02*
X46619047Y-46811961D01*
X46619047Y-46811961D02*
X46523809Y-46907200D01*
X46523809Y-46907200D02*
X46380952Y-46954819D01*
X46380952Y-46954819D02*
X46285714Y-46954819D01*
X47666666Y-46954819D02*
X47095238Y-46954819D01*
X47380952Y-46954819D02*
X47380952Y-45954819D01*
X47380952Y-45954819D02*
X47285714Y-46097676D01*
X47285714Y-46097676D02*
X47190476Y-46192914D01*
X47190476Y-46192914D02*
X47095238Y-46240533D01*
X53454819Y-75279500D02*
X52454819Y-75279500D01*
X53454819Y-74803310D02*
X52454819Y-74803310D01*
X52454819Y-74803310D02*
X53454819Y-74231882D01*
X53454819Y-74231882D02*
X52454819Y-74231882D01*
X53454819Y-73755691D02*
X52454819Y-73755691D01*
X52454819Y-73755691D02*
X52454819Y-73374739D01*
X52454819Y-73374739D02*
X52502438Y-73279501D01*
X52502438Y-73279501D02*
X52550057Y-73231882D01*
X52550057Y-73231882D02*
X52645295Y-73184263D01*
X52645295Y-73184263D02*
X52788152Y-73184263D01*
X52788152Y-73184263D02*
X52883390Y-73231882D01*
X52883390Y-73231882D02*
X52931009Y-73279501D01*
X52931009Y-73279501D02*
X52978628Y-73374739D01*
X52978628Y-73374739D02*
X52978628Y-73755691D01*
X52454819Y-72755691D02*
X53264342Y-72755691D01*
X53264342Y-72755691D02*
X53359580Y-72708072D01*
X53359580Y-72708072D02*
X53407200Y-72660453D01*
X53407200Y-72660453D02*
X53454819Y-72565215D01*
X53454819Y-72565215D02*
X53454819Y-72374739D01*
X53454819Y-72374739D02*
X53407200Y-72279501D01*
X53407200Y-72279501D02*
X53359580Y-72231882D01*
X53359580Y-72231882D02*
X53264342Y-72184263D01*
X53264342Y-72184263D02*
X52454819Y-72184263D01*
X52454819Y-71850929D02*
X52454819Y-71279501D01*
X53454819Y-71565215D02*
X52454819Y-71565215D01*
X53550057Y-71184263D02*
X53550057Y-70422358D01*
X53169104Y-70231881D02*
X53169104Y-69755691D01*
X53454819Y-70327119D02*
X52454819Y-69993786D01*
X52454819Y-69993786D02*
X53454819Y-69660453D01*
X53359580Y-68755691D02*
X53407200Y-68803310D01*
X53407200Y-68803310D02*
X53454819Y-68946167D01*
X53454819Y-68946167D02*
X53454819Y-69041405D01*
X53454819Y-69041405D02*
X53407200Y-69184262D01*
X53407200Y-69184262D02*
X53311961Y-69279500D01*
X53311961Y-69279500D02*
X53216723Y-69327119D01*
X53216723Y-69327119D02*
X53026247Y-69374738D01*
X53026247Y-69374738D02*
X52883390Y-69374738D01*
X52883390Y-69374738D02*
X52692914Y-69327119D01*
X52692914Y-69327119D02*
X52597676Y-69279500D01*
X52597676Y-69279500D02*
X52502438Y-69184262D01*
X52502438Y-69184262D02*
X52454819Y-69041405D01*
X52454819Y-69041405D02*
X52454819Y-68946167D01*
X52454819Y-68946167D02*
X52502438Y-68803310D01*
X52502438Y-68803310D02*
X52550057Y-68755691D01*
X53454819Y-67803310D02*
X53454819Y-68374738D01*
X53454819Y-68089024D02*
X52454819Y-68089024D01*
X52454819Y-68089024D02*
X52597676Y-68184262D01*
X52597676Y-68184262D02*
X52692914Y-68279500D01*
X52692914Y-68279500D02*
X52740533Y-68374738D01*
X64261905Y-60954819D02*
X64261905Y-59954819D01*
X64261905Y-59954819D02*
X64500000Y-59954819D01*
X64500000Y-59954819D02*
X64642857Y-60002438D01*
X64642857Y-60002438D02*
X64738095Y-60097676D01*
X64738095Y-60097676D02*
X64785714Y-60192914D01*
X64785714Y-60192914D02*
X64833333Y-60383390D01*
X64833333Y-60383390D02*
X64833333Y-60526247D01*
X64833333Y-60526247D02*
X64785714Y-60716723D01*
X64785714Y-60716723D02*
X64738095Y-60811961D01*
X64738095Y-60811961D02*
X64642857Y-60907200D01*
X64642857Y-60907200D02*
X64500000Y-60954819D01*
X64500000Y-60954819D02*
X64261905Y-60954819D01*
X65690476Y-60288152D02*
X65690476Y-60954819D01*
X65452381Y-59907200D02*
X65214286Y-60621485D01*
X65214286Y-60621485D02*
X65833333Y-60621485D01*
X71818095Y-67620034D02*
X71818095Y-66620034D01*
X72389523Y-67620034D02*
X71960952Y-67048605D01*
X72389523Y-66620034D02*
X71818095Y-67191462D01*
X46761905Y-85050034D02*
X46761905Y-84050034D01*
X46761905Y-84050034D02*
X47000000Y-84050034D01*
X47000000Y-84050034D02*
X47142857Y-84097653D01*
X47142857Y-84097653D02*
X47238095Y-84192891D01*
X47238095Y-84192891D02*
X47285714Y-84288129D01*
X47285714Y-84288129D02*
X47333333Y-84478605D01*
X47333333Y-84478605D02*
X47333333Y-84621462D01*
X47333333Y-84621462D02*
X47285714Y-84811938D01*
X47285714Y-84811938D02*
X47238095Y-84907176D01*
X47238095Y-84907176D02*
X47142857Y-85002415D01*
X47142857Y-85002415D02*
X47000000Y-85050034D01*
X47000000Y-85050034D02*
X46761905Y-85050034D01*
X47666667Y-84050034D02*
X48285714Y-84050034D01*
X48285714Y-84050034D02*
X47952381Y-84430986D01*
X47952381Y-84430986D02*
X48095238Y-84430986D01*
X48095238Y-84430986D02*
X48190476Y-84478605D01*
X48190476Y-84478605D02*
X48238095Y-84526224D01*
X48238095Y-84526224D02*
X48285714Y-84621462D01*
X48285714Y-84621462D02*
X48285714Y-84859557D01*
X48285714Y-84859557D02*
X48238095Y-84954795D01*
X48238095Y-84954795D02*
X48190476Y-85002415D01*
X48190476Y-85002415D02*
X48095238Y-85050034D01*
X48095238Y-85050034D02*
X47809524Y-85050034D01*
X47809524Y-85050034D02*
X47714286Y-85002415D01*
X47714286Y-85002415D02*
X47666667Y-84954795D01*
X42158095Y-85420034D02*
X42158095Y-84420034D01*
X42729523Y-85420034D02*
X42300952Y-84848605D01*
X42729523Y-84420034D02*
X42158095Y-84991462D01*
X66261905Y-73050034D02*
X66261905Y-72050034D01*
X66261905Y-72050034D02*
X66500000Y-72050034D01*
X66500000Y-72050034D02*
X66642857Y-72097653D01*
X66642857Y-72097653D02*
X66738095Y-72192891D01*
X66738095Y-72192891D02*
X66785714Y-72288129D01*
X66785714Y-72288129D02*
X66833333Y-72478605D01*
X66833333Y-72478605D02*
X66833333Y-72621462D01*
X66833333Y-72621462D02*
X66785714Y-72811938D01*
X66785714Y-72811938D02*
X66738095Y-72907176D01*
X66738095Y-72907176D02*
X66642857Y-73002415D01*
X66642857Y-73002415D02*
X66500000Y-73050034D01*
X66500000Y-73050034D02*
X66261905Y-73050034D01*
X67214286Y-72145272D02*
X67261905Y-72097653D01*
X67261905Y-72097653D02*
X67357143Y-72050034D01*
X67357143Y-72050034D02*
X67595238Y-72050034D01*
X67595238Y-72050034D02*
X67690476Y-72097653D01*
X67690476Y-72097653D02*
X67738095Y-72145272D01*
X67738095Y-72145272D02*
X67785714Y-72240510D01*
X67785714Y-72240510D02*
X67785714Y-72335748D01*
X67785714Y-72335748D02*
X67738095Y-72478605D01*
X67738095Y-72478605D02*
X67166667Y-73050034D01*
X67166667Y-73050034D02*
X67785714Y-73050034D01*
X61658095Y-73420034D02*
X61658095Y-72420034D01*
X62229523Y-73420034D02*
X61800952Y-72848605D01*
X62229523Y-72420034D02*
X61658095Y-72991462D01*
X49761905Y-57550034D02*
X49761905Y-56550034D01*
X49761905Y-56550034D02*
X50000000Y-56550034D01*
X50000000Y-56550034D02*
X50142857Y-56597653D01*
X50142857Y-56597653D02*
X50238095Y-56692891D01*
X50238095Y-56692891D02*
X50285714Y-56788129D01*
X50285714Y-56788129D02*
X50333333Y-56978605D01*
X50333333Y-56978605D02*
X50333333Y-57121462D01*
X50333333Y-57121462D02*
X50285714Y-57311938D01*
X50285714Y-57311938D02*
X50238095Y-57407176D01*
X50238095Y-57407176D02*
X50142857Y-57502415D01*
X50142857Y-57502415D02*
X50000000Y-57550034D01*
X50000000Y-57550034D02*
X49761905Y-57550034D01*
X51285714Y-57550034D02*
X50714286Y-57550034D01*
X51000000Y-57550034D02*
X51000000Y-56550034D01*
X51000000Y-56550034D02*
X50904762Y-56692891D01*
X50904762Y-56692891D02*
X50809524Y-56788129D01*
X50809524Y-56788129D02*
X50714286Y-56835748D01*
X45158095Y-57920034D02*
X45158095Y-56920034D01*
X45729523Y-57920034D02*
X45300952Y-57348605D01*
X45729523Y-56920034D02*
X45158095Y-57491462D01*
X113859580Y-83738095D02*
X113907200Y-83785714D01*
X113907200Y-83785714D02*
X113954819Y-83928571D01*
X113954819Y-83928571D02*
X113954819Y-84023809D01*
X113954819Y-84023809D02*
X113907200Y-84166666D01*
X113907200Y-84166666D02*
X113811961Y-84261904D01*
X113811961Y-84261904D02*
X113716723Y-84309523D01*
X113716723Y-84309523D02*
X113526247Y-84357142D01*
X113526247Y-84357142D02*
X113383390Y-84357142D01*
X113383390Y-84357142D02*
X113192914Y-84309523D01*
X113192914Y-84309523D02*
X113097676Y-84261904D01*
X113097676Y-84261904D02*
X113002438Y-84166666D01*
X113002438Y-84166666D02*
X112954819Y-84023809D01*
X112954819Y-84023809D02*
X112954819Y-83928571D01*
X112954819Y-83928571D02*
X113002438Y-83785714D01*
X113002438Y-83785714D02*
X113050057Y-83738095D01*
X114050057Y-83547619D02*
X114050057Y-82785714D01*
X113859580Y-81976190D02*
X113907200Y-82023809D01*
X113907200Y-82023809D02*
X113954819Y-82166666D01*
X113954819Y-82166666D02*
X113954819Y-82261904D01*
X113954819Y-82261904D02*
X113907200Y-82404761D01*
X113907200Y-82404761D02*
X113811961Y-82499999D01*
X113811961Y-82499999D02*
X113716723Y-82547618D01*
X113716723Y-82547618D02*
X113526247Y-82595237D01*
X113526247Y-82595237D02*
X113383390Y-82595237D01*
X113383390Y-82595237D02*
X113192914Y-82547618D01*
X113192914Y-82547618D02*
X113097676Y-82499999D01*
X113097676Y-82499999D02*
X113002438Y-82404761D01*
X113002438Y-82404761D02*
X112954819Y-82261904D01*
X112954819Y-82261904D02*
X112954819Y-82166666D01*
X112954819Y-82166666D02*
X113002438Y-82023809D01*
X113002438Y-82023809D02*
X113050057Y-81976190D01*
X113431009Y-81547618D02*
X113431009Y-81214285D01*
X113954819Y-81071428D02*
X113954819Y-81547618D01*
X113954819Y-81547618D02*
X112954819Y-81547618D01*
X112954819Y-81547618D02*
X112954819Y-81071428D01*
X113954819Y-80071428D02*
X113478628Y-80404761D01*
X113954819Y-80642856D02*
X112954819Y-80642856D01*
X112954819Y-80642856D02*
X112954819Y-80261904D01*
X112954819Y-80261904D02*
X113002438Y-80166666D01*
X113002438Y-80166666D02*
X113050057Y-80119047D01*
X113050057Y-80119047D02*
X113145295Y-80071428D01*
X113145295Y-80071428D02*
X113288152Y-80071428D01*
X113288152Y-80071428D02*
X113383390Y-80119047D01*
X113383390Y-80119047D02*
X113431009Y-80166666D01*
X113431009Y-80166666D02*
X113478628Y-80261904D01*
X113478628Y-80261904D02*
X113478628Y-80642856D01*
X113669104Y-79690475D02*
X113669104Y-79214285D01*
X113954819Y-79785713D02*
X112954819Y-79452380D01*
X112954819Y-79452380D02*
X113954819Y-79119047D01*
X113954819Y-78785713D02*
X112954819Y-78785713D01*
X112954819Y-78785713D02*
X113669104Y-78452380D01*
X113669104Y-78452380D02*
X112954819Y-78119047D01*
X112954819Y-78119047D02*
X113954819Y-78119047D01*
X113954819Y-77642856D02*
X112954819Y-77642856D01*
X113859580Y-76595238D02*
X113907200Y-76642857D01*
X113907200Y-76642857D02*
X113954819Y-76785714D01*
X113954819Y-76785714D02*
X113954819Y-76880952D01*
X113954819Y-76880952D02*
X113907200Y-77023809D01*
X113907200Y-77023809D02*
X113811961Y-77119047D01*
X113811961Y-77119047D02*
X113716723Y-77166666D01*
X113716723Y-77166666D02*
X113526247Y-77214285D01*
X113526247Y-77214285D02*
X113383390Y-77214285D01*
X113383390Y-77214285D02*
X113192914Y-77166666D01*
X113192914Y-77166666D02*
X113097676Y-77119047D01*
X113097676Y-77119047D02*
X113002438Y-77023809D01*
X113002438Y-77023809D02*
X112954819Y-76880952D01*
X112954819Y-76880952D02*
X112954819Y-76785714D01*
X112954819Y-76785714D02*
X113002438Y-76642857D01*
X113002438Y-76642857D02*
X113050057Y-76595238D01*
X113050057Y-76214285D02*
X113002438Y-76166666D01*
X113002438Y-76166666D02*
X112954819Y-76071428D01*
X112954819Y-76071428D02*
X112954819Y-75833333D01*
X112954819Y-75833333D02*
X113002438Y-75738095D01*
X113002438Y-75738095D02*
X113050057Y-75690476D01*
X113050057Y-75690476D02*
X113145295Y-75642857D01*
X113145295Y-75642857D02*
X113240533Y-75642857D01*
X113240533Y-75642857D02*
X113383390Y-75690476D01*
X113383390Y-75690476D02*
X113954819Y-76261904D01*
X113954819Y-76261904D02*
X113954819Y-75642857D01*
X110359580Y-51738095D02*
X110407200Y-51785714D01*
X110407200Y-51785714D02*
X110454819Y-51928571D01*
X110454819Y-51928571D02*
X110454819Y-52023809D01*
X110454819Y-52023809D02*
X110407200Y-52166666D01*
X110407200Y-52166666D02*
X110311961Y-52261904D01*
X110311961Y-52261904D02*
X110216723Y-52309523D01*
X110216723Y-52309523D02*
X110026247Y-52357142D01*
X110026247Y-52357142D02*
X109883390Y-52357142D01*
X109883390Y-52357142D02*
X109692914Y-52309523D01*
X109692914Y-52309523D02*
X109597676Y-52261904D01*
X109597676Y-52261904D02*
X109502438Y-52166666D01*
X109502438Y-52166666D02*
X109454819Y-52023809D01*
X109454819Y-52023809D02*
X109454819Y-51928571D01*
X109454819Y-51928571D02*
X109502438Y-51785714D01*
X109502438Y-51785714D02*
X109550057Y-51738095D01*
X110550057Y-51547619D02*
X110550057Y-50785714D01*
X110359580Y-49976190D02*
X110407200Y-50023809D01*
X110407200Y-50023809D02*
X110454819Y-50166666D01*
X110454819Y-50166666D02*
X110454819Y-50261904D01*
X110454819Y-50261904D02*
X110407200Y-50404761D01*
X110407200Y-50404761D02*
X110311961Y-50499999D01*
X110311961Y-50499999D02*
X110216723Y-50547618D01*
X110216723Y-50547618D02*
X110026247Y-50595237D01*
X110026247Y-50595237D02*
X109883390Y-50595237D01*
X109883390Y-50595237D02*
X109692914Y-50547618D01*
X109692914Y-50547618D02*
X109597676Y-50499999D01*
X109597676Y-50499999D02*
X109502438Y-50404761D01*
X109502438Y-50404761D02*
X109454819Y-50261904D01*
X109454819Y-50261904D02*
X109454819Y-50166666D01*
X109454819Y-50166666D02*
X109502438Y-50023809D01*
X109502438Y-50023809D02*
X109550057Y-49976190D01*
X109931009Y-49547618D02*
X109931009Y-49214285D01*
X110454819Y-49071428D02*
X110454819Y-49547618D01*
X110454819Y-49547618D02*
X109454819Y-49547618D01*
X109454819Y-49547618D02*
X109454819Y-49071428D01*
X110454819Y-48071428D02*
X109978628Y-48404761D01*
X110454819Y-48642856D02*
X109454819Y-48642856D01*
X109454819Y-48642856D02*
X109454819Y-48261904D01*
X109454819Y-48261904D02*
X109502438Y-48166666D01*
X109502438Y-48166666D02*
X109550057Y-48119047D01*
X109550057Y-48119047D02*
X109645295Y-48071428D01*
X109645295Y-48071428D02*
X109788152Y-48071428D01*
X109788152Y-48071428D02*
X109883390Y-48119047D01*
X109883390Y-48119047D02*
X109931009Y-48166666D01*
X109931009Y-48166666D02*
X109978628Y-48261904D01*
X109978628Y-48261904D02*
X109978628Y-48642856D01*
X110169104Y-47690475D02*
X110169104Y-47214285D01*
X110454819Y-47785713D02*
X109454819Y-47452380D01*
X109454819Y-47452380D02*
X110454819Y-47119047D01*
X110454819Y-46785713D02*
X109454819Y-46785713D01*
X109454819Y-46785713D02*
X110169104Y-46452380D01*
X110169104Y-46452380D02*
X109454819Y-46119047D01*
X109454819Y-46119047D02*
X110454819Y-46119047D01*
X110454819Y-45642856D02*
X109454819Y-45642856D01*
X110359580Y-44595238D02*
X110407200Y-44642857D01*
X110407200Y-44642857D02*
X110454819Y-44785714D01*
X110454819Y-44785714D02*
X110454819Y-44880952D01*
X110454819Y-44880952D02*
X110407200Y-45023809D01*
X110407200Y-45023809D02*
X110311961Y-45119047D01*
X110311961Y-45119047D02*
X110216723Y-45166666D01*
X110216723Y-45166666D02*
X110026247Y-45214285D01*
X110026247Y-45214285D02*
X109883390Y-45214285D01*
X109883390Y-45214285D02*
X109692914Y-45166666D01*
X109692914Y-45166666D02*
X109597676Y-45119047D01*
X109597676Y-45119047D02*
X109502438Y-45023809D01*
X109502438Y-45023809D02*
X109454819Y-44880952D01*
X109454819Y-44880952D02*
X109454819Y-44785714D01*
X109454819Y-44785714D02*
X109502438Y-44642857D01*
X109502438Y-44642857D02*
X109550057Y-44595238D01*
X110454819Y-43642857D02*
X110454819Y-44214285D01*
X110454819Y-43928571D02*
X109454819Y-43928571D01*
X109454819Y-43928571D02*
X109597676Y-44023809D01*
X109597676Y-44023809D02*
X109692914Y-44119047D01*
X109692914Y-44119047D02*
X109740533Y-44214285D01*
X78109580Y-47481882D02*
X78157200Y-47529501D01*
X78157200Y-47529501D02*
X78204819Y-47672358D01*
X78204819Y-47672358D02*
X78204819Y-47767596D01*
X78204819Y-47767596D02*
X78157200Y-47910453D01*
X78157200Y-47910453D02*
X78061961Y-48005691D01*
X78061961Y-48005691D02*
X77966723Y-48053310D01*
X77966723Y-48053310D02*
X77776247Y-48100929D01*
X77776247Y-48100929D02*
X77633390Y-48100929D01*
X77633390Y-48100929D02*
X77442914Y-48053310D01*
X77442914Y-48053310D02*
X77347676Y-48005691D01*
X77347676Y-48005691D02*
X77252438Y-47910453D01*
X77252438Y-47910453D02*
X77204819Y-47767596D01*
X77204819Y-47767596D02*
X77204819Y-47672358D01*
X77204819Y-47672358D02*
X77252438Y-47529501D01*
X77252438Y-47529501D02*
X77300057Y-47481882D01*
X77300057Y-47100929D02*
X77252438Y-47053310D01*
X77252438Y-47053310D02*
X77204819Y-46958072D01*
X77204819Y-46958072D02*
X77204819Y-46719977D01*
X77204819Y-46719977D02*
X77252438Y-46624739D01*
X77252438Y-46624739D02*
X77300057Y-46577120D01*
X77300057Y-46577120D02*
X77395295Y-46529501D01*
X77395295Y-46529501D02*
X77490533Y-46529501D01*
X77490533Y-46529501D02*
X77633390Y-46577120D01*
X77633390Y-46577120D02*
X78204819Y-47148548D01*
X78204819Y-47148548D02*
X78204819Y-46529501D01*
X67859580Y-49666666D02*
X67907200Y-49714285D01*
X67907200Y-49714285D02*
X67954819Y-49857142D01*
X67954819Y-49857142D02*
X67954819Y-49952380D01*
X67954819Y-49952380D02*
X67907200Y-50095237D01*
X67907200Y-50095237D02*
X67811961Y-50190475D01*
X67811961Y-50190475D02*
X67716723Y-50238094D01*
X67716723Y-50238094D02*
X67526247Y-50285713D01*
X67526247Y-50285713D02*
X67383390Y-50285713D01*
X67383390Y-50285713D02*
X67192914Y-50238094D01*
X67192914Y-50238094D02*
X67097676Y-50190475D01*
X67097676Y-50190475D02*
X67002438Y-50095237D01*
X67002438Y-50095237D02*
X66954819Y-49952380D01*
X66954819Y-49952380D02*
X66954819Y-49857142D01*
X66954819Y-49857142D02*
X67002438Y-49714285D01*
X67002438Y-49714285D02*
X67050057Y-49666666D01*
X67954819Y-48714285D02*
X67954819Y-49285713D01*
X67954819Y-48999999D02*
X66954819Y-48999999D01*
X66954819Y-48999999D02*
X67097676Y-49095237D01*
X67097676Y-49095237D02*
X67192914Y-49190475D01*
X67192914Y-49190475D02*
X67240533Y-49285713D01*
D11*
%TO.C,U3*%
X96175000Y-76380000D02*
X100816000Y-76380000D01*
X96175000Y-79649000D02*
X97685000Y-79649000D01*
X96175000Y-83350000D02*
X97685000Y-83350000D01*
X100816000Y-86620000D02*
X100816000Y-76380000D01*
X97685000Y-86620000D02*
X97685000Y-76380000D01*
X96175000Y-86620000D02*
X96175000Y-76380000D01*
X96175000Y-86620000D02*
X100816000Y-86620000D01*
%TO.C,U2*%
X93840000Y-54230000D02*
X93840000Y-58871000D01*
X93840000Y-54230000D02*
X104080000Y-54230000D01*
X93840000Y-55740000D02*
X104080000Y-55740000D01*
X93840000Y-58871000D02*
X104080000Y-58871000D01*
X97110000Y-54230000D02*
X97110000Y-55740000D01*
X100811000Y-54230000D02*
X100811000Y-55740000D01*
X104080000Y-54230000D02*
X104080000Y-58871000D01*
%TO.C,OUTPUT2*%
X129715000Y-82800000D02*
X130455000Y-82800000D01*
X130455000Y-82800000D02*
X130455000Y-82300000D01*
X121795000Y-82560000D02*
X130215000Y-82560000D01*
X121795000Y-82560000D02*
X121795000Y-72440000D01*
X123854000Y-82560000D02*
X123854000Y-72440000D01*
X128155000Y-82560000D02*
X128155000Y-72440000D01*
X129655000Y-82560000D02*
X129655000Y-72440000D01*
X130215000Y-82560000D02*
X130215000Y-72440000D01*
X121855000Y-81000000D02*
X122855000Y-81000000D01*
X121855000Y-81000000D02*
X121855000Y-79000000D01*
X122855000Y-81000000D02*
X122855000Y-79000000D01*
X121855000Y-79000000D02*
X122855000Y-79000000D01*
X127178000Y-76227000D02*
X127224000Y-76274000D01*
X127394000Y-76034000D02*
X127429000Y-76069000D01*
X121855000Y-76000000D02*
X122855000Y-76000000D01*
X121855000Y-76000000D02*
X121855000Y-74000000D01*
X122855000Y-76000000D02*
X122855000Y-74000000D01*
X121855000Y-74000000D02*
X122855000Y-74000000D01*
X124880000Y-73930000D02*
X124916000Y-73965000D01*
X125086000Y-73725000D02*
X125132000Y-73772000D01*
X121795000Y-72440000D02*
X130215000Y-72440000D01*
X126838042Y-81535427D02*
G75*
G02*
X125471000Y-81535000I-683041J1535420D01*
G01*
X124619573Y-80683042D02*
G75*
G02*
X124620000Y-79316000I1535420J683041D01*
G01*
X127835253Y-79971195D02*
G75*
G02*
X127690000Y-80684000I-1680254J-28806D01*
G01*
X127689756Y-79316682D02*
G75*
G02*
X127835000Y-80000000I-1534756J-683318D01*
G01*
X125471958Y-78464573D02*
G75*
G02*
X126839000Y-78465000I683042J-1535427D01*
G01*
X127835000Y-75000000D02*
G75*
G02*
X124475000Y-75000000I-1680000J0D01*
G01*
X124475000Y-75000000D02*
G75*
G02*
X127835000Y-75000000I1680000J0D01*
G01*
%TO.C,OUTPUT1*%
X132800000Y-44785000D02*
X132800000Y-44045000D01*
X132800000Y-44045000D02*
X132300000Y-44045000D01*
X132560000Y-52705000D02*
X132560000Y-44285000D01*
X132560000Y-52705000D02*
X122440000Y-52705000D01*
X132560000Y-50646000D02*
X122440000Y-50646000D01*
X132560000Y-46345000D02*
X122440000Y-46345000D01*
X132560000Y-44845000D02*
X122440000Y-44845000D01*
X132560000Y-44285000D02*
X122440000Y-44285000D01*
X131000000Y-52645000D02*
X131000000Y-51645000D01*
X131000000Y-52645000D02*
X129000000Y-52645000D01*
X131000000Y-51645000D02*
X129000000Y-51645000D01*
X129000000Y-52645000D02*
X129000000Y-51645000D01*
X126227000Y-47322000D02*
X126274000Y-47276000D01*
X126034000Y-47106000D02*
X126069000Y-47071000D01*
X126000000Y-52645000D02*
X126000000Y-51645000D01*
X126000000Y-52645000D02*
X124000000Y-52645000D01*
X126000000Y-51645000D02*
X124000000Y-51645000D01*
X124000000Y-52645000D02*
X124000000Y-51645000D01*
X123930000Y-49620000D02*
X123965000Y-49584000D01*
X123725000Y-49414000D02*
X123772000Y-49368000D01*
X122440000Y-52705000D02*
X122440000Y-44285000D01*
X131535427Y-47661958D02*
G75*
G02*
X131535000Y-49029000I-1535420J-683041D01*
G01*
X130683042Y-49880427D02*
G75*
G02*
X129316000Y-49880000I-683041J1535420D01*
G01*
X129971195Y-46664747D02*
G75*
G02*
X130684000Y-46810000I28806J-1680254D01*
G01*
X129316682Y-46810244D02*
G75*
G02*
X130000000Y-46665000I683318J-1534756D01*
G01*
X128464573Y-49028042D02*
G75*
G02*
X128465000Y-47661000I1535427J683042D01*
G01*
X126680000Y-48345000D02*
G75*
G02*
X123320000Y-48345000I-1680000J0D01*
G01*
X123320000Y-48345000D02*
G75*
G02*
X126680000Y-48345000I1680000J0D01*
G01*
%TO.C,J2*%
X59670000Y-85735215D02*
X61000000Y-85735215D01*
X59670000Y-87065215D02*
X59670000Y-85735215D01*
X59670000Y-88335215D02*
X59670000Y-88395215D01*
X59670000Y-88335215D02*
X62330000Y-88335215D01*
X59670000Y-88395215D02*
X62330000Y-88395215D01*
X62330000Y-88335215D02*
X62330000Y-88395215D01*
%TO.C,J1*%
X50330000Y-50335215D02*
X50330000Y-50395215D01*
X47670000Y-50395215D02*
X50330000Y-50395215D01*
X47670000Y-50335215D02*
X50330000Y-50335215D01*
X47670000Y-50335215D02*
X47670000Y-50395215D01*
X47670000Y-49065215D02*
X47670000Y-47735215D01*
X47670000Y-47735215D02*
X49000000Y-47735215D01*
%TO.C,INPUT_AC1*%
X43285000Y-66265215D02*
X42545000Y-66265215D01*
X42545000Y-66265215D02*
X42545000Y-66765215D01*
X51205000Y-66505215D02*
X42785000Y-66505215D01*
X51205000Y-66505215D02*
X51205000Y-76625215D01*
X49146000Y-66505215D02*
X49146000Y-76625215D01*
X44845000Y-66505215D02*
X44845000Y-76625215D01*
X43345000Y-66505215D02*
X43345000Y-76625215D01*
X42785000Y-66505215D02*
X42785000Y-76625215D01*
X51145000Y-68065215D02*
X50145000Y-68065215D01*
X51145000Y-68065215D02*
X51145000Y-70065215D01*
X50145000Y-68065215D02*
X50145000Y-70065215D01*
X51145000Y-70065215D02*
X50145000Y-70065215D01*
X45822000Y-72838215D02*
X45776000Y-72791215D01*
X45606000Y-73031215D02*
X45571000Y-72996215D01*
X51145000Y-73065215D02*
X50145000Y-73065215D01*
X51145000Y-73065215D02*
X51145000Y-75065215D01*
X50145000Y-73065215D02*
X50145000Y-75065215D01*
X51145000Y-75065215D02*
X50145000Y-75065215D01*
X48120000Y-75135215D02*
X48084000Y-75100215D01*
X47914000Y-75340215D02*
X47868000Y-75293215D01*
X51205000Y-76625215D02*
X42785000Y-76625215D01*
X46161958Y-67529788D02*
G75*
G02*
X47529000Y-67530215I683041J-1535420D01*
G01*
X48380427Y-68382173D02*
G75*
G02*
X48380000Y-69749215I-1535420J-683041D01*
G01*
X45164747Y-69094020D02*
G75*
G02*
X45310000Y-68381215I1680254J28806D01*
G01*
X45310244Y-69748533D02*
G75*
G02*
X45165000Y-69065215I1534756J683318D01*
G01*
X47528042Y-70600642D02*
G75*
G02*
X46161000Y-70600215I-683042J1535427D01*
G01*
X48525000Y-74065215D02*
G75*
G02*
X45165000Y-74065215I-1680000J0D01*
G01*
X45165000Y-74065215D02*
G75*
G02*
X48525000Y-74065215I1680000J0D01*
G01*
%TO.C,D4*%
X70740000Y-65065215D02*
X69720000Y-65065215D01*
X69720000Y-66535215D02*
X69720000Y-63595215D01*
X69720000Y-63595215D02*
X64280000Y-63595215D01*
X68940000Y-66535215D02*
X68940000Y-63595215D01*
X68820000Y-66535215D02*
X68820000Y-63595215D01*
X68700000Y-66535215D02*
X68700000Y-63595215D01*
X64280000Y-66535215D02*
X69720000Y-66535215D01*
X64280000Y-63595215D02*
X64280000Y-66535215D01*
X63260000Y-65065215D02*
X64280000Y-65065215D01*
%TO.C,D3*%
X43760000Y-87065215D02*
X44780000Y-87065215D01*
X44780000Y-85595215D02*
X44780000Y-88535215D01*
X44780000Y-88535215D02*
X50220000Y-88535215D01*
X45560000Y-85595215D02*
X45560000Y-88535215D01*
X45680000Y-85595215D02*
X45680000Y-88535215D01*
X45800000Y-85595215D02*
X45800000Y-88535215D01*
X50220000Y-85595215D02*
X44780000Y-85595215D01*
X50220000Y-88535215D02*
X50220000Y-85595215D01*
X51240000Y-87065215D02*
X50220000Y-87065215D01*
%TO.C,D2*%
X63260000Y-75065215D02*
X64280000Y-75065215D01*
X64280000Y-73595215D02*
X64280000Y-76535215D01*
X64280000Y-76535215D02*
X69720000Y-76535215D01*
X65060000Y-73595215D02*
X65060000Y-76535215D01*
X65180000Y-73595215D02*
X65180000Y-76535215D01*
X65300000Y-73595215D02*
X65300000Y-76535215D01*
X69720000Y-73595215D02*
X64280000Y-73595215D01*
X69720000Y-76535215D02*
X69720000Y-73595215D01*
X70740000Y-75065215D02*
X69720000Y-75065215D01*
%TO.C,D1*%
X46760000Y-59565215D02*
X47780000Y-59565215D01*
X47780000Y-58095215D02*
X47780000Y-61035215D01*
X47780000Y-61035215D02*
X53220000Y-61035215D01*
X48560000Y-58095215D02*
X48560000Y-61035215D01*
X48680000Y-58095215D02*
X48680000Y-61035215D01*
X48800000Y-58095215D02*
X48800000Y-61035215D01*
X53220000Y-58095215D02*
X47780000Y-58095215D01*
X53220000Y-61035215D02*
X53220000Y-58095215D01*
X54240000Y-59565215D02*
X53220000Y-59565215D01*
%TO.C,C_CERAMIC2*%
X112370000Y-76130000D02*
X109630000Y-76130000D01*
X112370000Y-76130000D02*
X112370000Y-83870000D01*
X109630000Y-76130000D02*
X109630000Y-83870000D01*
X112370000Y-83870000D02*
X109630000Y-83870000D01*
%TO.C,C_CERAMIC1*%
X111130000Y-44130000D02*
X113870000Y-44130000D01*
X113870000Y-51870000D02*
X113870000Y-44130000D01*
X111130000Y-51870000D02*
X111130000Y-44130000D01*
X111130000Y-51870000D02*
X113870000Y-51870000D01*
%TO.C,C2*%
X81785000Y-54399785D02*
X81785000Y-53099785D01*
X81135000Y-53749785D02*
X82435000Y-53749785D01*
X78920000Y-47315216D02*
X92080000Y-47315216D01*
X78920000Y-47275216D02*
X92080000Y-47275216D01*
X78920000Y-47235216D02*
X92080000Y-47235216D01*
X78921000Y-47195216D02*
X92079000Y-47195216D01*
X78921000Y-47155216D02*
X92079000Y-47155216D01*
X78923000Y-47115216D02*
X92077000Y-47115216D01*
X78924000Y-47075216D02*
X92076000Y-47075216D01*
X78925000Y-47035216D02*
X92075000Y-47035216D01*
X78927000Y-46995216D02*
X92073000Y-46995216D01*
X78929000Y-46955216D02*
X92071000Y-46955216D01*
X78932000Y-46915216D02*
X92068000Y-46915216D01*
X78934000Y-46875216D02*
X92066000Y-46875216D01*
X78937000Y-46835216D02*
X92063000Y-46835216D01*
X78940000Y-46795216D02*
X92060000Y-46795216D01*
X78943000Y-46755216D02*
X92057000Y-46755216D01*
X78947000Y-46715216D02*
X92053000Y-46715216D01*
X78951000Y-46675216D02*
X92049000Y-46675216D01*
X78955000Y-46635216D02*
X92045000Y-46635216D01*
X78959000Y-46594216D02*
X92041000Y-46594216D01*
X78963000Y-46554216D02*
X92037000Y-46554216D01*
X78968000Y-46514216D02*
X92032000Y-46514216D01*
X78973000Y-46474216D02*
X92027000Y-46474216D01*
X78978000Y-46434216D02*
X92022000Y-46434216D01*
X78984000Y-46394216D02*
X92016000Y-46394216D01*
X78989000Y-46354216D02*
X92011000Y-46354216D01*
X78995000Y-46314216D02*
X92005000Y-46314216D01*
X79002000Y-46274216D02*
X91998000Y-46274216D01*
X79008000Y-46234216D02*
X91992000Y-46234216D01*
X79015000Y-46194216D02*
X91985000Y-46194216D01*
X79022000Y-46154216D02*
X91978000Y-46154216D01*
X79029000Y-46114216D02*
X91971000Y-46114216D01*
X79037000Y-46074216D02*
X91963000Y-46074216D01*
X79044000Y-46034216D02*
X91956000Y-46034216D01*
X79052000Y-45994216D02*
X91948000Y-45994216D01*
X79061000Y-45954216D02*
X91939000Y-45954216D01*
X79069000Y-45914216D02*
X91931000Y-45914216D01*
X79078000Y-45874216D02*
X91922000Y-45874216D01*
X79087000Y-45834216D02*
X91913000Y-45834216D01*
X79096000Y-45794216D02*
X91904000Y-45794216D01*
X79106000Y-45754216D02*
X91894000Y-45754216D01*
X79116000Y-45714216D02*
X91884000Y-45714216D01*
X79126000Y-45674216D02*
X91874000Y-45674216D01*
X79136000Y-45634216D02*
X91864000Y-45634216D01*
X79147000Y-45594216D02*
X91853000Y-45594216D01*
X79158000Y-45554216D02*
X91842000Y-45554216D01*
X79169000Y-45514216D02*
X91831000Y-45514216D01*
X79180000Y-45474216D02*
X91820000Y-45474216D01*
X79192000Y-45434216D02*
X91808000Y-45434216D01*
X79204000Y-45394216D02*
X91796000Y-45394216D01*
X79216000Y-45354216D02*
X91784000Y-45354216D01*
X79229000Y-45314216D02*
X91771000Y-45314216D01*
X79242000Y-45274216D02*
X91758000Y-45274216D01*
X79255000Y-45234216D02*
X91745000Y-45234216D01*
X79268000Y-45194216D02*
X91732000Y-45194216D01*
X79282000Y-45154216D02*
X91718000Y-45154216D01*
X79296000Y-45114216D02*
X91704000Y-45114216D01*
X79310000Y-45074216D02*
X91690000Y-45074216D01*
X79325000Y-45034216D02*
X91675000Y-45034216D01*
X79339000Y-44994216D02*
X84060000Y-44994216D01*
X86940000Y-44994216D02*
X91661000Y-44994216D01*
X79354000Y-44954216D02*
X84060000Y-44954216D01*
X86940000Y-44954216D02*
X91646000Y-44954216D01*
X79370000Y-44914216D02*
X84060000Y-44914216D01*
X86940000Y-44914216D02*
X91630000Y-44914216D01*
X79386000Y-44874216D02*
X84060000Y-44874216D01*
X86940000Y-44874216D02*
X91614000Y-44874216D01*
X79402000Y-44834216D02*
X84060000Y-44834216D01*
X86940000Y-44834216D02*
X91598000Y-44834216D01*
X79418000Y-44794216D02*
X84060000Y-44794216D01*
X86940000Y-44794216D02*
X91582000Y-44794216D01*
X79435000Y-44754216D02*
X84060000Y-44754216D01*
X86940000Y-44754216D02*
X91565000Y-44754216D01*
X79451000Y-44714216D02*
X84060000Y-44714216D01*
X86940000Y-44714216D02*
X91549000Y-44714216D01*
X79469000Y-44674216D02*
X84060000Y-44674216D01*
X86940000Y-44674216D02*
X91531000Y-44674216D01*
X79486000Y-44634216D02*
X84060000Y-44634216D01*
X86940000Y-44634216D02*
X91514000Y-44634216D01*
X79504000Y-44594216D02*
X84060000Y-44594216D01*
X86940000Y-44594216D02*
X91496000Y-44594216D01*
X79522000Y-44554216D02*
X84060000Y-44554216D01*
X86940000Y-44554216D02*
X91478000Y-44554216D01*
X79541000Y-44514216D02*
X84060000Y-44514216D01*
X86940000Y-44514216D02*
X91459000Y-44514216D01*
X79560000Y-44474216D02*
X84060000Y-44474216D01*
X86940000Y-44474216D02*
X91440000Y-44474216D01*
X79579000Y-44434216D02*
X84060000Y-44434216D01*
X86940000Y-44434216D02*
X91421000Y-44434216D01*
X79598000Y-44394216D02*
X84060000Y-44394216D01*
X86940000Y-44394216D02*
X91402000Y-44394216D01*
X79618000Y-44354216D02*
X84060000Y-44354216D01*
X86940000Y-44354216D02*
X91382000Y-44354216D01*
X79638000Y-44314216D02*
X84060000Y-44314216D01*
X86940000Y-44314216D02*
X91362000Y-44314216D01*
X79659000Y-44274216D02*
X84060000Y-44274216D01*
X86940000Y-44274216D02*
X91341000Y-44274216D01*
X79680000Y-44234216D02*
X84060000Y-44234216D01*
X86940000Y-44234216D02*
X91320000Y-44234216D01*
X79701000Y-44194216D02*
X84060000Y-44194216D01*
X86940000Y-44194216D02*
X91299000Y-44194216D01*
X79722000Y-44154216D02*
X84060000Y-44154216D01*
X86940000Y-44154216D02*
X91278000Y-44154216D01*
X79744000Y-44114216D02*
X84060000Y-44114216D01*
X86940000Y-44114216D02*
X91256000Y-44114216D01*
X79767000Y-44074216D02*
X84060000Y-44074216D01*
X86940000Y-44074216D02*
X91233000Y-44074216D01*
X79789000Y-44034216D02*
X84060000Y-44034216D01*
X86940000Y-44034216D02*
X91211000Y-44034216D01*
X79812000Y-43994216D02*
X84060000Y-43994216D01*
X86940000Y-43994216D02*
X91188000Y-43994216D01*
X79836000Y-43954216D02*
X84060000Y-43954216D01*
X86940000Y-43954216D02*
X91164000Y-43954216D01*
X79859000Y-43914216D02*
X84060000Y-43914216D01*
X86940000Y-43914216D02*
X91141000Y-43914216D01*
X79883000Y-43874216D02*
X84060000Y-43874216D01*
X86940000Y-43874216D02*
X91117000Y-43874216D01*
X79908000Y-43834216D02*
X84060000Y-43834216D01*
X86940000Y-43834216D02*
X91092000Y-43834216D01*
X79933000Y-43794216D02*
X84060000Y-43794216D01*
X86940000Y-43794216D02*
X91067000Y-43794216D01*
X79958000Y-43754216D02*
X84060000Y-43754216D01*
X86940000Y-43754216D02*
X91042000Y-43754216D01*
X79984000Y-43714216D02*
X84060000Y-43714216D01*
X86940000Y-43714216D02*
X91016000Y-43714216D01*
X80010000Y-43674216D02*
X84060000Y-43674216D01*
X86940000Y-43674216D02*
X90990000Y-43674216D01*
X80037000Y-43634216D02*
X84060000Y-43634216D01*
X86940000Y-43634216D02*
X90963000Y-43634216D01*
X80064000Y-43594216D02*
X84060000Y-43594216D01*
X86940000Y-43594216D02*
X90936000Y-43594216D01*
X80091000Y-43554216D02*
X84060000Y-43554216D01*
X86940000Y-43554216D02*
X90909000Y-43554216D01*
X80119000Y-43514216D02*
X84060000Y-43514216D01*
X86940000Y-43514216D02*
X90881000Y-43514216D01*
X80147000Y-43474216D02*
X84060000Y-43474216D01*
X86940000Y-43474216D02*
X90853000Y-43474216D01*
X80176000Y-43434216D02*
X84060000Y-43434216D01*
X86940000Y-43434216D02*
X90824000Y-43434216D01*
X80205000Y-43394216D02*
X84060000Y-43394216D01*
X86940000Y-43394216D02*
X90795000Y-43394216D01*
X80235000Y-43354216D02*
X84060000Y-43354216D01*
X86940000Y-43354216D02*
X90765000Y-43354216D01*
X80265000Y-43314216D02*
X84060000Y-43314216D01*
X86940000Y-43314216D02*
X90735000Y-43314216D01*
X80295000Y-43274216D02*
X84060000Y-43274216D01*
X86940000Y-43274216D02*
X90705000Y-43274216D01*
X80326000Y-43234216D02*
X84060000Y-43234216D01*
X86940000Y-43234216D02*
X90674000Y-43234216D01*
X80358000Y-43194216D02*
X84060000Y-43194216D01*
X86940000Y-43194216D02*
X90642000Y-43194216D01*
X80390000Y-43154216D02*
X84060000Y-43154216D01*
X86940000Y-43154216D02*
X90610000Y-43154216D01*
X80422000Y-43114216D02*
X84060000Y-43114216D01*
X86940000Y-43114216D02*
X90578000Y-43114216D01*
X80456000Y-43074216D02*
X84060000Y-43074216D01*
X86940000Y-43074216D02*
X90544000Y-43074216D01*
X80489000Y-43034216D02*
X84060000Y-43034216D01*
X86940000Y-43034216D02*
X90511000Y-43034216D01*
X80523000Y-42994216D02*
X84060000Y-42994216D01*
X86940000Y-42994216D02*
X90477000Y-42994216D01*
X80558000Y-42954216D02*
X84060000Y-42954216D01*
X86940000Y-42954216D02*
X90442000Y-42954216D01*
X80593000Y-42914216D02*
X84060000Y-42914216D01*
X86940000Y-42914216D02*
X90407000Y-42914216D01*
X80629000Y-42874216D02*
X84060000Y-42874216D01*
X86940000Y-42874216D02*
X90371000Y-42874216D01*
X80666000Y-42834216D02*
X84060000Y-42834216D01*
X86940000Y-42834216D02*
X90334000Y-42834216D01*
X80703000Y-42794216D02*
X84060000Y-42794216D01*
X86940000Y-42794216D02*
X90297000Y-42794216D01*
X80740000Y-42754216D02*
X84060000Y-42754216D01*
X86940000Y-42754216D02*
X90260000Y-42754216D01*
X80779000Y-42714216D02*
X84060000Y-42714216D01*
X86940000Y-42714216D02*
X90221000Y-42714216D01*
X80818000Y-42674216D02*
X84060000Y-42674216D01*
X86940000Y-42674216D02*
X90182000Y-42674216D01*
X80857000Y-42634216D02*
X84060000Y-42634216D01*
X86940000Y-42634216D02*
X90143000Y-42634216D01*
X80898000Y-42594216D02*
X84060000Y-42594216D01*
X86940000Y-42594216D02*
X90102000Y-42594216D01*
X80939000Y-42554216D02*
X84060000Y-42554216D01*
X86940000Y-42554216D02*
X90061000Y-42554216D01*
X80981000Y-42514216D02*
X84060000Y-42514216D01*
X86940000Y-42514216D02*
X90019000Y-42514216D01*
X81023000Y-42474216D02*
X84060000Y-42474216D01*
X86940000Y-42474216D02*
X89977000Y-42474216D01*
X81066000Y-42434216D02*
X84060000Y-42434216D01*
X86940000Y-42434216D02*
X89934000Y-42434216D01*
X81110000Y-42394216D02*
X84060000Y-42394216D01*
X86940000Y-42394216D02*
X89890000Y-42394216D01*
X81155000Y-42354216D02*
X84060000Y-42354216D01*
X86940000Y-42354216D02*
X89845000Y-42354216D01*
X81201000Y-42314216D02*
X84060000Y-42314216D01*
X86940000Y-42314216D02*
X89799000Y-42314216D01*
X81247000Y-42274216D02*
X84060000Y-42274216D01*
X86940000Y-42274216D02*
X89753000Y-42274216D01*
X81295000Y-42234216D02*
X84060000Y-42234216D01*
X86940000Y-42234216D02*
X89705000Y-42234216D01*
X81343000Y-42194216D02*
X84060000Y-42194216D01*
X86940000Y-42194216D02*
X89657000Y-42194216D01*
X81392000Y-42154216D02*
X84060000Y-42154216D01*
X86940000Y-42154216D02*
X89608000Y-42154216D01*
X81443000Y-42114216D02*
X89557000Y-42114216D01*
X81494000Y-42074216D02*
X89506000Y-42074216D01*
X81546000Y-42034216D02*
X89454000Y-42034216D01*
X81600000Y-41994216D02*
X89400000Y-41994216D01*
X81654000Y-41954216D02*
X89346000Y-41954216D01*
X81710000Y-41914216D02*
X89290000Y-41914216D01*
X81767000Y-41874216D02*
X89233000Y-41874216D01*
X81825000Y-41834216D02*
X89175000Y-41834216D01*
X81885000Y-41794216D02*
X89115000Y-41794216D01*
X81946000Y-41754216D02*
X89054000Y-41754216D01*
X82009000Y-41714216D02*
X88991000Y-41714216D01*
X82073000Y-41674216D02*
X88927000Y-41674216D01*
X82139000Y-41634216D02*
X88861000Y-41634216D01*
X82207000Y-41594216D02*
X88793000Y-41594216D01*
X82277000Y-41554216D02*
X88723000Y-41554216D01*
X82348000Y-41514216D02*
X88652000Y-41514216D01*
X82422000Y-41474216D02*
X88578000Y-41474216D01*
X82498000Y-41434216D02*
X88502000Y-41434216D01*
X82577000Y-41394216D02*
X88423000Y-41394216D01*
X82658000Y-41354216D02*
X88342000Y-41354216D01*
X82742000Y-41314216D02*
X88258000Y-41314216D01*
X82830000Y-41274216D02*
X88170000Y-41274216D01*
X82921000Y-41234216D02*
X88079000Y-41234216D01*
X83016000Y-41194216D02*
X87984000Y-41194216D01*
X83115000Y-41154216D02*
X87885000Y-41154216D01*
X83219000Y-41114216D02*
X87781000Y-41114216D01*
X83329000Y-41074216D02*
X87671000Y-41074216D01*
X83445000Y-41034216D02*
X87555000Y-41034216D01*
X83569000Y-40994216D02*
X87431000Y-40994216D01*
X83702000Y-40954216D02*
X87298000Y-40954216D01*
X83847000Y-40914216D02*
X87153000Y-40914216D01*
X84006000Y-40874216D02*
X86994000Y-40874216D01*
X84185000Y-40834216D02*
X86815000Y-40834216D01*
X84393000Y-40794216D02*
X86607000Y-40794216D01*
X84650000Y-40754216D02*
X86350000Y-40754216D01*
X85025000Y-40714216D02*
X85975000Y-40714216D01*
X92120000Y-47315216D02*
G75*
G02*
X78880000Y-47315216I-6620000J0D01*
G01*
X78880000Y-47315216D02*
G75*
G02*
X92120000Y-47315216I6620000J0D01*
G01*
%TO.C,C1*%
X64215000Y-39165431D02*
X64215000Y-40465431D01*
X64865000Y-39815431D02*
X63565000Y-39815431D01*
X67080000Y-46250000D02*
X53920000Y-46250000D01*
X67080000Y-46290000D02*
X53920000Y-46290000D01*
X67080000Y-46330000D02*
X53920000Y-46330000D01*
X67079000Y-46370000D02*
X53921000Y-46370000D01*
X67079000Y-46410000D02*
X53921000Y-46410000D01*
X67077000Y-46450000D02*
X53923000Y-46450000D01*
X67076000Y-46490000D02*
X53924000Y-46490000D01*
X67075000Y-46530000D02*
X53925000Y-46530000D01*
X67073000Y-46570000D02*
X53927000Y-46570000D01*
X67071000Y-46610000D02*
X53929000Y-46610000D01*
X67068000Y-46650000D02*
X53932000Y-46650000D01*
X67066000Y-46690000D02*
X53934000Y-46690000D01*
X67063000Y-46730000D02*
X53937000Y-46730000D01*
X67060000Y-46770000D02*
X53940000Y-46770000D01*
X67057000Y-46810000D02*
X53943000Y-46810000D01*
X67053000Y-46850000D02*
X53947000Y-46850000D01*
X67049000Y-46890000D02*
X53951000Y-46890000D01*
X67045000Y-46930000D02*
X53955000Y-46930000D01*
X67041000Y-46971000D02*
X53959000Y-46971000D01*
X67037000Y-47011000D02*
X53963000Y-47011000D01*
X67032000Y-47051000D02*
X53968000Y-47051000D01*
X67027000Y-47091000D02*
X53973000Y-47091000D01*
X67022000Y-47131000D02*
X53978000Y-47131000D01*
X67016000Y-47171000D02*
X53984000Y-47171000D01*
X67011000Y-47211000D02*
X53989000Y-47211000D01*
X67005000Y-47251000D02*
X53995000Y-47251000D01*
X66998000Y-47291000D02*
X54002000Y-47291000D01*
X66992000Y-47331000D02*
X54008000Y-47331000D01*
X66985000Y-47371000D02*
X54015000Y-47371000D01*
X66978000Y-47411000D02*
X54022000Y-47411000D01*
X66971000Y-47451000D02*
X54029000Y-47451000D01*
X66963000Y-47491000D02*
X54037000Y-47491000D01*
X66956000Y-47531000D02*
X54044000Y-47531000D01*
X66948000Y-47571000D02*
X54052000Y-47571000D01*
X66939000Y-47611000D02*
X54061000Y-47611000D01*
X66931000Y-47651000D02*
X54069000Y-47651000D01*
X66922000Y-47691000D02*
X54078000Y-47691000D01*
X66913000Y-47731000D02*
X54087000Y-47731000D01*
X66904000Y-47771000D02*
X54096000Y-47771000D01*
X66894000Y-47811000D02*
X54106000Y-47811000D01*
X66884000Y-47851000D02*
X54116000Y-47851000D01*
X66874000Y-47891000D02*
X54126000Y-47891000D01*
X66864000Y-47931000D02*
X54136000Y-47931000D01*
X66853000Y-47971000D02*
X54147000Y-47971000D01*
X66842000Y-48011000D02*
X54158000Y-48011000D01*
X66831000Y-48051000D02*
X54169000Y-48051000D01*
X66820000Y-48091000D02*
X54180000Y-48091000D01*
X66808000Y-48131000D02*
X54192000Y-48131000D01*
X66796000Y-48171000D02*
X54204000Y-48171000D01*
X66784000Y-48211000D02*
X54216000Y-48211000D01*
X66771000Y-48251000D02*
X54229000Y-48251000D01*
X66758000Y-48291000D02*
X54242000Y-48291000D01*
X66745000Y-48331000D02*
X54255000Y-48331000D01*
X66732000Y-48371000D02*
X54268000Y-48371000D01*
X66718000Y-48411000D02*
X54282000Y-48411000D01*
X66704000Y-48451000D02*
X54296000Y-48451000D01*
X66690000Y-48491000D02*
X54310000Y-48491000D01*
X66675000Y-48531000D02*
X54325000Y-48531000D01*
X66661000Y-48571000D02*
X61940000Y-48571000D01*
X59060000Y-48571000D02*
X54339000Y-48571000D01*
X66646000Y-48611000D02*
X61940000Y-48611000D01*
X59060000Y-48611000D02*
X54354000Y-48611000D01*
X66630000Y-48651000D02*
X61940000Y-48651000D01*
X59060000Y-48651000D02*
X54370000Y-48651000D01*
X66614000Y-48691000D02*
X61940000Y-48691000D01*
X59060000Y-48691000D02*
X54386000Y-48691000D01*
X66598000Y-48731000D02*
X61940000Y-48731000D01*
X59060000Y-48731000D02*
X54402000Y-48731000D01*
X66582000Y-48771000D02*
X61940000Y-48771000D01*
X59060000Y-48771000D02*
X54418000Y-48771000D01*
X66565000Y-48811000D02*
X61940000Y-48811000D01*
X59060000Y-48811000D02*
X54435000Y-48811000D01*
X66549000Y-48851000D02*
X61940000Y-48851000D01*
X59060000Y-48851000D02*
X54451000Y-48851000D01*
X66531000Y-48891000D02*
X61940000Y-48891000D01*
X59060000Y-48891000D02*
X54469000Y-48891000D01*
X66514000Y-48931000D02*
X61940000Y-48931000D01*
X59060000Y-48931000D02*
X54486000Y-48931000D01*
X66496000Y-48971000D02*
X61940000Y-48971000D01*
X59060000Y-48971000D02*
X54504000Y-48971000D01*
X66478000Y-49011000D02*
X61940000Y-49011000D01*
X59060000Y-49011000D02*
X54522000Y-49011000D01*
X66459000Y-49051000D02*
X61940000Y-49051000D01*
X59060000Y-49051000D02*
X54541000Y-49051000D01*
X66440000Y-49091000D02*
X61940000Y-49091000D01*
X59060000Y-49091000D02*
X54560000Y-49091000D01*
X66421000Y-49131000D02*
X61940000Y-49131000D01*
X59060000Y-49131000D02*
X54579000Y-49131000D01*
X66402000Y-49171000D02*
X61940000Y-49171000D01*
X59060000Y-49171000D02*
X54598000Y-49171000D01*
X66382000Y-49211000D02*
X61940000Y-49211000D01*
X59060000Y-49211000D02*
X54618000Y-49211000D01*
X66362000Y-49251000D02*
X61940000Y-49251000D01*
X59060000Y-49251000D02*
X54638000Y-49251000D01*
X66341000Y-49291000D02*
X61940000Y-49291000D01*
X59060000Y-49291000D02*
X54659000Y-49291000D01*
X66320000Y-49331000D02*
X61940000Y-49331000D01*
X59060000Y-49331000D02*
X54680000Y-49331000D01*
X66299000Y-49371000D02*
X61940000Y-49371000D01*
X59060000Y-49371000D02*
X54701000Y-49371000D01*
X66278000Y-49411000D02*
X61940000Y-49411000D01*
X59060000Y-49411000D02*
X54722000Y-49411000D01*
X66256000Y-49451000D02*
X61940000Y-49451000D01*
X59060000Y-49451000D02*
X54744000Y-49451000D01*
X66233000Y-49491000D02*
X61940000Y-49491000D01*
X59060000Y-49491000D02*
X54767000Y-49491000D01*
X66211000Y-49531000D02*
X61940000Y-49531000D01*
X59060000Y-49531000D02*
X54789000Y-49531000D01*
X66188000Y-49571000D02*
X61940000Y-49571000D01*
X59060000Y-49571000D02*
X54812000Y-49571000D01*
X66164000Y-49611000D02*
X61940000Y-49611000D01*
X59060000Y-49611000D02*
X54836000Y-49611000D01*
X66141000Y-49651000D02*
X61940000Y-49651000D01*
X59060000Y-49651000D02*
X54859000Y-49651000D01*
X66117000Y-49691000D02*
X61940000Y-49691000D01*
X59060000Y-49691000D02*
X54883000Y-49691000D01*
X66092000Y-49731000D02*
X61940000Y-49731000D01*
X59060000Y-49731000D02*
X54908000Y-49731000D01*
X66067000Y-49771000D02*
X61940000Y-49771000D01*
X59060000Y-49771000D02*
X54933000Y-49771000D01*
X66042000Y-49811000D02*
X61940000Y-49811000D01*
X59060000Y-49811000D02*
X54958000Y-49811000D01*
X66016000Y-49851000D02*
X61940000Y-49851000D01*
X59060000Y-49851000D02*
X54984000Y-49851000D01*
X65990000Y-49891000D02*
X61940000Y-49891000D01*
X59060000Y-49891000D02*
X55010000Y-49891000D01*
X65963000Y-49931000D02*
X61940000Y-49931000D01*
X59060000Y-49931000D02*
X55037000Y-49931000D01*
X65936000Y-49971000D02*
X61940000Y-49971000D01*
X59060000Y-49971000D02*
X55064000Y-49971000D01*
X65909000Y-50011000D02*
X61940000Y-50011000D01*
X59060000Y-50011000D02*
X55091000Y-50011000D01*
X65881000Y-50051000D02*
X61940000Y-50051000D01*
X59060000Y-50051000D02*
X55119000Y-50051000D01*
X65853000Y-50091000D02*
X61940000Y-50091000D01*
X59060000Y-50091000D02*
X55147000Y-50091000D01*
X65824000Y-50131000D02*
X61940000Y-50131000D01*
X59060000Y-50131000D02*
X55176000Y-50131000D01*
X65795000Y-50171000D02*
X61940000Y-50171000D01*
X59060000Y-50171000D02*
X55205000Y-50171000D01*
X65765000Y-50211000D02*
X61940000Y-50211000D01*
X59060000Y-50211000D02*
X55235000Y-50211000D01*
X65735000Y-50251000D02*
X61940000Y-50251000D01*
X59060000Y-50251000D02*
X55265000Y-50251000D01*
X65705000Y-50291000D02*
X61940000Y-50291000D01*
X59060000Y-50291000D02*
X55295000Y-50291000D01*
X65674000Y-50331000D02*
X61940000Y-50331000D01*
X59060000Y-50331000D02*
X55326000Y-50331000D01*
X65642000Y-50371000D02*
X61940000Y-50371000D01*
X59060000Y-50371000D02*
X55358000Y-50371000D01*
X65610000Y-50411000D02*
X61940000Y-50411000D01*
X59060000Y-50411000D02*
X55390000Y-50411000D01*
X65578000Y-50451000D02*
X61940000Y-50451000D01*
X59060000Y-50451000D02*
X55422000Y-50451000D01*
X65544000Y-50491000D02*
X61940000Y-50491000D01*
X59060000Y-50491000D02*
X55456000Y-50491000D01*
X65511000Y-50531000D02*
X61940000Y-50531000D01*
X59060000Y-50531000D02*
X55489000Y-50531000D01*
X65477000Y-50571000D02*
X61940000Y-50571000D01*
X59060000Y-50571000D02*
X55523000Y-50571000D01*
X65442000Y-50611000D02*
X61940000Y-50611000D01*
X59060000Y-50611000D02*
X55558000Y-50611000D01*
X65407000Y-50651000D02*
X61940000Y-50651000D01*
X59060000Y-50651000D02*
X55593000Y-50651000D01*
X65371000Y-50691000D02*
X61940000Y-50691000D01*
X59060000Y-50691000D02*
X55629000Y-50691000D01*
X65334000Y-50731000D02*
X61940000Y-50731000D01*
X59060000Y-50731000D02*
X55666000Y-50731000D01*
X65297000Y-50771000D02*
X61940000Y-50771000D01*
X59060000Y-50771000D02*
X55703000Y-50771000D01*
X65260000Y-50811000D02*
X61940000Y-50811000D01*
X59060000Y-50811000D02*
X55740000Y-50811000D01*
X65221000Y-50851000D02*
X61940000Y-50851000D01*
X59060000Y-50851000D02*
X55779000Y-50851000D01*
X65182000Y-50891000D02*
X61940000Y-50891000D01*
X59060000Y-50891000D02*
X55818000Y-50891000D01*
X65143000Y-50931000D02*
X61940000Y-50931000D01*
X59060000Y-50931000D02*
X55857000Y-50931000D01*
X65102000Y-50971000D02*
X61940000Y-50971000D01*
X59060000Y-50971000D02*
X55898000Y-50971000D01*
X65061000Y-51011000D02*
X61940000Y-51011000D01*
X59060000Y-51011000D02*
X55939000Y-51011000D01*
X65019000Y-51051000D02*
X61940000Y-51051000D01*
X59060000Y-51051000D02*
X55981000Y-51051000D01*
X64977000Y-51091000D02*
X61940000Y-51091000D01*
X59060000Y-51091000D02*
X56023000Y-51091000D01*
X64934000Y-51131000D02*
X61940000Y-51131000D01*
X59060000Y-51131000D02*
X56066000Y-51131000D01*
X64890000Y-51171000D02*
X61940000Y-51171000D01*
X59060000Y-51171000D02*
X56110000Y-51171000D01*
X64845000Y-51211000D02*
X61940000Y-51211000D01*
X59060000Y-51211000D02*
X56155000Y-51211000D01*
X64799000Y-51251000D02*
X61940000Y-51251000D01*
X59060000Y-51251000D02*
X56201000Y-51251000D01*
X64753000Y-51291000D02*
X61940000Y-51291000D01*
X59060000Y-51291000D02*
X56247000Y-51291000D01*
X64705000Y-51331000D02*
X61940000Y-51331000D01*
X59060000Y-51331000D02*
X56295000Y-51331000D01*
X64657000Y-51371000D02*
X61940000Y-51371000D01*
X59060000Y-51371000D02*
X56343000Y-51371000D01*
X64608000Y-51411000D02*
X61940000Y-51411000D01*
X59060000Y-51411000D02*
X56392000Y-51411000D01*
X64557000Y-51451000D02*
X56443000Y-51451000D01*
X64506000Y-51491000D02*
X56494000Y-51491000D01*
X64454000Y-51531000D02*
X56546000Y-51531000D01*
X64400000Y-51571000D02*
X56600000Y-51571000D01*
X64346000Y-51611000D02*
X56654000Y-51611000D01*
X64290000Y-51651000D02*
X56710000Y-51651000D01*
X64233000Y-51691000D02*
X56767000Y-51691000D01*
X64175000Y-51731000D02*
X56825000Y-51731000D01*
X64115000Y-51771000D02*
X56885000Y-51771000D01*
X64054000Y-51811000D02*
X56946000Y-51811000D01*
X63991000Y-51851000D02*
X57009000Y-51851000D01*
X63927000Y-51891000D02*
X57073000Y-51891000D01*
X63861000Y-51931000D02*
X57139000Y-51931000D01*
X63793000Y-51971000D02*
X57207000Y-51971000D01*
X63723000Y-52011000D02*
X57277000Y-52011000D01*
X63652000Y-52051000D02*
X57348000Y-52051000D01*
X63578000Y-52091000D02*
X57422000Y-52091000D01*
X63502000Y-52131000D02*
X57498000Y-52131000D01*
X63423000Y-52171000D02*
X57577000Y-52171000D01*
X63342000Y-52211000D02*
X57658000Y-52211000D01*
X63258000Y-52251000D02*
X57742000Y-52251000D01*
X63170000Y-52291000D02*
X57830000Y-52291000D01*
X63079000Y-52331000D02*
X57921000Y-52331000D01*
X62984000Y-52371000D02*
X58016000Y-52371000D01*
X62885000Y-52411000D02*
X58115000Y-52411000D01*
X62781000Y-52451000D02*
X58219000Y-52451000D01*
X62671000Y-52491000D02*
X58329000Y-52491000D01*
X62555000Y-52531000D02*
X58445000Y-52531000D01*
X62431000Y-52571000D02*
X58569000Y-52571000D01*
X62298000Y-52611000D02*
X58702000Y-52611000D01*
X62153000Y-52651000D02*
X58847000Y-52651000D01*
X61994000Y-52691000D02*
X59006000Y-52691000D01*
X61815000Y-52731000D02*
X59185000Y-52731000D01*
X61607000Y-52771000D02*
X59393000Y-52771000D01*
X61350000Y-52811000D02*
X59650000Y-52811000D01*
X60975000Y-52851000D02*
X60025000Y-52851000D01*
X67120000Y-46250000D02*
G75*
G02*
X53880000Y-46250000I-6620000J0D01*
G01*
X53880000Y-46250000D02*
G75*
G02*
X67120000Y-46250000I6620000J0D01*
G01*
%TD*%
M02*
