%TF.GenerationSoftware,KiCad,Pcbnew,8.0.9*%
%TF.CreationDate,2025-08-13T21:21:24+02:00*%
%TF.ProjectId,regulateur_tension,72656775-6c61-4746-9575-725f74656e73,rev?*%
%TF.SameCoordinates,Original*%
%TF.FileFunction,Copper,L2,Bot*%
%TF.FilePolarity,Positive*%
%FSLAX46Y46*%
G04 Gerber Fmt 4.6, Leading zero omitted, Abs format (unit mm)*
G04 Created by KiCad (PCBNEW 8.0.9) date 2025-08-13 21:21:24*
%MOMM*%
%LPD*%
G01*
G04 APERTURE LIST*
%TA.AperFunction,ComponentPad*%
%ADD10O,2.000000X1.905000*%
%TD*%
%TA.AperFunction,ComponentPad*%
%ADD11R,2.000000X1.905000*%
%TD*%
%TA.AperFunction,ComponentPad*%
%ADD12R,1.905000X2.000000*%
%TD*%
%TA.AperFunction,ComponentPad*%
%ADD13O,1.905000X2.000000*%
%TD*%
%TA.AperFunction,ComponentPad*%
%ADD14R,2.600000X2.600000*%
%TD*%
%TA.AperFunction,ComponentPad*%
%ADD15C,2.600000*%
%TD*%
%TA.AperFunction,ComponentPad*%
%ADD16R,1.700000X1.700000*%
%TD*%
%TA.AperFunction,ComponentPad*%
%ADD17R,2.200000X2.200000*%
%TD*%
%TA.AperFunction,ComponentPad*%
%ADD18O,2.200000X2.200000*%
%TD*%
%TA.AperFunction,ComponentPad*%
%ADD19C,2.000000*%
%TD*%
%TA.AperFunction,ComponentPad*%
%ADD20R,2.400000X2.400000*%
%TD*%
%TA.AperFunction,ComponentPad*%
%ADD21C,2.400000*%
%TD*%
%TA.AperFunction,Conductor*%
%ADD22C,1.000000*%
%TD*%
G04 APERTURE END LIST*
D10*
%TO.P,U3,3,VO*%
%TO.N,Net-(OUTPUT2-Pin_2)*%
X99445000Y-78960000D03*
%TO.P,U3,2,GND*%
%TO.N,GROUND*%
X99445000Y-81500000D03*
D11*
%TO.P,U3,1,VI*%
%TO.N,Net-(D1-K)*%
X99445000Y-84040000D03*
%TD*%
D12*
%TO.P,U2,1,VI*%
%TO.N,Net-(D1-K)*%
X96420000Y-57500000D03*
D13*
%TO.P,U2,2,GND*%
%TO.N,GROUND*%
X98960000Y-57500000D03*
%TO.P,U2,3,VO*%
%TO.N,Net-(OUTPUT1-Pin_2)*%
X101500000Y-57500000D03*
%TD*%
D14*
%TO.P,OUTPUT2,1,Pin_1*%
%TO.N,GROUND*%
X126155000Y-80000000D03*
D15*
%TO.P,OUTPUT2,2,Pin_2*%
%TO.N,Net-(OUTPUT2-Pin_2)*%
X126155000Y-75000000D03*
%TD*%
D14*
%TO.P,OUTPUT1,1,Pin_1*%
%TO.N,GROUND*%
X130000000Y-48345000D03*
D15*
%TO.P,OUTPUT1,2,Pin_2*%
%TO.N,Net-(OUTPUT1-Pin_2)*%
X125000000Y-48345000D03*
%TD*%
D16*
%TO.P,J2,1,Pin_1*%
%TO.N,GROUND*%
X61000000Y-87065215D03*
%TD*%
%TO.P,J1,1,Pin_1*%
%TO.N,Net-(D1-K)*%
X49000000Y-49065215D03*
%TD*%
D14*
%TO.P,INPUT_AC1,1,Pin_1*%
%TO.N,Net-(D1-A)*%
X46845000Y-69065215D03*
D15*
%TO.P,INPUT_AC1,2,Pin_2*%
%TO.N,Net-(D2-K)*%
X46845000Y-74065215D03*
%TD*%
D17*
%TO.P,D4,1,K*%
%TO.N,Net-(D1-K)*%
X72080000Y-65065215D03*
D18*
%TO.P,D4,2,A*%
%TO.N,Net-(D2-K)*%
X61920000Y-65065215D03*
%TD*%
D17*
%TO.P,D3,1,K*%
%TO.N,Net-(D1-A)*%
X42420000Y-87065215D03*
D18*
%TO.P,D3,2,A*%
%TO.N,GROUND*%
X52580000Y-87065215D03*
%TD*%
D17*
%TO.P,D2,1,K*%
%TO.N,Net-(D2-K)*%
X61920000Y-75065215D03*
D18*
%TO.P,D2,2,A*%
%TO.N,GROUND*%
X72080000Y-75065215D03*
%TD*%
D17*
%TO.P,D1,1,K*%
%TO.N,Net-(D1-K)*%
X45420000Y-59565215D03*
D18*
%TO.P,D1,2,A*%
%TO.N,Net-(D1-A)*%
X55580000Y-59565215D03*
%TD*%
D19*
%TO.P,C_CERAMIC2,1*%
%TO.N,Net-(OUTPUT2-Pin_2)*%
X111000000Y-77500000D03*
%TO.P,C_CERAMIC2,2*%
%TO.N,GROUND*%
X111000000Y-82500000D03*
%TD*%
%TO.P,C_CERAMIC1,2*%
%TO.N,GROUND*%
X112500000Y-45500000D03*
%TO.P,C_CERAMIC1,1*%
%TO.N,Net-(OUTPUT1-Pin_2)*%
X112500000Y-50500000D03*
%TD*%
D20*
%TO.P,C2,1*%
%TO.N,Net-(D1-K)*%
X85500000Y-51065216D03*
D21*
%TO.P,C2,2*%
%TO.N,GROUND*%
X85500000Y-43565216D03*
%TD*%
D20*
%TO.P,C1,1*%
%TO.N,Net-(D1-K)*%
X60500000Y-42500000D03*
D21*
%TO.P,C1,2*%
%TO.N,GROUND*%
X60500000Y-50000000D03*
%TD*%
D22*
%TO.N,GROUND*%
X77660000Y-88000000D02*
X72080000Y-82420000D01*
X107000000Y-88000000D02*
X77660000Y-88000000D01*
X111000000Y-84000000D02*
X107000000Y-88000000D01*
X111000000Y-82500000D02*
X111000000Y-84000000D01*
X95065216Y-43565216D02*
X99000000Y-47500000D01*
X85500000Y-43565216D02*
X95065216Y-43565216D01*
X99000000Y-54500000D02*
X99000000Y-47500000D01*
X98960000Y-54540000D02*
X99000000Y-54500000D01*
%TO.N,Net-(D1-K)*%
X65354785Y-42500000D02*
X60500000Y-42500000D01*
X80000000Y-57145215D02*
X65354785Y-42500000D01*
X85500000Y-54000000D02*
X85500000Y-51065216D01*
X82354785Y-57145215D02*
X85500000Y-54000000D01*
X80000000Y-57145215D02*
X82354785Y-57145215D01*
%TO.N,GROUND*%
X126000000Y-80000000D02*
X126155000Y-80000000D01*
X123500000Y-82500000D02*
X126000000Y-80000000D01*
X111000000Y-82500000D02*
X123500000Y-82500000D01*
%TO.N,Net-(OUTPUT2-Pin_2)*%
X113500000Y-75000000D02*
X126155000Y-75000000D01*
X111000000Y-77500000D02*
X113500000Y-75000000D01*
%TO.N,GROUND*%
X110000000Y-81500000D02*
X111000000Y-82500000D01*
X99445000Y-81500000D02*
X110000000Y-81500000D01*
%TO.N,Net-(OUTPUT2-Pin_2)*%
X109540000Y-78960000D02*
X111000000Y-77500000D01*
X99445000Y-78960000D02*
X109540000Y-78960000D01*
%TO.N,GROUND*%
X93000000Y-79500000D02*
X95000000Y-81500000D01*
X93000000Y-73000000D02*
X93000000Y-79500000D01*
X95000000Y-81500000D02*
X99445000Y-81500000D01*
X99000000Y-67000000D02*
X93000000Y-73000000D01*
X99000000Y-65000000D02*
X99000000Y-67000000D01*
%TO.N,Net-(D1-K)*%
X80000000Y-65565215D02*
X80000000Y-65065215D01*
X82000000Y-67565215D02*
X80000000Y-65565215D01*
X82000000Y-80000000D02*
X82000000Y-67565215D01*
X99445000Y-84040000D02*
X86040000Y-84040000D01*
X86040000Y-84040000D02*
X82000000Y-80000000D01*
%TO.N,GROUND*%
X72080000Y-82420000D02*
X72080000Y-75065215D01*
X61000000Y-87065215D02*
X67434785Y-87065215D01*
X67434785Y-87065215D02*
X72080000Y-82420000D01*
X127500000Y-43000000D02*
X130000000Y-45500000D01*
X130000000Y-45500000D02*
X130000000Y-48345000D01*
X118000000Y-43000000D02*
X127500000Y-43000000D01*
X115500000Y-45500000D02*
X118000000Y-43000000D01*
X112500000Y-45500000D02*
X115500000Y-45500000D01*
%TO.N,Net-(OUTPUT1-Pin_2)*%
X122845000Y-50500000D02*
X125000000Y-48345000D01*
X112500000Y-50500000D02*
X122845000Y-50500000D01*
X105500000Y-57500000D02*
X112500000Y-50500000D01*
X101500000Y-57500000D02*
X105500000Y-57500000D01*
%TO.N,GROUND*%
X98960000Y-54540000D02*
X108000000Y-45500000D01*
X108000000Y-45500000D02*
X112500000Y-45500000D01*
X98960000Y-57500000D02*
X98960000Y-54540000D01*
X98960000Y-64960000D02*
X98960000Y-57500000D01*
X99000000Y-65000000D02*
X98960000Y-64960000D01*
%TO.N,Net-(D1-K)*%
X96420000Y-60565215D02*
X96420000Y-57500000D01*
X91920000Y-65065215D02*
X96420000Y-60565215D01*
X80000000Y-65065215D02*
X91920000Y-65065215D01*
%TO.N,GROUND*%
X52580000Y-87065215D02*
X61000000Y-87065215D01*
%TO.N,Net-(D1-A)*%
X41000000Y-85645215D02*
X42420000Y-87065215D01*
X41000000Y-70565215D02*
X41000000Y-85645215D01*
X42500000Y-69065215D02*
X41000000Y-70565215D01*
X46845000Y-69065215D02*
X42500000Y-69065215D01*
%TO.N,Net-(D1-K)*%
X49000000Y-47065215D02*
X49000000Y-49065215D01*
X60500000Y-42500000D02*
X53565215Y-42500000D01*
X53565215Y-42500000D02*
X49000000Y-47065215D01*
X61000000Y-43000000D02*
X60500000Y-42500000D01*
%TO.N,GROUND*%
X67500000Y-57000000D02*
X60500000Y-50000000D01*
X67500000Y-67565215D02*
X67500000Y-57000000D01*
%TO.N,Net-(D1-K)*%
X72080000Y-65065215D02*
X80000000Y-57145215D01*
X72080000Y-65065215D02*
X80000000Y-65065215D01*
%TO.N,GROUND*%
X72080000Y-75065215D02*
X72080000Y-72145215D01*
X72080000Y-72145215D02*
X67500000Y-67565215D01*
%TO.N,Net-(D2-K)*%
X61920000Y-75065215D02*
X61920000Y-65065215D01*
X47845000Y-75065215D02*
X46845000Y-74065215D01*
X61920000Y-75065215D02*
X47845000Y-75065215D01*
%TO.N,Net-(D1-K)*%
X45420000Y-52645215D02*
X49000000Y-49065215D01*
X45420000Y-59565215D02*
X45420000Y-52645215D01*
%TO.N,Net-(D1-A)*%
X55580000Y-62485215D02*
X55580000Y-59565215D01*
X49000000Y-69065215D02*
X55580000Y-62485215D01*
X46845000Y-69065215D02*
X49000000Y-69065215D01*
%TD*%
M02*
