%TF.GenerationSoftware,KiCad,Pcbnew,9.0.4*%
%TF.CreationDate,2025-12-30T13:48:10+01:00*%
%TF.ProjectId,Capteur_temperature,43617074-6575-4725-9f74-656d70657261,rev?*%
%TF.SameCoordinates,Original*%
%TF.FileFunction,Soldermask,Top*%
%TF.FilePolarity,Negative*%
%FSLAX46Y46*%
G04 Gerber Fmt 4.6, Leading zero omitted, Abs format (unit mm)*
G04 Created by KiCad (PCBNEW 9.0.4) date 2025-12-30 13:48:10*
%MOMM*%
%LPD*%
G01*
G04 APERTURE LIST*
%ADD10C,2.400000*%
%ADD11R,1.050000X1.500000*%
%ADD12O,1.050000X1.500000*%
%ADD13R,1.800000X1.800000*%
%ADD14C,1.800000*%
%ADD15R,1.600000X1.600000*%
%ADD16O,1.600000X1.600000*%
%ADD17R,1.500000X1.500000*%
%ADD18C,1.500000*%
G04 APERTURE END LIST*
D10*
%TO.C,RE1*%
X147850000Y-129500000D03*
X135150000Y-129500000D03*
%TD*%
%TO.C,RC1*%
X192000000Y-108800000D03*
X192000000Y-121500000D03*
%TD*%
D11*
%TO.C,U2*%
X98960000Y-53500000D03*
D12*
X100230000Y-53500000D03*
X101500000Y-53500000D03*
%TD*%
D10*
%TO.C,RLED1*%
X201300000Y-55000000D03*
X214000000Y-55000000D03*
%TD*%
D13*
%TO.C,D1*%
X211960000Y-64000000D03*
D14*
X214500000Y-64000000D03*
%TD*%
D10*
%TO.C,RF1*%
X126300000Y-44500000D03*
X113600000Y-44500000D03*
%TD*%
%TO.C,RG1*%
X153350000Y-44000000D03*
X140650000Y-44000000D03*
%TD*%
D15*
%TO.C,A1*%
X73720000Y-70000000D03*
D16*
X76260000Y-70000000D03*
X78800000Y-70000000D03*
X81340000Y-70000000D03*
X83880000Y-70000000D03*
X86420000Y-70000000D03*
X88960000Y-70000000D03*
X91500000Y-70000000D03*
X96580000Y-70000000D03*
X99120000Y-70000000D03*
X101660000Y-70000000D03*
X104200000Y-70000000D03*
X106740000Y-70000000D03*
X109280000Y-70000000D03*
X109280000Y-118260000D03*
X106740000Y-118260000D03*
X104200000Y-118260000D03*
X101660000Y-118260000D03*
X99120000Y-118260000D03*
X96580000Y-118260000D03*
X94040000Y-118260000D03*
X91500000Y-118260000D03*
X87440000Y-118260000D03*
X84900000Y-118260000D03*
X82360000Y-118260000D03*
X79820000Y-118260000D03*
X77280000Y-118260000D03*
X74740000Y-118260000D03*
X72200000Y-118260000D03*
X69660000Y-118260000D03*
X67120000Y-118260000D03*
X64580000Y-118260000D03*
%TD*%
D17*
%TO.C,U1*%
X140500000Y-75740000D03*
D18*
X143040000Y-75740000D03*
X145580000Y-75740000D03*
X148120000Y-75740000D03*
X150660000Y-75740000D03*
X153200000Y-75740000D03*
X153200000Y-60500000D03*
X150660000Y-60500000D03*
X148120000Y-60500000D03*
X145580000Y-60500000D03*
X143040000Y-60500000D03*
X140500000Y-60500000D03*
%TD*%
D10*
%TO.C,RD1*%
X165350000Y-129500000D03*
X152650000Y-129500000D03*
%TD*%
%TO.C,RB1*%
X192000000Y-84650000D03*
X192000000Y-97350000D03*
%TD*%
%TO.C,RA1*%
X191500000Y-66150000D03*
X191500000Y-78850000D03*
%TD*%
%TO.C,R_DP1*%
X175850000Y-43500000D03*
X163150000Y-43500000D03*
%TD*%
M02*
