%TF.GenerationSoftware,KiCad,Pcbnew,9.0.4*%
%TF.CreationDate,2025-12-30T13:48:10+01:00*%
%TF.ProjectId,Capteur_temperature,43617074-6575-4725-9f74-656d70657261,rev?*%
%TF.SameCoordinates,Original*%
%TF.FileFunction,Legend,Top*%
%TF.FilePolarity,Positive*%
%FSLAX46Y46*%
G04 Gerber Fmt 4.6, Leading zero omitted, Abs format (unit mm)*
G04 Created by KiCad (PCBNEW 9.0.4) date 2025-12-30 13:48:10*
%MOMM*%
%LPD*%
G01*
G04 APERTURE LIST*
%ADD10C,0.150000*%
%ADD11C,0.120000*%
G04 APERTURE END LIST*
D10*
X140880952Y-132874819D02*
X140547619Y-132398628D01*
X140309524Y-132874819D02*
X140309524Y-131874819D01*
X140309524Y-131874819D02*
X140690476Y-131874819D01*
X140690476Y-131874819D02*
X140785714Y-131922438D01*
X140785714Y-131922438D02*
X140833333Y-131970057D01*
X140833333Y-131970057D02*
X140880952Y-132065295D01*
X140880952Y-132065295D02*
X140880952Y-132208152D01*
X140880952Y-132208152D02*
X140833333Y-132303390D01*
X140833333Y-132303390D02*
X140785714Y-132351009D01*
X140785714Y-132351009D02*
X140690476Y-132398628D01*
X140690476Y-132398628D02*
X140309524Y-132398628D01*
X141309524Y-132351009D02*
X141642857Y-132351009D01*
X141785714Y-132874819D02*
X141309524Y-132874819D01*
X141309524Y-132874819D02*
X141309524Y-131874819D01*
X141309524Y-131874819D02*
X141785714Y-131874819D01*
X142738095Y-132874819D02*
X142166667Y-132874819D01*
X142452381Y-132874819D02*
X142452381Y-131874819D01*
X142452381Y-131874819D02*
X142357143Y-132017676D01*
X142357143Y-132017676D02*
X142261905Y-132112914D01*
X142261905Y-132112914D02*
X142166667Y-132160533D01*
X195374819Y-115816666D02*
X194898628Y-116149999D01*
X195374819Y-116388094D02*
X194374819Y-116388094D01*
X194374819Y-116388094D02*
X194374819Y-116007142D01*
X194374819Y-116007142D02*
X194422438Y-115911904D01*
X194422438Y-115911904D02*
X194470057Y-115864285D01*
X194470057Y-115864285D02*
X194565295Y-115816666D01*
X194565295Y-115816666D02*
X194708152Y-115816666D01*
X194708152Y-115816666D02*
X194803390Y-115864285D01*
X194803390Y-115864285D02*
X194851009Y-115911904D01*
X194851009Y-115911904D02*
X194898628Y-116007142D01*
X194898628Y-116007142D02*
X194898628Y-116388094D01*
X195279580Y-114816666D02*
X195327200Y-114864285D01*
X195327200Y-114864285D02*
X195374819Y-115007142D01*
X195374819Y-115007142D02*
X195374819Y-115102380D01*
X195374819Y-115102380D02*
X195327200Y-115245237D01*
X195327200Y-115245237D02*
X195231961Y-115340475D01*
X195231961Y-115340475D02*
X195136723Y-115388094D01*
X195136723Y-115388094D02*
X194946247Y-115435713D01*
X194946247Y-115435713D02*
X194803390Y-115435713D01*
X194803390Y-115435713D02*
X194612914Y-115388094D01*
X194612914Y-115388094D02*
X194517676Y-115340475D01*
X194517676Y-115340475D02*
X194422438Y-115245237D01*
X194422438Y-115245237D02*
X194374819Y-115102380D01*
X194374819Y-115102380D02*
X194374819Y-115007142D01*
X194374819Y-115007142D02*
X194422438Y-114864285D01*
X194422438Y-114864285D02*
X194470057Y-114816666D01*
X195374819Y-113864285D02*
X195374819Y-114435713D01*
X195374819Y-114149999D02*
X194374819Y-114149999D01*
X194374819Y-114149999D02*
X194517676Y-114245237D01*
X194517676Y-114245237D02*
X194612914Y-114340475D01*
X194612914Y-114340475D02*
X194660533Y-114435713D01*
X99468095Y-49394819D02*
X99468095Y-50204342D01*
X99468095Y-50204342D02*
X99515714Y-50299580D01*
X99515714Y-50299580D02*
X99563333Y-50347200D01*
X99563333Y-50347200D02*
X99658571Y-50394819D01*
X99658571Y-50394819D02*
X99849047Y-50394819D01*
X99849047Y-50394819D02*
X99944285Y-50347200D01*
X99944285Y-50347200D02*
X99991904Y-50299580D01*
X99991904Y-50299580D02*
X100039523Y-50204342D01*
X100039523Y-50204342D02*
X100039523Y-49394819D01*
X100468095Y-49490057D02*
X100515714Y-49442438D01*
X100515714Y-49442438D02*
X100610952Y-49394819D01*
X100610952Y-49394819D02*
X100849047Y-49394819D01*
X100849047Y-49394819D02*
X100944285Y-49442438D01*
X100944285Y-49442438D02*
X100991904Y-49490057D01*
X100991904Y-49490057D02*
X101039523Y-49585295D01*
X101039523Y-49585295D02*
X101039523Y-49680533D01*
X101039523Y-49680533D02*
X100991904Y-49823390D01*
X100991904Y-49823390D02*
X100420476Y-50394819D01*
X100420476Y-50394819D02*
X101039523Y-50394819D01*
X206126190Y-52534819D02*
X205792857Y-52058628D01*
X205554762Y-52534819D02*
X205554762Y-51534819D01*
X205554762Y-51534819D02*
X205935714Y-51534819D01*
X205935714Y-51534819D02*
X206030952Y-51582438D01*
X206030952Y-51582438D02*
X206078571Y-51630057D01*
X206078571Y-51630057D02*
X206126190Y-51725295D01*
X206126190Y-51725295D02*
X206126190Y-51868152D01*
X206126190Y-51868152D02*
X206078571Y-51963390D01*
X206078571Y-51963390D02*
X206030952Y-52011009D01*
X206030952Y-52011009D02*
X205935714Y-52058628D01*
X205935714Y-52058628D02*
X205554762Y-52058628D01*
X207030952Y-52534819D02*
X206554762Y-52534819D01*
X206554762Y-52534819D02*
X206554762Y-51534819D01*
X207364286Y-52011009D02*
X207697619Y-52011009D01*
X207840476Y-52534819D02*
X207364286Y-52534819D01*
X207364286Y-52534819D02*
X207364286Y-51534819D01*
X207364286Y-51534819D02*
X207840476Y-51534819D01*
X208269048Y-52534819D02*
X208269048Y-51534819D01*
X208269048Y-51534819D02*
X208507143Y-51534819D01*
X208507143Y-51534819D02*
X208650000Y-51582438D01*
X208650000Y-51582438D02*
X208745238Y-51677676D01*
X208745238Y-51677676D02*
X208792857Y-51772914D01*
X208792857Y-51772914D02*
X208840476Y-51963390D01*
X208840476Y-51963390D02*
X208840476Y-52106247D01*
X208840476Y-52106247D02*
X208792857Y-52296723D01*
X208792857Y-52296723D02*
X208745238Y-52391961D01*
X208745238Y-52391961D02*
X208650000Y-52487200D01*
X208650000Y-52487200D02*
X208507143Y-52534819D01*
X208507143Y-52534819D02*
X208269048Y-52534819D01*
X209792857Y-52534819D02*
X209221429Y-52534819D01*
X209507143Y-52534819D02*
X209507143Y-51534819D01*
X209507143Y-51534819D02*
X209411905Y-51677676D01*
X209411905Y-51677676D02*
X209316667Y-51772914D01*
X209316667Y-51772914D02*
X209221429Y-51820533D01*
X212491905Y-60494819D02*
X212491905Y-59494819D01*
X212491905Y-59494819D02*
X212730000Y-59494819D01*
X212730000Y-59494819D02*
X212872857Y-59542438D01*
X212872857Y-59542438D02*
X212968095Y-59637676D01*
X212968095Y-59637676D02*
X213015714Y-59732914D01*
X213015714Y-59732914D02*
X213063333Y-59923390D01*
X213063333Y-59923390D02*
X213063333Y-60066247D01*
X213063333Y-60066247D02*
X213015714Y-60256723D01*
X213015714Y-60256723D02*
X212968095Y-60351961D01*
X212968095Y-60351961D02*
X212872857Y-60447200D01*
X212872857Y-60447200D02*
X212730000Y-60494819D01*
X212730000Y-60494819D02*
X212491905Y-60494819D01*
X214015714Y-60494819D02*
X213444286Y-60494819D01*
X213730000Y-60494819D02*
X213730000Y-59494819D01*
X213730000Y-59494819D02*
X213634762Y-59637676D01*
X213634762Y-59637676D02*
X213539524Y-59732914D01*
X213539524Y-59732914D02*
X213444286Y-59780533D01*
X119354761Y-47874819D02*
X119021428Y-47398628D01*
X118783333Y-47874819D02*
X118783333Y-46874819D01*
X118783333Y-46874819D02*
X119164285Y-46874819D01*
X119164285Y-46874819D02*
X119259523Y-46922438D01*
X119259523Y-46922438D02*
X119307142Y-46970057D01*
X119307142Y-46970057D02*
X119354761Y-47065295D01*
X119354761Y-47065295D02*
X119354761Y-47208152D01*
X119354761Y-47208152D02*
X119307142Y-47303390D01*
X119307142Y-47303390D02*
X119259523Y-47351009D01*
X119259523Y-47351009D02*
X119164285Y-47398628D01*
X119164285Y-47398628D02*
X118783333Y-47398628D01*
X120116666Y-47351009D02*
X119783333Y-47351009D01*
X119783333Y-47874819D02*
X119783333Y-46874819D01*
X119783333Y-46874819D02*
X120259523Y-46874819D01*
X121164285Y-47874819D02*
X120592857Y-47874819D01*
X120878571Y-47874819D02*
X120878571Y-46874819D01*
X120878571Y-46874819D02*
X120783333Y-47017676D01*
X120783333Y-47017676D02*
X120688095Y-47112914D01*
X120688095Y-47112914D02*
X120592857Y-47160533D01*
X146333333Y-47374819D02*
X146000000Y-46898628D01*
X145761905Y-47374819D02*
X145761905Y-46374819D01*
X145761905Y-46374819D02*
X146142857Y-46374819D01*
X146142857Y-46374819D02*
X146238095Y-46422438D01*
X146238095Y-46422438D02*
X146285714Y-46470057D01*
X146285714Y-46470057D02*
X146333333Y-46565295D01*
X146333333Y-46565295D02*
X146333333Y-46708152D01*
X146333333Y-46708152D02*
X146285714Y-46803390D01*
X146285714Y-46803390D02*
X146238095Y-46851009D01*
X146238095Y-46851009D02*
X146142857Y-46898628D01*
X146142857Y-46898628D02*
X145761905Y-46898628D01*
X147285714Y-46422438D02*
X147190476Y-46374819D01*
X147190476Y-46374819D02*
X147047619Y-46374819D01*
X147047619Y-46374819D02*
X146904762Y-46422438D01*
X146904762Y-46422438D02*
X146809524Y-46517676D01*
X146809524Y-46517676D02*
X146761905Y-46612914D01*
X146761905Y-46612914D02*
X146714286Y-46803390D01*
X146714286Y-46803390D02*
X146714286Y-46946247D01*
X146714286Y-46946247D02*
X146761905Y-47136723D01*
X146761905Y-47136723D02*
X146809524Y-47231961D01*
X146809524Y-47231961D02*
X146904762Y-47327200D01*
X146904762Y-47327200D02*
X147047619Y-47374819D01*
X147047619Y-47374819D02*
X147142857Y-47374819D01*
X147142857Y-47374819D02*
X147285714Y-47327200D01*
X147285714Y-47327200D02*
X147333333Y-47279580D01*
X147333333Y-47279580D02*
X147333333Y-46946247D01*
X147333333Y-46946247D02*
X147142857Y-46946247D01*
X148285714Y-47374819D02*
X147714286Y-47374819D01*
X148000000Y-47374819D02*
X148000000Y-46374819D01*
X148000000Y-46374819D02*
X147904762Y-46517676D01*
X147904762Y-46517676D02*
X147809524Y-46612914D01*
X147809524Y-46612914D02*
X147714286Y-46660533D01*
X74275714Y-66359104D02*
X74751904Y-66359104D01*
X74180476Y-66644819D02*
X74513809Y-65644819D01*
X74513809Y-65644819D02*
X74847142Y-66644819D01*
X75704285Y-66644819D02*
X75132857Y-66644819D01*
X75418571Y-66644819D02*
X75418571Y-65644819D01*
X75418571Y-65644819D02*
X75323333Y-65787676D01*
X75323333Y-65787676D02*
X75228095Y-65882914D01*
X75228095Y-65882914D02*
X75132857Y-65930533D01*
X119804819Y-76941904D02*
X120614342Y-76941904D01*
X120614342Y-76941904D02*
X120709580Y-76894285D01*
X120709580Y-76894285D02*
X120757200Y-76846666D01*
X120757200Y-76846666D02*
X120804819Y-76751428D01*
X120804819Y-76751428D02*
X120804819Y-76560952D01*
X120804819Y-76560952D02*
X120757200Y-76465714D01*
X120757200Y-76465714D02*
X120709580Y-76418095D01*
X120709580Y-76418095D02*
X120614342Y-76370476D01*
X120614342Y-76370476D02*
X119804819Y-76370476D01*
X120804819Y-75370476D02*
X120804819Y-75941904D01*
X120804819Y-75656190D02*
X119804819Y-75656190D01*
X119804819Y-75656190D02*
X119947676Y-75751428D01*
X119947676Y-75751428D02*
X120042914Y-75846666D01*
X120042914Y-75846666D02*
X120090533Y-75941904D01*
X158333333Y-132874819D02*
X158000000Y-132398628D01*
X157761905Y-132874819D02*
X157761905Y-131874819D01*
X157761905Y-131874819D02*
X158142857Y-131874819D01*
X158142857Y-131874819D02*
X158238095Y-131922438D01*
X158238095Y-131922438D02*
X158285714Y-131970057D01*
X158285714Y-131970057D02*
X158333333Y-132065295D01*
X158333333Y-132065295D02*
X158333333Y-132208152D01*
X158333333Y-132208152D02*
X158285714Y-132303390D01*
X158285714Y-132303390D02*
X158238095Y-132351009D01*
X158238095Y-132351009D02*
X158142857Y-132398628D01*
X158142857Y-132398628D02*
X157761905Y-132398628D01*
X158761905Y-132874819D02*
X158761905Y-131874819D01*
X158761905Y-131874819D02*
X159000000Y-131874819D01*
X159000000Y-131874819D02*
X159142857Y-131922438D01*
X159142857Y-131922438D02*
X159238095Y-132017676D01*
X159238095Y-132017676D02*
X159285714Y-132112914D01*
X159285714Y-132112914D02*
X159333333Y-132303390D01*
X159333333Y-132303390D02*
X159333333Y-132446247D01*
X159333333Y-132446247D02*
X159285714Y-132636723D01*
X159285714Y-132636723D02*
X159238095Y-132731961D01*
X159238095Y-132731961D02*
X159142857Y-132827200D01*
X159142857Y-132827200D02*
X159000000Y-132874819D01*
X159000000Y-132874819D02*
X158761905Y-132874819D01*
X160285714Y-132874819D02*
X159714286Y-132874819D01*
X160000000Y-132874819D02*
X160000000Y-131874819D01*
X160000000Y-131874819D02*
X159904762Y-132017676D01*
X159904762Y-132017676D02*
X159809524Y-132112914D01*
X159809524Y-132112914D02*
X159714286Y-132160533D01*
X195374819Y-91666666D02*
X194898628Y-91999999D01*
X195374819Y-92238094D02*
X194374819Y-92238094D01*
X194374819Y-92238094D02*
X194374819Y-91857142D01*
X194374819Y-91857142D02*
X194422438Y-91761904D01*
X194422438Y-91761904D02*
X194470057Y-91714285D01*
X194470057Y-91714285D02*
X194565295Y-91666666D01*
X194565295Y-91666666D02*
X194708152Y-91666666D01*
X194708152Y-91666666D02*
X194803390Y-91714285D01*
X194803390Y-91714285D02*
X194851009Y-91761904D01*
X194851009Y-91761904D02*
X194898628Y-91857142D01*
X194898628Y-91857142D02*
X194898628Y-92238094D01*
X194851009Y-90904761D02*
X194898628Y-90761904D01*
X194898628Y-90761904D02*
X194946247Y-90714285D01*
X194946247Y-90714285D02*
X195041485Y-90666666D01*
X195041485Y-90666666D02*
X195184342Y-90666666D01*
X195184342Y-90666666D02*
X195279580Y-90714285D01*
X195279580Y-90714285D02*
X195327200Y-90761904D01*
X195327200Y-90761904D02*
X195374819Y-90857142D01*
X195374819Y-90857142D02*
X195374819Y-91238094D01*
X195374819Y-91238094D02*
X194374819Y-91238094D01*
X194374819Y-91238094D02*
X194374819Y-90904761D01*
X194374819Y-90904761D02*
X194422438Y-90809523D01*
X194422438Y-90809523D02*
X194470057Y-90761904D01*
X194470057Y-90761904D02*
X194565295Y-90714285D01*
X194565295Y-90714285D02*
X194660533Y-90714285D01*
X194660533Y-90714285D02*
X194755771Y-90761904D01*
X194755771Y-90761904D02*
X194803390Y-90809523D01*
X194803390Y-90809523D02*
X194851009Y-90904761D01*
X194851009Y-90904761D02*
X194851009Y-91238094D01*
X195374819Y-89714285D02*
X195374819Y-90285713D01*
X195374819Y-89999999D02*
X194374819Y-89999999D01*
X194374819Y-89999999D02*
X194517676Y-90095237D01*
X194517676Y-90095237D02*
X194612914Y-90190475D01*
X194612914Y-90190475D02*
X194660533Y-90285713D01*
X194874819Y-73095238D02*
X194398628Y-73428571D01*
X194874819Y-73666666D02*
X193874819Y-73666666D01*
X193874819Y-73666666D02*
X193874819Y-73285714D01*
X193874819Y-73285714D02*
X193922438Y-73190476D01*
X193922438Y-73190476D02*
X193970057Y-73142857D01*
X193970057Y-73142857D02*
X194065295Y-73095238D01*
X194065295Y-73095238D02*
X194208152Y-73095238D01*
X194208152Y-73095238D02*
X194303390Y-73142857D01*
X194303390Y-73142857D02*
X194351009Y-73190476D01*
X194351009Y-73190476D02*
X194398628Y-73285714D01*
X194398628Y-73285714D02*
X194398628Y-73666666D01*
X194589104Y-72714285D02*
X194589104Y-72238095D01*
X194874819Y-72809523D02*
X193874819Y-72476190D01*
X193874819Y-72476190D02*
X194874819Y-72142857D01*
X194874819Y-71285714D02*
X194874819Y-71857142D01*
X194874819Y-71571428D02*
X193874819Y-71571428D01*
X193874819Y-71571428D02*
X194017676Y-71666666D01*
X194017676Y-71666666D02*
X194112914Y-71761904D01*
X194112914Y-71761904D02*
X194160533Y-71857142D01*
X167952380Y-46874819D02*
X167619047Y-46398628D01*
X167380952Y-46874819D02*
X167380952Y-45874819D01*
X167380952Y-45874819D02*
X167761904Y-45874819D01*
X167761904Y-45874819D02*
X167857142Y-45922438D01*
X167857142Y-45922438D02*
X167904761Y-45970057D01*
X167904761Y-45970057D02*
X167952380Y-46065295D01*
X167952380Y-46065295D02*
X167952380Y-46208152D01*
X167952380Y-46208152D02*
X167904761Y-46303390D01*
X167904761Y-46303390D02*
X167857142Y-46351009D01*
X167857142Y-46351009D02*
X167761904Y-46398628D01*
X167761904Y-46398628D02*
X167380952Y-46398628D01*
X168142857Y-46970057D02*
X168904761Y-46970057D01*
X169142857Y-46874819D02*
X169142857Y-45874819D01*
X169142857Y-45874819D02*
X169380952Y-45874819D01*
X169380952Y-45874819D02*
X169523809Y-45922438D01*
X169523809Y-45922438D02*
X169619047Y-46017676D01*
X169619047Y-46017676D02*
X169666666Y-46112914D01*
X169666666Y-46112914D02*
X169714285Y-46303390D01*
X169714285Y-46303390D02*
X169714285Y-46446247D01*
X169714285Y-46446247D02*
X169666666Y-46636723D01*
X169666666Y-46636723D02*
X169619047Y-46731961D01*
X169619047Y-46731961D02*
X169523809Y-46827200D01*
X169523809Y-46827200D02*
X169380952Y-46874819D01*
X169380952Y-46874819D02*
X169142857Y-46874819D01*
X170142857Y-46874819D02*
X170142857Y-45874819D01*
X170142857Y-45874819D02*
X170523809Y-45874819D01*
X170523809Y-45874819D02*
X170619047Y-45922438D01*
X170619047Y-45922438D02*
X170666666Y-45970057D01*
X170666666Y-45970057D02*
X170714285Y-46065295D01*
X170714285Y-46065295D02*
X170714285Y-46208152D01*
X170714285Y-46208152D02*
X170666666Y-46303390D01*
X170666666Y-46303390D02*
X170619047Y-46351009D01*
X170619047Y-46351009D02*
X170523809Y-46398628D01*
X170523809Y-46398628D02*
X170142857Y-46398628D01*
X171666666Y-46874819D02*
X171095238Y-46874819D01*
X171380952Y-46874819D02*
X171380952Y-45874819D01*
X171380952Y-45874819D02*
X171285714Y-46017676D01*
X171285714Y-46017676D02*
X171190476Y-46112914D01*
X171190476Y-46112914D02*
X171095238Y-46160533D01*
D11*
%TO.C,RE1*%
X136430000Y-127580000D02*
X136430000Y-128060000D01*
X136430000Y-131420000D02*
X136430000Y-130940000D01*
X146570000Y-127580000D02*
X136430000Y-127580000D01*
X146570000Y-128060000D02*
X146570000Y-127580000D01*
X146570000Y-130940000D02*
X146570000Y-131420000D01*
X146570000Y-131420000D02*
X136430000Y-131420000D01*
%TO.C,RC1*%
X190080000Y-110080000D02*
X190080000Y-120220000D01*
X190080000Y-120220000D02*
X190560000Y-120220000D01*
X190560000Y-110080000D02*
X190080000Y-110080000D01*
X193440000Y-110080000D02*
X193920000Y-110080000D01*
X193920000Y-110080000D02*
X193920000Y-120220000D01*
X193920000Y-120220000D02*
X193440000Y-120220000D01*
%TO.C,U2*%
X98430000Y-55350000D02*
X102030000Y-55350000D01*
X98391522Y-55338478D02*
G75*
G02*
X100230000Y-50899999I1838478J1838478D01*
G01*
X100230000Y-50900000D02*
G75*
G02*
X102068478Y-55338478I0J-2600000D01*
G01*
%TO.C,RLED1*%
X202580000Y-53080000D02*
X212720000Y-53080000D01*
X202580000Y-53560000D02*
X202580000Y-53080000D01*
X202580000Y-56440000D02*
X202580000Y-56920000D01*
X202580000Y-56920000D02*
X212720000Y-56920000D01*
X212720000Y-53080000D02*
X212720000Y-53560000D01*
X212720000Y-56920000D02*
X212720000Y-56440000D01*
%TO.C,D1*%
X210670000Y-62455000D02*
X210670000Y-65545000D01*
X210670000Y-62455170D02*
G75*
G02*
X216220000Y-64000000I2560000J-1544830D01*
G01*
X216220000Y-64000000D02*
G75*
G02*
X210670000Y-65544830I-2990000J0D01*
G01*
X215730000Y-64000000D02*
G75*
G02*
X210730000Y-64000000I-2500000J0D01*
G01*
X210730000Y-64000000D02*
G75*
G02*
X215730000Y-64000000I2500000J0D01*
G01*
%TO.C,RF1*%
X114880000Y-42580000D02*
X114880000Y-43060000D01*
X114880000Y-46420000D02*
X114880000Y-45940000D01*
X125020000Y-42580000D02*
X114880000Y-42580000D01*
X125020000Y-43060000D02*
X125020000Y-42580000D01*
X125020000Y-45940000D02*
X125020000Y-46420000D01*
X125020000Y-46420000D02*
X114880000Y-46420000D01*
%TO.C,RG1*%
X141930000Y-42080000D02*
X141930000Y-42560000D01*
X141930000Y-45920000D02*
X141930000Y-45440000D01*
X152070000Y-42080000D02*
X141930000Y-42080000D01*
X152070000Y-42560000D02*
X152070000Y-42080000D01*
X152070000Y-45440000D02*
X152070000Y-45920000D01*
X152070000Y-45920000D02*
X141930000Y-45920000D01*
%TO.C,A1*%
X39300000Y-99720000D02*
X39300000Y-111400000D01*
X39300000Y-111400000D02*
X45650000Y-111400000D01*
X43750000Y-70510000D02*
X43750000Y-79650000D01*
X43750000Y-79650000D02*
X45650000Y-79650000D01*
X45650000Y-67330000D02*
X45650000Y-70510000D01*
X45650000Y-70510000D02*
X43750000Y-70510000D01*
X45650000Y-79650000D02*
X45650000Y-99720000D01*
X45650000Y-99720000D02*
X39300000Y-99720000D01*
X45650000Y-111400000D02*
X45650000Y-120930000D01*
X45650000Y-120930000D02*
X110300000Y-120930000D01*
X110300000Y-120930000D02*
X111950000Y-119280000D01*
X111950000Y-67330000D02*
X45650000Y-67330000D01*
X111950000Y-70000000D02*
X111950000Y-67330000D01*
X111950000Y-107850000D02*
X114490000Y-105310000D01*
X111950000Y-119280000D02*
X111950000Y-107850000D01*
X114490000Y-72540000D02*
X111950000Y-70000000D01*
X114490000Y-105310000D02*
X114490000Y-72540000D01*
%TO.C,U1*%
X121580000Y-77740000D02*
X121580000Y-58500000D01*
X121580000Y-77740000D02*
X172120000Y-77740000D01*
X139500000Y-77990000D02*
X141500000Y-77990000D01*
X172120000Y-58500000D02*
X121580000Y-58500000D01*
X172120000Y-77740000D02*
X172120000Y-58500000D01*
%TO.C,RD1*%
X153930000Y-127580000D02*
X153930000Y-128060000D01*
X153930000Y-131420000D02*
X153930000Y-130940000D01*
X164070000Y-127580000D02*
X153930000Y-127580000D01*
X164070000Y-128060000D02*
X164070000Y-127580000D01*
X164070000Y-130940000D02*
X164070000Y-131420000D01*
X164070000Y-131420000D02*
X153930000Y-131420000D01*
%TO.C,RB1*%
X190080000Y-85930000D02*
X190080000Y-96070000D01*
X190080000Y-96070000D02*
X190560000Y-96070000D01*
X190560000Y-85930000D02*
X190080000Y-85930000D01*
X193440000Y-85930000D02*
X193920000Y-85930000D01*
X193920000Y-85930000D02*
X193920000Y-96070000D01*
X193920000Y-96070000D02*
X193440000Y-96070000D01*
%TO.C,RA1*%
X189580000Y-67430000D02*
X189580000Y-77570000D01*
X189580000Y-77570000D02*
X190060000Y-77570000D01*
X190060000Y-67430000D02*
X189580000Y-67430000D01*
X192940000Y-67430000D02*
X193420000Y-67430000D01*
X193420000Y-67430000D02*
X193420000Y-77570000D01*
X193420000Y-77570000D02*
X192940000Y-77570000D01*
%TO.C,R_DP1*%
X164430000Y-41580000D02*
X164430000Y-42060000D01*
X164430000Y-45420000D02*
X164430000Y-44940000D01*
X174570000Y-41580000D02*
X164430000Y-41580000D01*
X174570000Y-42060000D02*
X174570000Y-41580000D01*
X174570000Y-44940000D02*
X174570000Y-45420000D01*
X174570000Y-45420000D02*
X164430000Y-45420000D01*
%TD*%
M02*
