M48
; DRILL file {KiCad 9.0.4} date 2025-12-30T13:47:49+0100
; FORMAT={-:-/ absolute / metric / decimal}
; #@! TF.CreationDate,2025-12-30T13:47:49+01:00
; #@! TF.GenerationSoftware,Kicad,Pcbnew,9.0.4
; #@! TF.FileFunction,Plated,1,2,PTH
FMAT,2
METRIC
; #@! TA.AperFunction,Plated,PTH,ViaDrill
T1C0.300
; #@! TA.AperFunction,Plated,PTH,ComponentDrill
T2C0.750
; #@! TA.AperFunction,Plated,PTH,ComponentDrill
T3C0.900
; #@! TA.AperFunction,Plated,PTH,ComponentDrill
T4C1.000
; #@! TA.AperFunction,Plated,PTH,ComponentDrill
T5C1.200
%
G90
G05
T1
X64.5Y-96.0
X120.5Y-52.5
X121.0Y-102.0
X124.5Y-98.5
X139.0Y-90.0
X139.0Y-99.0
X143.0Y-88.0
X146.0Y-85.0
X148.5Y-100.0
X151.5Y-80.5
X154.5Y-103.5
X157.0Y-96.0
X159.0Y-115.5
X177.0Y-56.5
X177.5Y-68.0
T2
X98.96Y-53.5
X100.23Y-53.5
X101.5Y-53.5
T3
X211.96Y-64.0
X214.5Y-64.0
T4
X64.58Y-118.26
X67.12Y-118.26
X69.66Y-118.26
X72.2Y-118.26
X73.72Y-70.0
X74.74Y-118.26
X76.26Y-70.0
X77.28Y-118.26
X78.8Y-70.0
X79.82Y-118.26
X81.34Y-70.0
X82.36Y-118.26
X83.88Y-70.0
X84.9Y-118.26
X86.42Y-70.0
X87.44Y-118.26
X88.96Y-70.0
X91.5Y-70.0
X91.5Y-118.26
X94.04Y-118.26
X96.58Y-70.0
X96.58Y-118.26
X99.12Y-70.0
X99.12Y-118.26
X101.66Y-70.0
X101.66Y-118.26
X104.2Y-70.0
X104.2Y-118.26
X106.74Y-70.0
X106.74Y-118.26
X109.28Y-70.0
X109.28Y-118.26
X140.5Y-60.5
X140.5Y-75.74
X143.04Y-60.5
X143.04Y-75.74
X145.58Y-60.5
X145.58Y-75.74
X148.12Y-60.5
X148.12Y-75.74
X150.66Y-60.5
X150.66Y-75.74
X153.2Y-60.5
X153.2Y-75.74
T5
X113.6Y-44.5
X126.3Y-44.5
X135.15Y-129.5
X140.65Y-44.0
X147.85Y-129.5
X152.65Y-129.5
X153.35Y-44.0
X163.15Y-43.5
X165.35Y-129.5
X175.85Y-43.5
X191.5Y-66.15
X191.5Y-78.85
X192.0Y-84.65
X192.0Y-97.35
X192.0Y-108.8
X192.0Y-121.5
X201.3Y-55.0
X214.0Y-55.0
M30
