%TF.GenerationSoftware,KiCad,Pcbnew,9.0.4*%
%TF.CreationDate,2025-12-30T13:48:10+01:00*%
%TF.ProjectId,Capteur_temperature,43617074-6575-4725-9f74-656d70657261,rev?*%
%TF.SameCoordinates,Original*%
%TF.FileFunction,Copper,L1,Top*%
%TF.FilePolarity,Positive*%
%FSLAX46Y46*%
G04 Gerber Fmt 4.6, Leading zero omitted, Abs format (unit mm)*
G04 Created by KiCad (PCBNEW 9.0.4) date 2025-12-30 13:48:10*
%MOMM*%
%LPD*%
G01*
G04 APERTURE LIST*
%TA.AperFunction,ComponentPad*%
%ADD10C,2.400000*%
%TD*%
%TA.AperFunction,ComponentPad*%
%ADD11R,1.050000X1.500000*%
%TD*%
%TA.AperFunction,ComponentPad*%
%ADD12O,1.050000X1.500000*%
%TD*%
%TA.AperFunction,ComponentPad*%
%ADD13R,1.800000X1.800000*%
%TD*%
%TA.AperFunction,ComponentPad*%
%ADD14C,1.800000*%
%TD*%
%TA.AperFunction,ComponentPad*%
%ADD15R,1.600000X1.600000*%
%TD*%
%TA.AperFunction,ComponentPad*%
%ADD16O,1.600000X1.600000*%
%TD*%
%TA.AperFunction,ComponentPad*%
%ADD17R,1.500000X1.500000*%
%TD*%
%TA.AperFunction,ComponentPad*%
%ADD18C,1.500000*%
%TD*%
%TA.AperFunction,ViaPad*%
%ADD19C,0.600000*%
%TD*%
%TA.AperFunction,Conductor*%
%ADD20C,0.200000*%
%TD*%
G04 APERTURE END LIST*
D10*
%TO.P,RE1,1*%
%TO.N,Net-(U1-e)*%
X147850000Y-129500000D03*
%TO.P,RE1,2*%
%TO.N,Net-(A1-D10)*%
X135150000Y-129500000D03*
%TD*%
%TO.P,RC1,1*%
%TO.N,Net-(U1-c)*%
X192000000Y-108800000D03*
%TO.P,RC1,2*%
%TO.N,Net-(A1-D8)*%
X192000000Y-121500000D03*
%TD*%
D11*
%TO.P,U2,1,+V_{S}*%
%TO.N,VS*%
X98960000Y-53500000D03*
D12*
%TO.P,U2,2,V_{OUT}*%
%TO.N,V_MESURE*%
X100230000Y-53500000D03*
%TO.P,U2,3,GND*%
%TO.N,GND*%
X101500000Y-53500000D03*
%TD*%
D10*
%TO.P,RLED1,1*%
%TO.N,CONTROL_OUT*%
X201300000Y-55000000D03*
%TO.P,RLED1,2*%
%TO.N,Net-(D1-A)*%
X214000000Y-55000000D03*
%TD*%
D13*
%TO.P,D1,1,K*%
%TO.N,GND*%
X211960000Y-64000000D03*
D14*
%TO.P,D1,2,A*%
%TO.N,Net-(D1-A)*%
X214500000Y-64000000D03*
%TD*%
D10*
%TO.P,RF1,1*%
%TO.N,Net-(U1-f)*%
X126300000Y-44500000D03*
%TO.P,RF1,2*%
%TO.N,Net-(A1-D11)*%
X113600000Y-44500000D03*
%TD*%
%TO.P,RG1,1*%
%TO.N,Net-(U1-g)*%
X153350000Y-44000000D03*
%TO.P,RG1,2*%
%TO.N,Net-(A1-D12)*%
X140650000Y-44000000D03*
%TD*%
D15*
%TO.P,A1,1,NC*%
%TO.N,unconnected-(A1-NC-Pad1)*%
X73720000Y-70000000D03*
D16*
%TO.P,A1,2,IOREF*%
%TO.N,unconnected-(A1-IOREF-Pad2)*%
X76260000Y-70000000D03*
%TO.P,A1,3,~{RESET}*%
%TO.N,unconnected-(A1-~{RESET}-Pad3)*%
X78800000Y-70000000D03*
%TO.P,A1,4,3V3*%
%TO.N,unconnected-(A1-3V3-Pad4)*%
X81340000Y-70000000D03*
%TO.P,A1,5,+5V*%
%TO.N,VS*%
X83880000Y-70000000D03*
%TO.P,A1,6,GND*%
%TO.N,unconnected-(A1-GND-Pad6)*%
X86420000Y-70000000D03*
%TO.P,A1,7,GND*%
%TO.N,unconnected-(A1-GND-Pad7)*%
X88960000Y-70000000D03*
%TO.P,A1,8,VIN*%
%TO.N,unconnected-(A1-VIN-Pad8)*%
X91500000Y-70000000D03*
%TO.P,A1,9,A0*%
%TO.N,V_MESURE*%
X96580000Y-70000000D03*
%TO.P,A1,10,A1*%
%TO.N,unconnected-(A1-A1-Pad10)*%
X99120000Y-70000000D03*
%TO.P,A1,11,A2*%
%TO.N,unconnected-(A1-A2-Pad11)*%
X101660000Y-70000000D03*
%TO.P,A1,12,A3*%
%TO.N,unconnected-(A1-A3-Pad12)*%
X104200000Y-70000000D03*
%TO.P,A1,13,SDA/A4*%
%TO.N,unconnected-(A1-SDA{slash}A4-Pad13)*%
X106740000Y-70000000D03*
%TO.P,A1,14,SCL/A5*%
%TO.N,unconnected-(A1-SCL{slash}A5-Pad14)*%
X109280000Y-70000000D03*
%TO.P,A1,15,D0/RX*%
%TO.N,unconnected-(A1-D0{slash}RX-Pad15)*%
X109280000Y-118260000D03*
%TO.P,A1,16,D1/TX*%
%TO.N,CONTROL_OUT*%
X106740000Y-118260000D03*
%TO.P,A1,17,D2*%
%TO.N,DIG1*%
X104200000Y-118260000D03*
%TO.P,A1,18,D3*%
%TO.N,DIG2*%
X101660000Y-118260000D03*
%TO.P,A1,19,D4*%
%TO.N,DIG3*%
X99120000Y-118260000D03*
%TO.P,A1,20,D5*%
%TO.N,DIG4*%
X96580000Y-118260000D03*
%TO.P,A1,21,D6*%
%TO.N,Net-(A1-D6)*%
X94040000Y-118260000D03*
%TO.P,A1,22,D7*%
%TO.N,Net-(A1-D7)*%
X91500000Y-118260000D03*
%TO.P,A1,23,D8*%
%TO.N,Net-(A1-D8)*%
X87440000Y-118260000D03*
%TO.P,A1,24,D9*%
%TO.N,Net-(A1-D9)*%
X84900000Y-118260000D03*
%TO.P,A1,25,D10*%
%TO.N,Net-(A1-D10)*%
X82360000Y-118260000D03*
%TO.P,A1,26,D11*%
%TO.N,Net-(A1-D11)*%
X79820000Y-118260000D03*
%TO.P,A1,27,D12*%
%TO.N,Net-(A1-D12)*%
X77280000Y-118260000D03*
%TO.P,A1,28,D13*%
%TO.N,Net-(A1-D13)*%
X74740000Y-118260000D03*
%TO.P,A1,29,GND*%
%TO.N,unconnected-(A1-GND-Pad29)*%
X72200000Y-118260000D03*
%TO.P,A1,30,AREF*%
%TO.N,unconnected-(A1-AREF-Pad30)*%
X69660000Y-118260000D03*
%TO.P,A1,31,SDA/A4*%
%TO.N,unconnected-(A1-SDA{slash}A4-Pad31)*%
X67120000Y-118260000D03*
%TO.P,A1,32,SCL/A5*%
%TO.N,unconnected-(A1-SCL{slash}A5-Pad32)*%
X64580000Y-118260000D03*
%TD*%
D17*
%TO.P,U1,1,e*%
%TO.N,Net-(U1-e)*%
X140500000Y-75740000D03*
D18*
%TO.P,U1,2,d*%
%TO.N,Net-(U1-d)*%
X143040000Y-75740000D03*
%TO.P,U1,3,DPX*%
%TO.N,Net-(U1-DPX)*%
X145580000Y-75740000D03*
%TO.P,U1,4,c*%
%TO.N,Net-(U1-c)*%
X148120000Y-75740000D03*
%TO.P,U1,5,g*%
%TO.N,Net-(U1-g)*%
X150660000Y-75740000D03*
%TO.P,U1,6,CC4*%
%TO.N,DIG4*%
X153200000Y-75740000D03*
%TO.P,U1,7,b*%
%TO.N,Net-(U1-b)*%
X153200000Y-60500000D03*
%TO.P,U1,8,CC3*%
%TO.N,DIG3*%
X150660000Y-60500000D03*
%TO.P,U1,9,CC2*%
%TO.N,DIG2*%
X148120000Y-60500000D03*
%TO.P,U1,10,f*%
%TO.N,Net-(U1-f)*%
X145580000Y-60500000D03*
%TO.P,U1,11,a*%
%TO.N,Net-(U1-a)*%
X143040000Y-60500000D03*
%TO.P,U1,12,CC1*%
%TO.N,DIG1*%
X140500000Y-60500000D03*
%TD*%
D10*
%TO.P,RD1,1*%
%TO.N,Net-(U1-d)*%
X165350000Y-129500000D03*
%TO.P,RD1,2*%
%TO.N,Net-(A1-D9)*%
X152650000Y-129500000D03*
%TD*%
%TO.P,RB1,1*%
%TO.N,Net-(U1-b)*%
X192000000Y-84650000D03*
%TO.P,RB1,2*%
%TO.N,Net-(A1-D7)*%
X192000000Y-97350000D03*
%TD*%
%TO.P,RA1,1*%
%TO.N,Net-(U1-a)*%
X191500000Y-66150000D03*
%TO.P,RA1,2*%
%TO.N,Net-(A1-D6)*%
X191500000Y-78850000D03*
%TD*%
%TO.P,R_DP1,1*%
%TO.N,Net-(U1-DPX)*%
X175850000Y-43500000D03*
%TO.P,R_DP1,2*%
%TO.N,Net-(A1-D13)*%
X163150000Y-43500000D03*
%TD*%
D19*
%TO.N,DIG4*%
X146000000Y-85000000D03*
X143000000Y-88000000D03*
X124500000Y-98500000D03*
X151500000Y-80500000D03*
%TO.N,Net-(A1-D13)*%
X120500000Y-52500000D03*
X64500000Y-96000000D03*
%TO.N,DIG1*%
X139000000Y-99000000D03*
X139000000Y-90000000D03*
%TO.N,DIG3*%
X121000000Y-102000000D03*
%TO.N,Net-(A1-D6)*%
X154500000Y-103500000D03*
%TO.N,Net-(U1-d)*%
X157000000Y-96000000D03*
X159000000Y-115500000D03*
%TO.N,Net-(U1-e)*%
X148500000Y-100000000D03*
%TO.N,Net-(U1-DPX)*%
X177000000Y-56500000D03*
X177500000Y-68000000D03*
%TD*%
D20*
%TO.N,DIG4*%
X135000000Y-88000000D02*
X143000000Y-88000000D01*
X147000000Y-85000000D02*
X151500000Y-80500000D01*
X146000000Y-85000000D02*
X147000000Y-85000000D01*
X124500000Y-98500000D02*
X135000000Y-88000000D01*
%TO.N,CONTROL_OUT*%
X106740000Y-113260000D02*
X106740000Y-118260000D01*
X193000000Y-116500000D02*
X119500000Y-116500000D01*
X198500000Y-57800000D02*
X198500000Y-111000000D01*
X119500000Y-116500000D02*
X114000000Y-111000000D01*
X198500000Y-111000000D02*
X193000000Y-116500000D01*
X201300000Y-55000000D02*
X198500000Y-57800000D01*
X109000000Y-111000000D02*
X106740000Y-113260000D01*
X114000000Y-111000000D02*
X109000000Y-111000000D01*
%TO.N,V_MESURE*%
X100230000Y-61270000D02*
X96580000Y-64920000D01*
X96580000Y-64920000D02*
X96580000Y-70000000D01*
X100230000Y-53500000D02*
X100230000Y-61270000D01*
%TO.N,Net-(A1-D8)*%
X125000000Y-120500000D02*
X122500000Y-123000000D01*
X150099000Y-124099000D02*
X146500000Y-120500000D01*
X122500000Y-123000000D02*
X92180000Y-123000000D01*
X189401000Y-124099000D02*
X150099000Y-124099000D01*
X92180000Y-123000000D02*
X87440000Y-118260000D01*
X146500000Y-120500000D02*
X125000000Y-120500000D01*
X192000000Y-121500000D02*
X189401000Y-124099000D01*
%TO.N,VS*%
X98960000Y-54920000D02*
X83880000Y-70000000D01*
X98960000Y-53500000D02*
X98960000Y-54920000D01*
%TO.N,DIG2*%
X124500000Y-73000000D02*
X124500000Y-78500000D01*
X90000000Y-119500000D02*
X91000000Y-120500000D01*
X124500000Y-78500000D02*
X90000000Y-113000000D01*
X90000000Y-113000000D02*
X90000000Y-119500000D01*
X91000000Y-120500000D02*
X99420000Y-120500000D01*
X99420000Y-120500000D02*
X101660000Y-118260000D01*
X135620000Y-73000000D02*
X124500000Y-73000000D01*
X148120000Y-60500000D02*
X135620000Y-73000000D01*
%TO.N,Net-(A1-D13)*%
X120500000Y-52500000D02*
X120500000Y-74374900D01*
X120500000Y-74374900D02*
X98874900Y-96000000D01*
X98874900Y-96000000D02*
X64500000Y-96000000D01*
%TO.N,Net-(A1-D11)*%
X73000000Y-62500000D02*
X63500000Y-62500000D01*
X91000000Y-44500000D02*
X73000000Y-62500000D01*
X63500000Y-62500000D02*
X63500000Y-98500000D01*
X113600000Y-44500000D02*
X91000000Y-44500000D01*
X63500000Y-98500000D02*
X79820000Y-114820000D01*
X79820000Y-114820000D02*
X79820000Y-118260000D01*
%TO.N,Net-(A1-D10)*%
X135150000Y-129500000D02*
X87500000Y-129500000D01*
X86500000Y-128500000D02*
X86500000Y-126000000D01*
X82360000Y-121860000D02*
X82360000Y-118260000D01*
X87500000Y-129500000D02*
X86500000Y-128500000D01*
X86500000Y-126000000D02*
X82360000Y-121860000D01*
%TO.N,DIG1*%
X139000000Y-90000000D02*
X139000000Y-99000000D01*
%TO.N,DIG3*%
X121000000Y-90160000D02*
X121000000Y-102000000D01*
X150660000Y-60500000D02*
X121000000Y-90160000D01*
%TO.N,Net-(A1-D9)*%
X84900000Y-118260000D02*
X84900000Y-120900000D01*
X147650000Y-124500000D02*
X152650000Y-129500000D01*
X88500000Y-124500000D02*
X147650000Y-124500000D01*
X84900000Y-120900000D02*
X88500000Y-124500000D01*
%TO.N,Net-(A1-D6)*%
X108800000Y-103500000D02*
X154500000Y-103500000D01*
X94040000Y-118260000D02*
X108800000Y-103500000D01*
%TO.N,Net-(U1-b)*%
X167850000Y-60500000D02*
X192000000Y-84650000D01*
X153200000Y-60500000D02*
X167850000Y-60500000D01*
%TO.N,Net-(U1-c)*%
X148120000Y-75740000D02*
X181180000Y-108800000D01*
X181180000Y-108800000D02*
X192000000Y-108800000D01*
%TO.N,Net-(U1-d)*%
X158500000Y-115000000D02*
X159000000Y-115500000D01*
X157000000Y-96000000D02*
X157000000Y-113500000D01*
X157000000Y-113500000D02*
X158500000Y-115000000D01*
%TO.N,Net-(U1-e)*%
X140500000Y-81500000D02*
X140500000Y-75740000D01*
X148500000Y-89500000D02*
X140500000Y-81500000D01*
X148500000Y-100000000D02*
X148500000Y-89500000D01*
%TO.N,Net-(U1-f)*%
X145580000Y-60500000D02*
X145580000Y-56580000D01*
X145580000Y-56580000D02*
X133500000Y-44500000D01*
X133500000Y-44500000D02*
X126300000Y-44500000D01*
%TO.N,Net-(U1-g)*%
X153350000Y-44000000D02*
X153350000Y-56150000D01*
X152000000Y-74400000D02*
X150660000Y-75740000D01*
X152000000Y-57500000D02*
X152000000Y-74400000D01*
X153350000Y-56150000D02*
X152000000Y-57500000D01*
%TO.N,Net-(U1-DPX)*%
X177000000Y-56500000D02*
X177500000Y-57000000D01*
X177500000Y-57000000D02*
X177500000Y-68000000D01*
%TD*%
M02*
