%TF.GenerationSoftware,KiCad,Pcbnew,9.0.5*%
%TF.CreationDate,2025-10-25T15:08:27+02:00*%
%TF.ProjectId,Timmer-555-monostable,54696d6d-6572-42d3-9535-352d6d6f6e6f,rev?*%
%TF.SameCoordinates,Original*%
%TF.FileFunction,Legend,Top*%
%TF.FilePolarity,Positive*%
%FSLAX46Y46*%
G04 Gerber Fmt 4.6, Leading zero omitted, Abs format (unit mm)*
G04 Created by KiCad (PCBNEW 9.0.5) date 2025-10-25 15:08:27*
%MOMM*%
%LPD*%
G01*
G04 APERTURE LIST*
%ADD10C,0.200000*%
%ADD11C,0.150000*%
%ADD12C,0.120000*%
G04 APERTURE END LIST*
D10*
X140441101Y-25271980D02*
X140393482Y-25319600D01*
X140393482Y-25319600D02*
X140250625Y-25367219D01*
X140250625Y-25367219D02*
X140155387Y-25367219D01*
X140155387Y-25367219D02*
X140012530Y-25319600D01*
X140012530Y-25319600D02*
X139917292Y-25224361D01*
X139917292Y-25224361D02*
X139869673Y-25129123D01*
X139869673Y-25129123D02*
X139822054Y-24938647D01*
X139822054Y-24938647D02*
X139822054Y-24795790D01*
X139822054Y-24795790D02*
X139869673Y-24605314D01*
X139869673Y-24605314D02*
X139917292Y-24510076D01*
X139917292Y-24510076D02*
X140012530Y-24414838D01*
X140012530Y-24414838D02*
X140155387Y-24367219D01*
X140155387Y-24367219D02*
X140250625Y-24367219D01*
X140250625Y-24367219D02*
X140393482Y-24414838D01*
X140393482Y-24414838D02*
X140441101Y-24462457D01*
X140869673Y-25367219D02*
X140869673Y-24700552D01*
X140869673Y-24367219D02*
X140822054Y-24414838D01*
X140822054Y-24414838D02*
X140869673Y-24462457D01*
X140869673Y-24462457D02*
X140917292Y-24414838D01*
X140917292Y-24414838D02*
X140869673Y-24367219D01*
X140869673Y-24367219D02*
X140869673Y-24462457D01*
X141345863Y-25367219D02*
X141345863Y-24700552D01*
X141345863Y-24891028D02*
X141393482Y-24795790D01*
X141393482Y-24795790D02*
X141441101Y-24748171D01*
X141441101Y-24748171D02*
X141536339Y-24700552D01*
X141536339Y-24700552D02*
X141631577Y-24700552D01*
X142393482Y-25319600D02*
X142298244Y-25367219D01*
X142298244Y-25367219D02*
X142107768Y-25367219D01*
X142107768Y-25367219D02*
X142012530Y-25319600D01*
X142012530Y-25319600D02*
X141964911Y-25271980D01*
X141964911Y-25271980D02*
X141917292Y-25176742D01*
X141917292Y-25176742D02*
X141917292Y-24891028D01*
X141917292Y-24891028D02*
X141964911Y-24795790D01*
X141964911Y-24795790D02*
X142012530Y-24748171D01*
X142012530Y-24748171D02*
X142107768Y-24700552D01*
X142107768Y-24700552D02*
X142298244Y-24700552D01*
X142298244Y-24700552D02*
X142393482Y-24748171D01*
X143250625Y-24700552D02*
X143250625Y-25367219D01*
X142822054Y-24700552D02*
X142822054Y-25224361D01*
X142822054Y-25224361D02*
X142869673Y-25319600D01*
X142869673Y-25319600D02*
X142964911Y-25367219D01*
X142964911Y-25367219D02*
X143107768Y-25367219D01*
X143107768Y-25367219D02*
X143203006Y-25319600D01*
X143203006Y-25319600D02*
X143250625Y-25271980D01*
X143726816Y-25367219D02*
X143726816Y-24700552D01*
X143726816Y-24367219D02*
X143679197Y-24414838D01*
X143679197Y-24414838D02*
X143726816Y-24462457D01*
X143726816Y-24462457D02*
X143774435Y-24414838D01*
X143774435Y-24414838D02*
X143726816Y-24367219D01*
X143726816Y-24367219D02*
X143726816Y-24462457D01*
X144060149Y-24700552D02*
X144441101Y-24700552D01*
X144203006Y-24367219D02*
X144203006Y-25224361D01*
X144203006Y-25224361D02*
X144250625Y-25319600D01*
X144250625Y-25319600D02*
X144345863Y-25367219D01*
X144345863Y-25367219D02*
X144441101Y-25367219D01*
X146298245Y-25367219D02*
X146298245Y-24367219D01*
X146298245Y-24367219D02*
X146869673Y-25367219D01*
X146869673Y-25367219D02*
X146869673Y-24367219D01*
X147345864Y-24843409D02*
X147679197Y-24843409D01*
X147822054Y-25367219D02*
X147345864Y-25367219D01*
X147345864Y-25367219D02*
X147345864Y-24367219D01*
X147345864Y-24367219D02*
X147822054Y-24367219D01*
X148726816Y-24367219D02*
X148250626Y-24367219D01*
X148250626Y-24367219D02*
X148203007Y-24843409D01*
X148203007Y-24843409D02*
X148250626Y-24795790D01*
X148250626Y-24795790D02*
X148345864Y-24748171D01*
X148345864Y-24748171D02*
X148583959Y-24748171D01*
X148583959Y-24748171D02*
X148679197Y-24795790D01*
X148679197Y-24795790D02*
X148726816Y-24843409D01*
X148726816Y-24843409D02*
X148774435Y-24938647D01*
X148774435Y-24938647D02*
X148774435Y-25176742D01*
X148774435Y-25176742D02*
X148726816Y-25271980D01*
X148726816Y-25271980D02*
X148679197Y-25319600D01*
X148679197Y-25319600D02*
X148583959Y-25367219D01*
X148583959Y-25367219D02*
X148345864Y-25367219D01*
X148345864Y-25367219D02*
X148250626Y-25319600D01*
X148250626Y-25319600D02*
X148203007Y-25271980D01*
X149679197Y-24367219D02*
X149203007Y-24367219D01*
X149203007Y-24367219D02*
X149155388Y-24843409D01*
X149155388Y-24843409D02*
X149203007Y-24795790D01*
X149203007Y-24795790D02*
X149298245Y-24748171D01*
X149298245Y-24748171D02*
X149536340Y-24748171D01*
X149536340Y-24748171D02*
X149631578Y-24795790D01*
X149631578Y-24795790D02*
X149679197Y-24843409D01*
X149679197Y-24843409D02*
X149726816Y-24938647D01*
X149726816Y-24938647D02*
X149726816Y-25176742D01*
X149726816Y-25176742D02*
X149679197Y-25271980D01*
X149679197Y-25271980D02*
X149631578Y-25319600D01*
X149631578Y-25319600D02*
X149536340Y-25367219D01*
X149536340Y-25367219D02*
X149298245Y-25367219D01*
X149298245Y-25367219D02*
X149203007Y-25319600D01*
X149203007Y-25319600D02*
X149155388Y-25271980D01*
X150631578Y-24367219D02*
X150155388Y-24367219D01*
X150155388Y-24367219D02*
X150107769Y-24843409D01*
X150107769Y-24843409D02*
X150155388Y-24795790D01*
X150155388Y-24795790D02*
X150250626Y-24748171D01*
X150250626Y-24748171D02*
X150488721Y-24748171D01*
X150488721Y-24748171D02*
X150583959Y-24795790D01*
X150583959Y-24795790D02*
X150631578Y-24843409D01*
X150631578Y-24843409D02*
X150679197Y-24938647D01*
X150679197Y-24938647D02*
X150679197Y-25176742D01*
X150679197Y-25176742D02*
X150631578Y-25271980D01*
X150631578Y-25271980D02*
X150583959Y-25319600D01*
X150583959Y-25319600D02*
X150488721Y-25367219D01*
X150488721Y-25367219D02*
X150250626Y-25367219D01*
X150250626Y-25367219D02*
X150155388Y-25319600D01*
X150155388Y-25319600D02*
X150107769Y-25271980D01*
X151869674Y-25367219D02*
X151869674Y-24700552D01*
X151869674Y-24795790D02*
X151917293Y-24748171D01*
X151917293Y-24748171D02*
X152012531Y-24700552D01*
X152012531Y-24700552D02*
X152155388Y-24700552D01*
X152155388Y-24700552D02*
X152250626Y-24748171D01*
X152250626Y-24748171D02*
X152298245Y-24843409D01*
X152298245Y-24843409D02*
X152298245Y-25367219D01*
X152298245Y-24843409D02*
X152345864Y-24748171D01*
X152345864Y-24748171D02*
X152441102Y-24700552D01*
X152441102Y-24700552D02*
X152583959Y-24700552D01*
X152583959Y-24700552D02*
X152679198Y-24748171D01*
X152679198Y-24748171D02*
X152726817Y-24843409D01*
X152726817Y-24843409D02*
X152726817Y-25367219D01*
X153345864Y-25367219D02*
X153250626Y-25319600D01*
X153250626Y-25319600D02*
X153203007Y-25271980D01*
X153203007Y-25271980D02*
X153155388Y-25176742D01*
X153155388Y-25176742D02*
X153155388Y-24891028D01*
X153155388Y-24891028D02*
X153203007Y-24795790D01*
X153203007Y-24795790D02*
X153250626Y-24748171D01*
X153250626Y-24748171D02*
X153345864Y-24700552D01*
X153345864Y-24700552D02*
X153488721Y-24700552D01*
X153488721Y-24700552D02*
X153583959Y-24748171D01*
X153583959Y-24748171D02*
X153631578Y-24795790D01*
X153631578Y-24795790D02*
X153679197Y-24891028D01*
X153679197Y-24891028D02*
X153679197Y-25176742D01*
X153679197Y-25176742D02*
X153631578Y-25271980D01*
X153631578Y-25271980D02*
X153583959Y-25319600D01*
X153583959Y-25319600D02*
X153488721Y-25367219D01*
X153488721Y-25367219D02*
X153345864Y-25367219D01*
X154107769Y-24700552D02*
X154107769Y-25367219D01*
X154107769Y-24795790D02*
X154155388Y-24748171D01*
X154155388Y-24748171D02*
X154250626Y-24700552D01*
X154250626Y-24700552D02*
X154393483Y-24700552D01*
X154393483Y-24700552D02*
X154488721Y-24748171D01*
X154488721Y-24748171D02*
X154536340Y-24843409D01*
X154536340Y-24843409D02*
X154536340Y-25367219D01*
X155155388Y-25367219D02*
X155060150Y-25319600D01*
X155060150Y-25319600D02*
X155012531Y-25271980D01*
X155012531Y-25271980D02*
X154964912Y-25176742D01*
X154964912Y-25176742D02*
X154964912Y-24891028D01*
X154964912Y-24891028D02*
X155012531Y-24795790D01*
X155012531Y-24795790D02*
X155060150Y-24748171D01*
X155060150Y-24748171D02*
X155155388Y-24700552D01*
X155155388Y-24700552D02*
X155298245Y-24700552D01*
X155298245Y-24700552D02*
X155393483Y-24748171D01*
X155393483Y-24748171D02*
X155441102Y-24795790D01*
X155441102Y-24795790D02*
X155488721Y-24891028D01*
X155488721Y-24891028D02*
X155488721Y-25176742D01*
X155488721Y-25176742D02*
X155441102Y-25271980D01*
X155441102Y-25271980D02*
X155393483Y-25319600D01*
X155393483Y-25319600D02*
X155298245Y-25367219D01*
X155298245Y-25367219D02*
X155155388Y-25367219D01*
X155869674Y-25319600D02*
X155964912Y-25367219D01*
X155964912Y-25367219D02*
X156155388Y-25367219D01*
X156155388Y-25367219D02*
X156250626Y-25319600D01*
X156250626Y-25319600D02*
X156298245Y-25224361D01*
X156298245Y-25224361D02*
X156298245Y-25176742D01*
X156298245Y-25176742D02*
X156250626Y-25081504D01*
X156250626Y-25081504D02*
X156155388Y-25033885D01*
X156155388Y-25033885D02*
X156012531Y-25033885D01*
X156012531Y-25033885D02*
X155917293Y-24986266D01*
X155917293Y-24986266D02*
X155869674Y-24891028D01*
X155869674Y-24891028D02*
X155869674Y-24843409D01*
X155869674Y-24843409D02*
X155917293Y-24748171D01*
X155917293Y-24748171D02*
X156012531Y-24700552D01*
X156012531Y-24700552D02*
X156155388Y-24700552D01*
X156155388Y-24700552D02*
X156250626Y-24748171D01*
X156583960Y-24700552D02*
X156964912Y-24700552D01*
X156726817Y-24367219D02*
X156726817Y-25224361D01*
X156726817Y-25224361D02*
X156774436Y-25319600D01*
X156774436Y-25319600D02*
X156869674Y-25367219D01*
X156869674Y-25367219D02*
X156964912Y-25367219D01*
X157726817Y-25367219D02*
X157726817Y-24843409D01*
X157726817Y-24843409D02*
X157679198Y-24748171D01*
X157679198Y-24748171D02*
X157583960Y-24700552D01*
X157583960Y-24700552D02*
X157393484Y-24700552D01*
X157393484Y-24700552D02*
X157298246Y-24748171D01*
X157726817Y-25319600D02*
X157631579Y-25367219D01*
X157631579Y-25367219D02*
X157393484Y-25367219D01*
X157393484Y-25367219D02*
X157298246Y-25319600D01*
X157298246Y-25319600D02*
X157250627Y-25224361D01*
X157250627Y-25224361D02*
X157250627Y-25129123D01*
X157250627Y-25129123D02*
X157298246Y-25033885D01*
X157298246Y-25033885D02*
X157393484Y-24986266D01*
X157393484Y-24986266D02*
X157631579Y-24986266D01*
X157631579Y-24986266D02*
X157726817Y-24938647D01*
X158203008Y-25367219D02*
X158203008Y-24367219D01*
X158203008Y-24748171D02*
X158298246Y-24700552D01*
X158298246Y-24700552D02*
X158488722Y-24700552D01*
X158488722Y-24700552D02*
X158583960Y-24748171D01*
X158583960Y-24748171D02*
X158631579Y-24795790D01*
X158631579Y-24795790D02*
X158679198Y-24891028D01*
X158679198Y-24891028D02*
X158679198Y-25176742D01*
X158679198Y-25176742D02*
X158631579Y-25271980D01*
X158631579Y-25271980D02*
X158583960Y-25319600D01*
X158583960Y-25319600D02*
X158488722Y-25367219D01*
X158488722Y-25367219D02*
X158298246Y-25367219D01*
X158298246Y-25367219D02*
X158203008Y-25319600D01*
X159250627Y-25367219D02*
X159155389Y-25319600D01*
X159155389Y-25319600D02*
X159107770Y-25224361D01*
X159107770Y-25224361D02*
X159107770Y-24367219D01*
X160012532Y-25319600D02*
X159917294Y-25367219D01*
X159917294Y-25367219D02*
X159726818Y-25367219D01*
X159726818Y-25367219D02*
X159631580Y-25319600D01*
X159631580Y-25319600D02*
X159583961Y-25224361D01*
X159583961Y-25224361D02*
X159583961Y-24843409D01*
X159583961Y-24843409D02*
X159631580Y-24748171D01*
X159631580Y-24748171D02*
X159726818Y-24700552D01*
X159726818Y-24700552D02*
X159917294Y-24700552D01*
X159917294Y-24700552D02*
X160012532Y-24748171D01*
X160012532Y-24748171D02*
X160060151Y-24843409D01*
X160060151Y-24843409D02*
X160060151Y-24938647D01*
X160060151Y-24938647D02*
X159583961Y-25033885D01*
D11*
X95657200Y-58261904D02*
X95704819Y-58119047D01*
X95704819Y-58119047D02*
X95704819Y-57880952D01*
X95704819Y-57880952D02*
X95657200Y-57785714D01*
X95657200Y-57785714D02*
X95609580Y-57738095D01*
X95609580Y-57738095D02*
X95514342Y-57690476D01*
X95514342Y-57690476D02*
X95419104Y-57690476D01*
X95419104Y-57690476D02*
X95323866Y-57738095D01*
X95323866Y-57738095D02*
X95276247Y-57785714D01*
X95276247Y-57785714D02*
X95228628Y-57880952D01*
X95228628Y-57880952D02*
X95181009Y-58071428D01*
X95181009Y-58071428D02*
X95133390Y-58166666D01*
X95133390Y-58166666D02*
X95085771Y-58214285D01*
X95085771Y-58214285D02*
X94990533Y-58261904D01*
X94990533Y-58261904D02*
X94895295Y-58261904D01*
X94895295Y-58261904D02*
X94800057Y-58214285D01*
X94800057Y-58214285D02*
X94752438Y-58166666D01*
X94752438Y-58166666D02*
X94704819Y-58071428D01*
X94704819Y-58071428D02*
X94704819Y-57833333D01*
X94704819Y-57833333D02*
X94752438Y-57690476D01*
X95704819Y-56738095D02*
X95704819Y-57309523D01*
X95704819Y-57023809D02*
X94704819Y-57023809D01*
X94704819Y-57023809D02*
X94847676Y-57119047D01*
X94847676Y-57119047D02*
X94942914Y-57214285D01*
X94942914Y-57214285D02*
X94990533Y-57309523D01*
X152027200Y-44503332D02*
X152074819Y-44360475D01*
X152074819Y-44360475D02*
X152074819Y-44122380D01*
X152074819Y-44122380D02*
X152027200Y-44027142D01*
X152027200Y-44027142D02*
X151979580Y-43979523D01*
X151979580Y-43979523D02*
X151884342Y-43931904D01*
X151884342Y-43931904D02*
X151789104Y-43931904D01*
X151789104Y-43931904D02*
X151693866Y-43979523D01*
X151693866Y-43979523D02*
X151646247Y-44027142D01*
X151646247Y-44027142D02*
X151598628Y-44122380D01*
X151598628Y-44122380D02*
X151551009Y-44312856D01*
X151551009Y-44312856D02*
X151503390Y-44408094D01*
X151503390Y-44408094D02*
X151455771Y-44455713D01*
X151455771Y-44455713D02*
X151360533Y-44503332D01*
X151360533Y-44503332D02*
X151265295Y-44503332D01*
X151265295Y-44503332D02*
X151170057Y-44455713D01*
X151170057Y-44455713D02*
X151122438Y-44408094D01*
X151122438Y-44408094D02*
X151074819Y-44312856D01*
X151074819Y-44312856D02*
X151074819Y-44074761D01*
X151074819Y-44074761D02*
X151122438Y-43931904D01*
X151074819Y-43598570D02*
X152074819Y-43360475D01*
X152074819Y-43360475D02*
X151360533Y-43169999D01*
X151360533Y-43169999D02*
X152074819Y-42979523D01*
X152074819Y-42979523D02*
X151074819Y-42741428D01*
X151074819Y-42169999D02*
X151074819Y-42074761D01*
X151074819Y-42074761D02*
X151122438Y-41979523D01*
X151122438Y-41979523D02*
X151170057Y-41931904D01*
X151170057Y-41931904D02*
X151265295Y-41884285D01*
X151265295Y-41884285D02*
X151455771Y-41836666D01*
X151455771Y-41836666D02*
X151693866Y-41836666D01*
X151693866Y-41836666D02*
X151884342Y-41884285D01*
X151884342Y-41884285D02*
X151979580Y-41931904D01*
X151979580Y-41931904D02*
X152027200Y-41979523D01*
X152027200Y-41979523D02*
X152074819Y-42074761D01*
X152074819Y-42074761D02*
X152074819Y-42169999D01*
X152074819Y-42169999D02*
X152027200Y-42265237D01*
X152027200Y-42265237D02*
X151979580Y-42312856D01*
X151979580Y-42312856D02*
X151884342Y-42360475D01*
X151884342Y-42360475D02*
X151693866Y-42408094D01*
X151693866Y-42408094D02*
X151455771Y-42408094D01*
X151455771Y-42408094D02*
X151265295Y-42360475D01*
X151265295Y-42360475D02*
X151170057Y-42312856D01*
X151170057Y-42312856D02*
X151122438Y-42265237D01*
X151122438Y-42265237D02*
X151074819Y-42169999D01*
X134965656Y-25109580D02*
X134918037Y-25157200D01*
X134918037Y-25157200D02*
X134775180Y-25204819D01*
X134775180Y-25204819D02*
X134679942Y-25204819D01*
X134679942Y-25204819D02*
X134537085Y-25157200D01*
X134537085Y-25157200D02*
X134441847Y-25061961D01*
X134441847Y-25061961D02*
X134394228Y-24966723D01*
X134394228Y-24966723D02*
X134346609Y-24776247D01*
X134346609Y-24776247D02*
X134346609Y-24633390D01*
X134346609Y-24633390D02*
X134394228Y-24442914D01*
X134394228Y-24442914D02*
X134441847Y-24347676D01*
X134441847Y-24347676D02*
X134537085Y-24252438D01*
X134537085Y-24252438D02*
X134679942Y-24204819D01*
X134679942Y-24204819D02*
X134775180Y-24204819D01*
X134775180Y-24204819D02*
X134918037Y-24252438D01*
X134918037Y-24252438D02*
X134965656Y-24300057D01*
X135918037Y-25204819D02*
X135346609Y-25204819D01*
X135632323Y-25204819D02*
X135632323Y-24204819D01*
X135632323Y-24204819D02*
X135537085Y-24347676D01*
X135537085Y-24347676D02*
X135441847Y-24442914D01*
X135441847Y-24442914D02*
X135346609Y-24490533D01*
X105324819Y-42119047D02*
X104848628Y-42452380D01*
X105324819Y-42690475D02*
X104324819Y-42690475D01*
X104324819Y-42690475D02*
X104324819Y-42309523D01*
X104324819Y-42309523D02*
X104372438Y-42214285D01*
X104372438Y-42214285D02*
X104420057Y-42166666D01*
X104420057Y-42166666D02*
X104515295Y-42119047D01*
X104515295Y-42119047D02*
X104658152Y-42119047D01*
X104658152Y-42119047D02*
X104753390Y-42166666D01*
X104753390Y-42166666D02*
X104801009Y-42214285D01*
X104801009Y-42214285D02*
X104848628Y-42309523D01*
X104848628Y-42309523D02*
X104848628Y-42690475D01*
X104658152Y-41690475D02*
X105658152Y-41690475D01*
X104705771Y-41690475D02*
X104658152Y-41595237D01*
X104658152Y-41595237D02*
X104658152Y-41404761D01*
X104658152Y-41404761D02*
X104705771Y-41309523D01*
X104705771Y-41309523D02*
X104753390Y-41261904D01*
X104753390Y-41261904D02*
X104848628Y-41214285D01*
X104848628Y-41214285D02*
X105134342Y-41214285D01*
X105134342Y-41214285D02*
X105229580Y-41261904D01*
X105229580Y-41261904D02*
X105277200Y-41309523D01*
X105277200Y-41309523D02*
X105324819Y-41404761D01*
X105324819Y-41404761D02*
X105324819Y-41595237D01*
X105324819Y-41595237D02*
X105277200Y-41690475D01*
X105324819Y-40261904D02*
X105324819Y-40833332D01*
X105324819Y-40547618D02*
X104324819Y-40547618D01*
X104324819Y-40547618D02*
X104467676Y-40642856D01*
X104467676Y-40642856D02*
X104562914Y-40738094D01*
X104562914Y-40738094D02*
X104610533Y-40833332D01*
X125428571Y-58584819D02*
X125095238Y-58108628D01*
X124857143Y-58584819D02*
X124857143Y-57584819D01*
X124857143Y-57584819D02*
X125238095Y-57584819D01*
X125238095Y-57584819D02*
X125333333Y-57632438D01*
X125333333Y-57632438D02*
X125380952Y-57680057D01*
X125380952Y-57680057D02*
X125428571Y-57775295D01*
X125428571Y-57775295D02*
X125428571Y-57918152D01*
X125428571Y-57918152D02*
X125380952Y-58013390D01*
X125380952Y-58013390D02*
X125333333Y-58061009D01*
X125333333Y-58061009D02*
X125238095Y-58108628D01*
X125238095Y-58108628D02*
X124857143Y-58108628D01*
X126333333Y-58584819D02*
X125857143Y-58584819D01*
X125857143Y-58584819D02*
X125857143Y-57584819D01*
X127190476Y-58584819D02*
X126619048Y-58584819D01*
X126904762Y-58584819D02*
X126904762Y-57584819D01*
X126904762Y-57584819D02*
X126809524Y-57727676D01*
X126809524Y-57727676D02*
X126714286Y-57822914D01*
X126714286Y-57822914D02*
X126619048Y-57870533D01*
X122404761Y-25084819D02*
X122071428Y-24608628D01*
X121833333Y-25084819D02*
X121833333Y-24084819D01*
X121833333Y-24084819D02*
X122214285Y-24084819D01*
X122214285Y-24084819D02*
X122309523Y-24132438D01*
X122309523Y-24132438D02*
X122357142Y-24180057D01*
X122357142Y-24180057D02*
X122404761Y-24275295D01*
X122404761Y-24275295D02*
X122404761Y-24418152D01*
X122404761Y-24418152D02*
X122357142Y-24513390D01*
X122357142Y-24513390D02*
X122309523Y-24561009D01*
X122309523Y-24561009D02*
X122214285Y-24608628D01*
X122214285Y-24608628D02*
X121833333Y-24608628D01*
X122785714Y-24799104D02*
X123261904Y-24799104D01*
X122690476Y-25084819D02*
X123023809Y-24084819D01*
X123023809Y-24084819D02*
X123357142Y-25084819D01*
X124214285Y-25084819D02*
X123642857Y-25084819D01*
X123928571Y-25084819D02*
X123928571Y-24084819D01*
X123928571Y-24084819D02*
X123833333Y-24227676D01*
X123833333Y-24227676D02*
X123738095Y-24322914D01*
X123738095Y-24322914D02*
X123642857Y-24370533D01*
X137928571Y-81407200D02*
X138071428Y-81454819D01*
X138071428Y-81454819D02*
X138309523Y-81454819D01*
X138309523Y-81454819D02*
X138404761Y-81407200D01*
X138404761Y-81407200D02*
X138452380Y-81359580D01*
X138452380Y-81359580D02*
X138499999Y-81264342D01*
X138499999Y-81264342D02*
X138499999Y-81169104D01*
X138499999Y-81169104D02*
X138452380Y-81073866D01*
X138452380Y-81073866D02*
X138404761Y-81026247D01*
X138404761Y-81026247D02*
X138309523Y-80978628D01*
X138309523Y-80978628D02*
X138119047Y-80931009D01*
X138119047Y-80931009D02*
X138023809Y-80883390D01*
X138023809Y-80883390D02*
X137976190Y-80835771D01*
X137976190Y-80835771D02*
X137928571Y-80740533D01*
X137928571Y-80740533D02*
X137928571Y-80645295D01*
X137928571Y-80645295D02*
X137976190Y-80550057D01*
X137976190Y-80550057D02*
X138023809Y-80502438D01*
X138023809Y-80502438D02*
X138119047Y-80454819D01*
X138119047Y-80454819D02*
X138357142Y-80454819D01*
X138357142Y-80454819D02*
X138499999Y-80502438D01*
X139119047Y-80454819D02*
X139309523Y-80454819D01*
X139309523Y-80454819D02*
X139404761Y-80502438D01*
X139404761Y-80502438D02*
X139499999Y-80597676D01*
X139499999Y-80597676D02*
X139547618Y-80788152D01*
X139547618Y-80788152D02*
X139547618Y-81121485D01*
X139547618Y-81121485D02*
X139499999Y-81311961D01*
X139499999Y-81311961D02*
X139404761Y-81407200D01*
X139404761Y-81407200D02*
X139309523Y-81454819D01*
X139309523Y-81454819D02*
X139119047Y-81454819D01*
X139119047Y-81454819D02*
X139023809Y-81407200D01*
X139023809Y-81407200D02*
X138928571Y-81311961D01*
X138928571Y-81311961D02*
X138880952Y-81121485D01*
X138880952Y-81121485D02*
X138880952Y-80788152D01*
X138880952Y-80788152D02*
X138928571Y-80597676D01*
X138928571Y-80597676D02*
X139023809Y-80502438D01*
X139023809Y-80502438D02*
X139119047Y-80454819D01*
X139976190Y-80454819D02*
X139976190Y-81264342D01*
X139976190Y-81264342D02*
X140023809Y-81359580D01*
X140023809Y-81359580D02*
X140071428Y-81407200D01*
X140071428Y-81407200D02*
X140166666Y-81454819D01*
X140166666Y-81454819D02*
X140357142Y-81454819D01*
X140357142Y-81454819D02*
X140452380Y-81407200D01*
X140452380Y-81407200D02*
X140499999Y-81359580D01*
X140499999Y-81359580D02*
X140547618Y-81264342D01*
X140547618Y-81264342D02*
X140547618Y-80454819D01*
X141595237Y-81454819D02*
X141261904Y-80978628D01*
X141023809Y-81454819D02*
X141023809Y-80454819D01*
X141023809Y-80454819D02*
X141404761Y-80454819D01*
X141404761Y-80454819D02*
X141499999Y-80502438D01*
X141499999Y-80502438D02*
X141547618Y-80550057D01*
X141547618Y-80550057D02*
X141595237Y-80645295D01*
X141595237Y-80645295D02*
X141595237Y-80788152D01*
X141595237Y-80788152D02*
X141547618Y-80883390D01*
X141547618Y-80883390D02*
X141499999Y-80931009D01*
X141499999Y-80931009D02*
X141404761Y-80978628D01*
X141404761Y-80978628D02*
X141023809Y-80978628D01*
X142595237Y-81359580D02*
X142547618Y-81407200D01*
X142547618Y-81407200D02*
X142404761Y-81454819D01*
X142404761Y-81454819D02*
X142309523Y-81454819D01*
X142309523Y-81454819D02*
X142166666Y-81407200D01*
X142166666Y-81407200D02*
X142071428Y-81311961D01*
X142071428Y-81311961D02*
X142023809Y-81216723D01*
X142023809Y-81216723D02*
X141976190Y-81026247D01*
X141976190Y-81026247D02*
X141976190Y-80883390D01*
X141976190Y-80883390D02*
X142023809Y-80692914D01*
X142023809Y-80692914D02*
X142071428Y-80597676D01*
X142071428Y-80597676D02*
X142166666Y-80502438D01*
X142166666Y-80502438D02*
X142309523Y-80454819D01*
X142309523Y-80454819D02*
X142404761Y-80454819D01*
X142404761Y-80454819D02*
X142547618Y-80502438D01*
X142547618Y-80502438D02*
X142595237Y-80550057D01*
X143023809Y-80931009D02*
X143357142Y-80931009D01*
X143499999Y-81454819D02*
X143023809Y-81454819D01*
X143023809Y-81454819D02*
X143023809Y-80454819D01*
X143023809Y-80454819D02*
X143499999Y-80454819D01*
X143690476Y-81550057D02*
X144452380Y-81550057D01*
X144547619Y-80454819D02*
X144880952Y-81454819D01*
X144880952Y-81454819D02*
X145214285Y-80454819D01*
X146119047Y-81359580D02*
X146071428Y-81407200D01*
X146071428Y-81407200D02*
X145928571Y-81454819D01*
X145928571Y-81454819D02*
X145833333Y-81454819D01*
X145833333Y-81454819D02*
X145690476Y-81407200D01*
X145690476Y-81407200D02*
X145595238Y-81311961D01*
X145595238Y-81311961D02*
X145547619Y-81216723D01*
X145547619Y-81216723D02*
X145500000Y-81026247D01*
X145500000Y-81026247D02*
X145500000Y-80883390D01*
X145500000Y-80883390D02*
X145547619Y-80692914D01*
X145547619Y-80692914D02*
X145595238Y-80597676D01*
X145595238Y-80597676D02*
X145690476Y-80502438D01*
X145690476Y-80502438D02*
X145833333Y-80454819D01*
X145833333Y-80454819D02*
X145928571Y-80454819D01*
X145928571Y-80454819D02*
X146071428Y-80502438D01*
X146071428Y-80502438D02*
X146119047Y-80550057D01*
X147119047Y-81359580D02*
X147071428Y-81407200D01*
X147071428Y-81407200D02*
X146928571Y-81454819D01*
X146928571Y-81454819D02*
X146833333Y-81454819D01*
X146833333Y-81454819D02*
X146690476Y-81407200D01*
X146690476Y-81407200D02*
X146595238Y-81311961D01*
X146595238Y-81311961D02*
X146547619Y-81216723D01*
X146547619Y-81216723D02*
X146500000Y-81026247D01*
X146500000Y-81026247D02*
X146500000Y-80883390D01*
X146500000Y-80883390D02*
X146547619Y-80692914D01*
X146547619Y-80692914D02*
X146595238Y-80597676D01*
X146595238Y-80597676D02*
X146690476Y-80502438D01*
X146690476Y-80502438D02*
X146833333Y-80454819D01*
X146833333Y-80454819D02*
X146928571Y-80454819D01*
X146928571Y-80454819D02*
X147071428Y-80502438D01*
X147071428Y-80502438D02*
X147119047Y-80550057D01*
X148071428Y-81454819D02*
X147500000Y-81454819D01*
X147785714Y-81454819D02*
X147785714Y-80454819D01*
X147785714Y-80454819D02*
X147690476Y-80597676D01*
X147690476Y-80597676D02*
X147595238Y-80692914D01*
X147595238Y-80692914D02*
X147500000Y-80740533D01*
X148928571Y-77114700D02*
X150071429Y-77114700D01*
X135928571Y-77114700D02*
X137071429Y-77114700D01*
X136500000Y-77686128D02*
X136500000Y-76543271D01*
X113256905Y-69994819D02*
X113256905Y-68994819D01*
X113256905Y-68994819D02*
X113495000Y-68994819D01*
X113495000Y-68994819D02*
X113637857Y-69042438D01*
X113637857Y-69042438D02*
X113733095Y-69137676D01*
X113733095Y-69137676D02*
X113780714Y-69232914D01*
X113780714Y-69232914D02*
X113828333Y-69423390D01*
X113828333Y-69423390D02*
X113828333Y-69566247D01*
X113828333Y-69566247D02*
X113780714Y-69756723D01*
X113780714Y-69756723D02*
X113733095Y-69851961D01*
X113733095Y-69851961D02*
X113637857Y-69947200D01*
X113637857Y-69947200D02*
X113495000Y-69994819D01*
X113495000Y-69994819D02*
X113256905Y-69994819D01*
X114780714Y-69994819D02*
X114209286Y-69994819D01*
X114495000Y-69994819D02*
X114495000Y-68994819D01*
X114495000Y-68994819D02*
X114399762Y-69137676D01*
X114399762Y-69137676D02*
X114304524Y-69232914D01*
X114304524Y-69232914D02*
X114209286Y-69280533D01*
X116814819Y-43761904D02*
X117624342Y-43761904D01*
X117624342Y-43761904D02*
X117719580Y-43714285D01*
X117719580Y-43714285D02*
X117767200Y-43666666D01*
X117767200Y-43666666D02*
X117814819Y-43571428D01*
X117814819Y-43571428D02*
X117814819Y-43380952D01*
X117814819Y-43380952D02*
X117767200Y-43285714D01*
X117767200Y-43285714D02*
X117719580Y-43238095D01*
X117719580Y-43238095D02*
X117624342Y-43190476D01*
X117624342Y-43190476D02*
X116814819Y-43190476D01*
X117814819Y-42190476D02*
X117814819Y-42761904D01*
X117814819Y-42476190D02*
X116814819Y-42476190D01*
X116814819Y-42476190D02*
X116957676Y-42571428D01*
X116957676Y-42571428D02*
X117052914Y-42666666D01*
X117052914Y-42666666D02*
X117100533Y-42761904D01*
D12*
%TO.C,S1*%
X98750000Y-61000000D02*
X100250000Y-61000000D01*
X102750000Y-59750000D02*
X102750000Y-55250000D01*
X96250000Y-55250000D02*
X96250000Y-59750000D01*
X100250000Y-54000000D02*
X98750000Y-54000000D01*
%TO.C,SW0*%
X150620000Y-35300000D02*
X150620000Y-51040000D01*
X147000000Y-35300000D02*
X147000000Y-36540000D01*
X146000000Y-35300000D02*
X146000000Y-36540000D01*
X144700000Y-35300000D02*
X144700000Y-36540000D01*
X142580000Y-35300000D02*
X150620000Y-35300000D01*
X142580000Y-38120000D02*
X142580000Y-35300000D01*
X147000000Y-40300000D02*
X147000000Y-41608000D01*
X146000000Y-40300000D02*
X146000000Y-41608000D01*
X144700000Y-40300000D02*
X144700000Y-42877000D01*
X144700000Y-43963000D02*
X144700000Y-47877000D01*
X147000000Y-45232000D02*
X147000000Y-46608000D01*
X146000000Y-45232000D02*
X146000000Y-46608000D01*
X144700000Y-48963000D02*
X144700000Y-51040000D01*
X147000000Y-50232000D02*
X147000000Y-51040000D01*
X146000000Y-50232000D02*
X146000000Y-51040000D01*
X150620000Y-51040000D02*
X142580000Y-51040000D01*
X142580000Y-51040000D02*
X142580000Y-38720000D01*
X142580000Y-38420000D02*
X141970000Y-38860000D01*
X141970000Y-37980000D01*
X142580000Y-38420000D01*
G36*
X142580000Y-38420000D02*
G01*
X141970000Y-38860000D01*
X141970000Y-37980000D01*
X142580000Y-38420000D01*
G37*
%TO.C,C1*%
X129652677Y-28125000D02*
X130652677Y-28125000D01*
X130152677Y-27625000D02*
X130152677Y-28625000D01*
X135132323Y-25920000D02*
X135132323Y-36080000D01*
X135172323Y-25920000D02*
X135172323Y-36080000D01*
X135212323Y-25921000D02*
X135212323Y-36079000D01*
X135252323Y-25921000D02*
X135252323Y-36079000D01*
X135292323Y-25923000D02*
X135292323Y-36077000D01*
X135332323Y-25924000D02*
X135332323Y-36076000D01*
X135372323Y-25926000D02*
X135372323Y-36074000D01*
X135412323Y-25928000D02*
X135412323Y-36072000D01*
X135452323Y-25930000D02*
X135452323Y-36070000D01*
X135492323Y-25933000D02*
X135492323Y-36067000D01*
X135532323Y-25936000D02*
X135532323Y-36064000D01*
X135572323Y-25939000D02*
X135572323Y-36061000D01*
X135612323Y-25943000D02*
X135612323Y-36057000D01*
X135652323Y-25946000D02*
X135652323Y-36054000D01*
X135692323Y-25951000D02*
X135692323Y-36049000D01*
X135732323Y-25955000D02*
X135732323Y-36045000D01*
X135772323Y-25960000D02*
X135772323Y-36040000D01*
X135812323Y-25965000D02*
X135812323Y-36035000D01*
X135852323Y-25971000D02*
X135852323Y-36029000D01*
X135892323Y-25977000D02*
X135892323Y-36023000D01*
X135932323Y-25983000D02*
X135932323Y-36017000D01*
X135972323Y-25989000D02*
X135972323Y-36011000D01*
X136012323Y-25996000D02*
X136012323Y-36004000D01*
X136052323Y-26003000D02*
X136052323Y-35997000D01*
X136092323Y-26011000D02*
X136092323Y-35989000D01*
X136132323Y-26019000D02*
X136132323Y-35981000D01*
X136172323Y-26027000D02*
X136172323Y-35973000D01*
X136212323Y-26035000D02*
X136212323Y-35965000D01*
X136252323Y-26044000D02*
X136252323Y-35956000D01*
X136292323Y-26053000D02*
X136292323Y-35947000D01*
X136332323Y-26063000D02*
X136332323Y-35937000D01*
X136372323Y-26072000D02*
X136372323Y-35928000D01*
X136412323Y-26083000D02*
X136412323Y-35917000D01*
X136452323Y-26093000D02*
X136452323Y-35907000D01*
X136492323Y-26104000D02*
X136492323Y-35896000D01*
X136532323Y-26115000D02*
X136532323Y-35885000D01*
X136572323Y-26127000D02*
X136572323Y-35873000D01*
X136612323Y-26139000D02*
X136612323Y-35861000D01*
X136652323Y-26151000D02*
X136652323Y-35849000D01*
X136692323Y-26163000D02*
X136692323Y-35837000D01*
X136732323Y-26176000D02*
X136732323Y-35824000D01*
X136772323Y-26190000D02*
X136772323Y-35810000D01*
X136812323Y-26203000D02*
X136812323Y-35797000D01*
X136852323Y-26218000D02*
X136852323Y-35782000D01*
X136892323Y-26232000D02*
X136892323Y-35768000D01*
X136932323Y-26247000D02*
X136932323Y-35753000D01*
X136972323Y-26262000D02*
X136972323Y-35738000D01*
X137012323Y-26278000D02*
X137012323Y-35722000D01*
X137052323Y-26294000D02*
X137052323Y-35706000D01*
X137092323Y-26310000D02*
X137092323Y-35690000D01*
X137132323Y-26327000D02*
X137132323Y-35673000D01*
X137172323Y-26344000D02*
X137172323Y-35656000D01*
X137212323Y-26362000D02*
X137212323Y-35638000D01*
X137252323Y-26380000D02*
X137252323Y-35620000D01*
X137292323Y-26398000D02*
X137292323Y-35602000D01*
X137332323Y-26417000D02*
X137332323Y-35583000D01*
X137372323Y-26436000D02*
X137372323Y-35564000D01*
X137412323Y-26456000D02*
X137412323Y-35544000D01*
X137452323Y-26476000D02*
X137452323Y-35524000D01*
X137492323Y-26496000D02*
X137492323Y-35504000D01*
X137532323Y-26517000D02*
X137532323Y-35483000D01*
X137572323Y-26539000D02*
X137572323Y-35461000D01*
X137612323Y-26561000D02*
X137612323Y-35439000D01*
X137652323Y-26583000D02*
X137652323Y-29760000D01*
X137652323Y-32240000D02*
X137652323Y-35417000D01*
X137692323Y-26606000D02*
X137692323Y-29760000D01*
X137692323Y-32240000D02*
X137692323Y-35394000D01*
X137732323Y-26629000D02*
X137732323Y-29760000D01*
X137732323Y-32240000D02*
X137732323Y-35371000D01*
X137772323Y-26653000D02*
X137772323Y-29760000D01*
X137772323Y-32240000D02*
X137772323Y-35347000D01*
X137812323Y-26677000D02*
X137812323Y-29760000D01*
X137812323Y-32240000D02*
X137812323Y-35323000D01*
X137852323Y-26702000D02*
X137852323Y-29760000D01*
X137852323Y-32240000D02*
X137852323Y-35298000D01*
X137892323Y-26728000D02*
X137892323Y-29760000D01*
X137892323Y-32240000D02*
X137892323Y-35272000D01*
X137932323Y-26753000D02*
X137932323Y-29760000D01*
X137932323Y-32240000D02*
X137932323Y-35247000D01*
X137972323Y-26780000D02*
X137972323Y-29760000D01*
X137972323Y-32240000D02*
X137972323Y-35220000D01*
X138012323Y-26807000D02*
X138012323Y-29760000D01*
X138012323Y-32240000D02*
X138012323Y-35193000D01*
X138052323Y-26834000D02*
X138052323Y-29760000D01*
X138052323Y-32240000D02*
X138052323Y-35166000D01*
X138092323Y-26862000D02*
X138092323Y-29760000D01*
X138092323Y-32240000D02*
X138092323Y-35138000D01*
X138132323Y-26891000D02*
X138132323Y-29760000D01*
X138132323Y-32240000D02*
X138132323Y-35109000D01*
X138172323Y-26920000D02*
X138172323Y-29760000D01*
X138172323Y-32240000D02*
X138172323Y-35080000D01*
X138212323Y-26950000D02*
X138212323Y-29760000D01*
X138212323Y-32240000D02*
X138212323Y-35050000D01*
X138252323Y-26980000D02*
X138252323Y-29760000D01*
X138252323Y-32240000D02*
X138252323Y-35020000D01*
X138292323Y-27012000D02*
X138292323Y-29760000D01*
X138292323Y-32240000D02*
X138292323Y-34988000D01*
X138332323Y-27043000D02*
X138332323Y-29760000D01*
X138332323Y-32240000D02*
X138332323Y-34957000D01*
X138372323Y-27076000D02*
X138372323Y-29760000D01*
X138372323Y-32240000D02*
X138372323Y-34924000D01*
X138412323Y-27109000D02*
X138412323Y-29760000D01*
X138412323Y-32240000D02*
X138412323Y-34891000D01*
X138452323Y-27142000D02*
X138452323Y-29760000D01*
X138452323Y-32240000D02*
X138452323Y-34858000D01*
X138492323Y-27177000D02*
X138492323Y-29760000D01*
X138492323Y-32240000D02*
X138492323Y-34823000D01*
X138532323Y-27212000D02*
X138532323Y-29760000D01*
X138532323Y-32240000D02*
X138532323Y-34788000D01*
X138572323Y-27248000D02*
X138572323Y-29760000D01*
X138572323Y-32240000D02*
X138572323Y-34752000D01*
X138612323Y-27284000D02*
X138612323Y-29760000D01*
X138612323Y-32240000D02*
X138612323Y-34716000D01*
X138652323Y-27322000D02*
X138652323Y-29760000D01*
X138652323Y-32240000D02*
X138652323Y-34678000D01*
X138692323Y-27360000D02*
X138692323Y-29760000D01*
X138692323Y-32240000D02*
X138692323Y-34640000D01*
X138732323Y-27399000D02*
X138732323Y-29760000D01*
X138732323Y-32240000D02*
X138732323Y-34601000D01*
X138772323Y-27439000D02*
X138772323Y-29760000D01*
X138772323Y-32240000D02*
X138772323Y-34561000D01*
X138812323Y-27480000D02*
X138812323Y-29760000D01*
X138812323Y-32240000D02*
X138812323Y-34520000D01*
X138852323Y-27522000D02*
X138852323Y-29760000D01*
X138852323Y-32240000D02*
X138852323Y-34478000D01*
X138892323Y-27565000D02*
X138892323Y-29760000D01*
X138892323Y-32240000D02*
X138892323Y-34435000D01*
X138932323Y-27609000D02*
X138932323Y-29760000D01*
X138932323Y-32240000D02*
X138932323Y-34391000D01*
X138972323Y-27653000D02*
X138972323Y-29760000D01*
X138972323Y-32240000D02*
X138972323Y-34347000D01*
X139012323Y-27699000D02*
X139012323Y-29760000D01*
X139012323Y-32240000D02*
X139012323Y-34301000D01*
X139052323Y-27746000D02*
X139052323Y-29760000D01*
X139052323Y-32240000D02*
X139052323Y-34254000D01*
X139092323Y-27795000D02*
X139092323Y-29760000D01*
X139092323Y-32240000D02*
X139092323Y-34205000D01*
X139132323Y-27844000D02*
X139132323Y-29760000D01*
X139132323Y-32240000D02*
X139132323Y-34156000D01*
X139172323Y-27895000D02*
X139172323Y-29760000D01*
X139172323Y-32240000D02*
X139172323Y-34105000D01*
X139212323Y-27947000D02*
X139212323Y-29760000D01*
X139212323Y-32240000D02*
X139212323Y-34053000D01*
X139252323Y-28000000D02*
X139252323Y-29760000D01*
X139252323Y-32240000D02*
X139252323Y-34000000D01*
X139292323Y-28055000D02*
X139292323Y-29760000D01*
X139292323Y-32240000D02*
X139292323Y-33945000D01*
X139332323Y-28112000D02*
X139332323Y-29760000D01*
X139332323Y-32240000D02*
X139332323Y-33888000D01*
X139372323Y-28170000D02*
X139372323Y-29760000D01*
X139372323Y-32240000D02*
X139372323Y-33830000D01*
X139412323Y-28230000D02*
X139412323Y-29760000D01*
X139412323Y-32240000D02*
X139412323Y-33770000D01*
X139452323Y-28292000D02*
X139452323Y-29760000D01*
X139452323Y-32240000D02*
X139452323Y-33708000D01*
X139492323Y-28356000D02*
X139492323Y-29760000D01*
X139492323Y-32240000D02*
X139492323Y-33644000D01*
X139532323Y-28422000D02*
X139532323Y-29760000D01*
X139532323Y-32240000D02*
X139532323Y-33578000D01*
X139572323Y-28490000D02*
X139572323Y-29760000D01*
X139572323Y-32240000D02*
X139572323Y-33510000D01*
X139612323Y-28561000D02*
X139612323Y-29760000D01*
X139612323Y-32240000D02*
X139612323Y-33439000D01*
X139652323Y-28635000D02*
X139652323Y-29760000D01*
X139652323Y-32240000D02*
X139652323Y-33365000D01*
X139692323Y-28712000D02*
X139692323Y-29760000D01*
X139692323Y-32240000D02*
X139692323Y-33288000D01*
X139732323Y-28792000D02*
X139732323Y-29760000D01*
X139732323Y-32240000D02*
X139732323Y-33208000D01*
X139772323Y-28876000D02*
X139772323Y-29760000D01*
X139772323Y-32240000D02*
X139772323Y-33124000D01*
X139812323Y-28963000D02*
X139812323Y-29760000D01*
X139812323Y-32240000D02*
X139812323Y-33037000D01*
X139852323Y-29056000D02*
X139852323Y-29760000D01*
X139852323Y-32240000D02*
X139852323Y-32944000D01*
X139892323Y-29154000D02*
X139892323Y-29760000D01*
X139892323Y-32240000D02*
X139892323Y-32846000D01*
X139932323Y-29258000D02*
X139932323Y-29760000D01*
X139932323Y-32240000D02*
X139932323Y-32742000D01*
X139972323Y-29370000D02*
X139972323Y-29760000D01*
X139972323Y-32240000D02*
X139972323Y-32630000D01*
X140012323Y-29491000D02*
X140012323Y-29760000D01*
X140012323Y-32240000D02*
X140012323Y-32509000D01*
X140052323Y-29623000D02*
X140052323Y-29760000D01*
X140052323Y-32240000D02*
X140052323Y-32377000D01*
X140132323Y-29938000D02*
X140132323Y-32062000D01*
X140172323Y-30138000D02*
X140172323Y-31862000D01*
X140212323Y-30401000D02*
X140212323Y-31599000D01*
X130169783Y-29740000D02*
G75*
G02*
X130169783Y-32260000I4962540J-1260000D01*
G01*
%TO.C,Rp1*%
X101130000Y-38230000D02*
X101130000Y-44770000D01*
X101130000Y-44770000D02*
X101460000Y-44770000D01*
X101460000Y-38230000D02*
X101130000Y-38230000D01*
X103540000Y-38230000D02*
X103870000Y-38230000D01*
X103870000Y-38230000D02*
X103870000Y-44770000D01*
X103870000Y-44770000D02*
X103540000Y-44770000D01*
%TO.C,RL1*%
X122730000Y-59130000D02*
X129270000Y-59130000D01*
X122730000Y-59460000D02*
X122730000Y-59130000D01*
X122730000Y-61540000D02*
X122730000Y-61870000D01*
X122730000Y-61870000D02*
X129270000Y-61870000D01*
X129270000Y-59130000D02*
X129270000Y-59460000D01*
X129270000Y-61870000D02*
X129270000Y-61540000D01*
%TO.C,RA1*%
X119730000Y-25630000D02*
X126270000Y-25630000D01*
X119730000Y-25960000D02*
X119730000Y-25630000D01*
X119730000Y-28040000D02*
X119730000Y-28370000D01*
X119730000Y-28370000D02*
X126270000Y-28370000D01*
X126270000Y-25630000D02*
X126270000Y-25960000D01*
X126270000Y-28370000D02*
X126270000Y-28040000D01*
%TO.C,SOURCE_VCC1*%
X137790000Y-79710000D02*
X137790000Y-74290000D01*
X146510000Y-74290000D02*
X137790000Y-74290000D01*
X146510000Y-79710000D02*
X137790000Y-79710000D01*
X148210000Y-75590000D02*
X146510000Y-74290000D01*
X148210000Y-78410000D02*
X146510000Y-79710000D01*
X148210000Y-78410000D02*
X148210000Y-75590000D01*
%TO.C,D1*%
X111435000Y-71955000D02*
X111435000Y-75045000D01*
X111435000Y-71955170D02*
G75*
G02*
X116985000Y-73500000I2560000J-1544830D01*
G01*
X116985000Y-73500000D02*
G75*
G02*
X111435000Y-75044830I-2990000J0D01*
G01*
X116495000Y-73500000D02*
G75*
G02*
X111495000Y-73500000I-2500000J0D01*
G01*
X111495000Y-73500000D02*
G75*
G02*
X116495000Y-73500000I2500000J0D01*
G01*
%TO.C,U1*%
X118360000Y-40750000D02*
X118360000Y-42000000D01*
X118360000Y-44000000D02*
X118360000Y-45250000D01*
X118360000Y-45250000D02*
X128640000Y-45250000D01*
X128640000Y-40750000D02*
X118360000Y-40750000D01*
X128640000Y-45250000D02*
X128640000Y-40750000D01*
X118300000Y-48250000D02*
X128700000Y-48250000D01*
X128700000Y-37750000D01*
X118300000Y-37750000D01*
X118300000Y-48250000D01*
X118360000Y-42000000D02*
G75*
G02*
X118360000Y-44000000I0J-1000000D01*
G01*
%TD*%
M02*
