%TF.GenerationSoftware,KiCad,Pcbnew,9.0.5*%
%TF.CreationDate,2025-10-25T15:08:27+02:00*%
%TF.ProjectId,Timmer-555-monostable,54696d6d-6572-42d3-9535-352d6d6f6e6f,rev?*%
%TF.SameCoordinates,Original*%
%TF.FileFunction,Copper,L2,Bot*%
%TF.FilePolarity,Positive*%
%FSLAX46Y46*%
G04 Gerber Fmt 4.6, Leading zero omitted, Abs format (unit mm)*
G04 Created by KiCad (PCBNEW 9.0.5) date 2025-10-25 15:08:27*
%MOMM*%
%LPD*%
G01*
G04 APERTURE LIST*
G04 Aperture macros list*
%AMRoundRect*
0 Rectangle with rounded corners*
0 $1 Rounding radius*
0 $2 $3 $4 $5 $6 $7 $8 $9 X,Y pos of 4 corners*
0 Add a 4 corners polygon primitive as box body*
4,1,4,$2,$3,$4,$5,$6,$7,$8,$9,$2,$3,0*
0 Add four circle primitives for the rounded corners*
1,1,$1+$1,$2,$3*
1,1,$1+$1,$4,$5*
1,1,$1+$1,$6,$7*
1,1,$1+$1,$8,$9*
0 Add four rect primitives between the rounded corners*
20,1,$1+$1,$2,$3,$4,$5,0*
20,1,$1+$1,$4,$5,$6,$7,0*
20,1,$1+$1,$6,$7,$8,$9,0*
20,1,$1+$1,$8,$9,$2,$3,0*%
G04 Aperture macros list end*
%TA.AperFunction,ComponentPad*%
%ADD10C,2.000000*%
%TD*%
%TA.AperFunction,ComponentPad*%
%ADD11RoundRect,0.250001X-1.149999X1.149999X-1.149999X-1.149999X1.149999X-1.149999X1.149999X1.149999X0*%
%TD*%
%TA.AperFunction,ComponentPad*%
%ADD12C,2.800000*%
%TD*%
%TA.AperFunction,ComponentPad*%
%ADD13RoundRect,0.250000X-0.750000X-0.750000X0.750000X-0.750000X0.750000X0.750000X-0.750000X0.750000X0*%
%TD*%
%TA.AperFunction,ComponentPad*%
%ADD14C,1.600000*%
%TD*%
%TA.AperFunction,ComponentPad*%
%ADD15RoundRect,0.760000X1.140000X1.140000X-1.140000X1.140000X-1.140000X-1.140000X1.140000X-1.140000X0*%
%TD*%
%TA.AperFunction,ComponentPad*%
%ADD16C,3.800000*%
%TD*%
%TA.AperFunction,ComponentPad*%
%ADD17R,1.800000X1.800000*%
%TD*%
%TA.AperFunction,ComponentPad*%
%ADD18C,1.800000*%
%TD*%
%TA.AperFunction,ComponentPad*%
%ADD19RoundRect,0.250000X0.550000X-0.950000X0.550000X0.950000X-0.550000X0.950000X-0.550000X-0.950000X0*%
%TD*%
%TA.AperFunction,ComponentPad*%
%ADD20O,1.600000X2.400000*%
%TD*%
%TA.AperFunction,Conductor*%
%ADD21C,1.000000*%
%TD*%
G04 APERTURE END LIST*
D10*
%TO.P,S1,1,1*%
%TO.N,GND*%
X97250000Y-60750000D03*
X97250000Y-54250000D03*
%TO.P,S1,2,2*%
%TO.N,TRG*%
X101750000Y-60750000D03*
X101750000Y-54250000D03*
%TD*%
D11*
%TO.P,SW0,1,C*%
%TO.N,Net-(SW0-C)*%
X146500000Y-38420000D03*
D12*
%TO.P,SW0,2,B*%
%TO.N,Net-(SW0-B)*%
X146500000Y-43420000D03*
%TO.P,SW0,3,A*%
%TO.N,unconnected-(SW0-A-Pad3)*%
X146500000Y-48420000D03*
%TD*%
D13*
%TO.P,C1,1*%
%TO.N,THR*%
X131382323Y-31000000D03*
D10*
%TO.P,C1,2*%
%TO.N,GND*%
X138882323Y-31000000D03*
%TD*%
D14*
%TO.P,Rp1,1*%
%TO.N,Net-(SW0-C)*%
X102500000Y-37690000D03*
%TO.P,Rp1,2*%
%TO.N,TRG*%
X102500000Y-45310000D03*
%TD*%
%TO.P,RL1,1*%
%TO.N,Net-(U1-Q)*%
X122190000Y-60500000D03*
%TO.P,RL1,2*%
%TO.N,Net-(D1-A)*%
X129810000Y-60500000D03*
%TD*%
%TO.P,RA1,1*%
%TO.N,Net-(SW0-C)*%
X119190000Y-27000000D03*
%TO.P,RA1,2*%
%TO.N,THR*%
X126810000Y-27000000D03*
%TD*%
D15*
%TO.P,SOURCE_VCC1,1*%
%TO.N,Net-(SW0-B)*%
X145500000Y-77000000D03*
D16*
%TO.P,SOURCE_VCC1,2*%
%TO.N,GND*%
X140500000Y-77000000D03*
%TD*%
D17*
%TO.P,D1,1,K*%
%TO.N,GND*%
X112725000Y-73500000D03*
D18*
%TO.P,D1,2,A*%
%TO.N,Net-(D1-A)*%
X115265000Y-73500000D03*
%TD*%
D19*
%TO.P,U1,1,GND*%
%TO.N,GND*%
X119690000Y-46810000D03*
D20*
%TO.P,U1,2,TR*%
%TO.N,TRG*%
X122230000Y-46810000D03*
%TO.P,U1,3,Q*%
%TO.N,Net-(U1-Q)*%
X124770000Y-46810000D03*
%TO.P,U1,4,R*%
%TO.N,unconnected-(U1-R-Pad4)*%
X127310000Y-46810000D03*
%TO.P,U1,5,CV*%
%TO.N,unconnected-(U1-CV-Pad5)*%
X127310000Y-39190000D03*
%TO.P,U1,6,THR*%
%TO.N,THR*%
X124770000Y-39190000D03*
%TO.P,U1,7,DIS*%
X122230000Y-39190000D03*
%TO.P,U1,8,VCC*%
%TO.N,Net-(SW0-C)*%
X119690000Y-39190000D03*
%TD*%
D21*
%TO.N,GND*%
X97250000Y-63750000D02*
X97250000Y-60750000D01*
X98500000Y-65000000D02*
X97250000Y-63750000D01*
X105000000Y-65000000D02*
X98500000Y-65000000D01*
X97250000Y-54250000D02*
X97250000Y-60750000D01*
%TO.N,TRG*%
X101750000Y-60750000D02*
X101750000Y-54250000D01*
X101750000Y-51250000D02*
X101750000Y-54250000D01*
X102500000Y-50500000D02*
X101750000Y-51250000D01*
%TO.N,GND*%
X97500000Y-61000000D02*
X97250000Y-60750000D01*
%TO.N,TRG*%
X102500000Y-45310000D02*
X102500000Y-50500000D01*
%TO.N,GND*%
X143500000Y-30500000D02*
X143000000Y-31000000D01*
X143000000Y-31000000D02*
X138882323Y-31000000D01*
X152500000Y-30500000D02*
X143500000Y-30500000D01*
X153500000Y-31500000D02*
X152500000Y-30500000D01*
X153500000Y-55000000D02*
X153500000Y-31500000D01*
X151000000Y-57500000D02*
X153500000Y-55000000D01*
X151000000Y-81500000D02*
X151000000Y-57500000D01*
X150500000Y-82000000D02*
X151000000Y-81500000D01*
X140500000Y-80500000D02*
X142000000Y-82000000D01*
X142000000Y-82000000D02*
X150500000Y-82000000D01*
X140500000Y-77000000D02*
X140500000Y-80500000D01*
%TO.N,THR*%
X130810000Y-31000000D02*
X126810000Y-27000000D01*
X131382323Y-31000000D02*
X130810000Y-31000000D01*
%TO.N,Net-(D1-A)*%
X115265000Y-73500000D02*
X119500000Y-73500000D01*
X129810000Y-63190000D02*
X129810000Y-60500000D01*
X119500000Y-73500000D02*
X129810000Y-63190000D01*
%TO.N,GND*%
X119690000Y-50310000D02*
X105000000Y-65000000D01*
X112725000Y-76725000D02*
X113500000Y-77500000D01*
X112725000Y-73500000D02*
X112725000Y-72725000D01*
X112725000Y-73500000D02*
X112725000Y-76725000D01*
X114000000Y-77000000D02*
X140500000Y-77000000D01*
X119690000Y-46810000D02*
X119690000Y-50310000D01*
X113500000Y-77500000D02*
X114000000Y-77000000D01*
X112725000Y-72725000D02*
X105000000Y-65000000D01*
%TO.N,Net-(SW0-C)*%
X119690000Y-36690000D02*
X116000000Y-33000000D01*
X111310000Y-37690000D02*
X116000000Y-33000000D01*
X119690000Y-41690000D02*
X121000000Y-43000000D01*
X117500000Y-27000000D02*
X119190000Y-27000000D01*
X134000000Y-43000000D02*
X138580000Y-38420000D01*
X138580000Y-38420000D02*
X146500000Y-38420000D01*
X119690000Y-39190000D02*
X119690000Y-36690000D01*
X119690000Y-39190000D02*
X119690000Y-41690000D01*
X102500000Y-37690000D02*
X111310000Y-37690000D01*
X121000000Y-43000000D02*
X134000000Y-43000000D01*
X116000000Y-33000000D02*
X116000000Y-28500000D01*
X116000000Y-28500000D02*
X117500000Y-27000000D01*
%TO.N,THR*%
X122230000Y-39190000D02*
X124770000Y-39190000D01*
X126810000Y-27000000D02*
X126810000Y-31190000D01*
X126810000Y-31190000D02*
X124770000Y-33230000D01*
X124770000Y-33230000D02*
X124770000Y-39190000D01*
%TO.N,Net-(U1-Q)*%
X124770000Y-46810000D02*
X124770000Y-54230000D01*
X122190000Y-56810000D02*
X122190000Y-60500000D01*
X124770000Y-54230000D02*
X122190000Y-56810000D01*
%TO.N,TRG*%
X122230000Y-44730000D02*
X122000000Y-44500000D01*
X122230000Y-46810000D02*
X122230000Y-44730000D01*
X122000000Y-44500000D02*
X103310000Y-44500000D01*
X103310000Y-44500000D02*
X102500000Y-45310000D01*
%TO.N,Net-(SW0-B)*%
X145500000Y-61000000D02*
X137500000Y-53000000D01*
X139000000Y-45000000D02*
X145000000Y-45000000D01*
X145000000Y-45000000D02*
X146500000Y-43500000D01*
X137500000Y-53000000D02*
X137500000Y-46500000D01*
X137500000Y-46500000D02*
X139000000Y-45000000D01*
X145500000Y-77000000D02*
X145500000Y-61000000D01*
%TD*%
M02*
