%TF.GenerationSoftware,KiCad,Pcbnew,8.0.4*%
%TF.CreationDate,2024-08-26T23:55:17+02:00*%
%TF.ProjectId,regulateur_tension,72656775-6c61-4746-9575-725f74656e73,rev?*%
%TF.SameCoordinates,Original*%
%TF.FileFunction,Copper,L1,Top*%
%TF.FilePolarity,Positive*%
%FSLAX46Y46*%
G04 Gerber Fmt 4.6, Leading zero omitted, Abs format (unit mm)*
G04 Created by KiCad (PCBNEW 8.0.4) date 2024-08-26 23:55:17*
%MOMM*%
%LPD*%
G01*
G04 APERTURE LIST*
%TA.AperFunction,ComponentPad*%
%ADD10C,2.600000*%
%TD*%
%TA.AperFunction,ComponentPad*%
%ADD11R,2.600000X2.600000*%
%TD*%
%TA.AperFunction,ComponentPad*%
%ADD12O,2.200000X2.200000*%
%TD*%
%TA.AperFunction,ComponentPad*%
%ADD13R,2.200000X2.200000*%
%TD*%
%TA.AperFunction,ComponentPad*%
%ADD14R,2.400000X2.400000*%
%TD*%
%TA.AperFunction,ComponentPad*%
%ADD15C,2.400000*%
%TD*%
%TA.AperFunction,ComponentPad*%
%ADD16O,1.600000X1.600000*%
%TD*%
%TA.AperFunction,ComponentPad*%
%ADD17C,1.600000*%
%TD*%
%TA.AperFunction,ComponentPad*%
%ADD18O,1.905000X2.000000*%
%TD*%
%TA.AperFunction,ComponentPad*%
%ADD19R,1.905000X2.000000*%
%TD*%
%TA.AperFunction,ComponentPad*%
%ADD20C,2.340000*%
%TD*%
%TA.AperFunction,Conductor*%
%ADD21C,0.800000*%
%TD*%
G04 APERTURE END LIST*
D10*
%TO.P,INPUT_AC1,2,Pin_2*%
%TO.N,Net-(D2-K)*%
X30600000Y-44250000D03*
D11*
%TO.P,INPUT_AC1,1,Pin_1*%
%TO.N,Net-(D1-A)*%
X30600000Y-39250000D03*
%TD*%
D12*
%TO.P,D2,2,A*%
%TO.N,GND*%
X50920000Y-54490000D03*
D13*
%TO.P,D2,1,K*%
%TO.N,Net-(D2-K)*%
X40760000Y-54490000D03*
%TD*%
D12*
%TO.P,D1,2,A*%
%TO.N,Net-(D1-A)*%
X22980000Y-34170000D03*
D13*
%TO.P,D1,1,K*%
%TO.N,Net-(D1-K)*%
X22980000Y-24010000D03*
%TD*%
D14*
%TO.P,C2,1*%
%TO.N,Net-(D1-K)*%
X58540000Y-21470000D03*
D15*
%TO.P,C2,2*%
%TO.N,GND*%
X58540000Y-28970000D03*
%TD*%
D12*
%TO.P,D3,2,A*%
%TO.N,Net-(D2-K)*%
X33140000Y-54490000D03*
D13*
%TO.P,D3,1,K*%
%TO.N,Net-(D1-K)*%
X22980000Y-54490000D03*
%TD*%
D12*
%TO.P,D4,2,A*%
%TO.N,GND*%
X50920000Y-36710000D03*
D13*
%TO.P,D4,1,K*%
%TO.N,Net-(D1-A)*%
X40760000Y-36710000D03*
%TD*%
D16*
%TO.P,R1,2*%
%TO.N,Net-(RegulateurV1-ADJ)*%
X71120000Y-35560000D03*
D17*
%TO.P,R1,1*%
%TO.N,Net-(OUTPUT1-Pin_2)*%
X76200000Y-35560000D03*
%TD*%
D18*
%TO.P,RegulateurV1,3,VI*%
%TO.N,Net-(D1-K)*%
X78860000Y-26550000D03*
%TO.P,RegulateurV1,2,VO*%
%TO.N,Net-(OUTPUT1-Pin_2)*%
X76320000Y-26550000D03*
D19*
%TO.P,RegulateurV1,1,ADJ*%
%TO.N,Net-(RegulateurV1-ADJ)*%
X73780000Y-26550000D03*
%TD*%
D14*
%TO.P,C1,1*%
%TO.N,Net-(D1-K)*%
X40760000Y-24010000D03*
D15*
%TO.P,C1,2*%
%TO.N,GND*%
X48260000Y-24010000D03*
%TD*%
D20*
%TO.P,R2,1,1*%
%TO.N,Net-(RegulateurV1-ADJ)*%
X73940000Y-45720000D03*
%TO.P,R2,2,2*%
%TO.N,GND*%
X78940000Y-45720000D03*
%TO.P,R2,3,3*%
X83940000Y-45720000D03*
%TD*%
D11*
%TO.P,OUTPUT1,1,Pin_1*%
%TO.N,GND*%
X91560000Y-36630000D03*
D10*
%TO.P,OUTPUT1,2,Pin_2*%
%TO.N,Net-(OUTPUT1-Pin_2)*%
X91560000Y-31630000D03*
%TD*%
D21*
%TO.N,GND*%
X78940000Y-45720000D02*
X78940000Y-49410000D01*
%TO.N,Net-(RegulateurV1-ADJ)*%
X71120000Y-40640000D02*
X71120000Y-35560000D01*
X73940000Y-43460000D02*
X71120000Y-40640000D01*
X73940000Y-45720000D02*
X73940000Y-43460000D01*
%TO.N,Net-(OUTPUT1-Pin_2)*%
X78740000Y-35560000D02*
X76200000Y-35560000D01*
X82670000Y-31630000D02*
X78740000Y-35560000D01*
X91560000Y-31630000D02*
X82670000Y-31630000D01*
X76320000Y-35440000D02*
X76200000Y-35560000D01*
X76320000Y-26550000D02*
X76320000Y-35440000D01*
%TO.N,Net-(RegulateurV1-ADJ)*%
X71120000Y-27940000D02*
X71120000Y-35560000D01*
X72510000Y-26550000D02*
X71120000Y-27940000D01*
X73780000Y-26550000D02*
X72510000Y-26550000D01*
%TO.N,GND*%
X73860000Y-54490000D02*
X78940000Y-49410000D01*
X50920000Y-54490000D02*
X73860000Y-54490000D01*
X50920000Y-54490000D02*
X50920000Y-36710000D01*
X83940000Y-49410000D02*
X78940000Y-49410000D01*
X83940000Y-44250000D02*
X91560000Y-36630000D01*
X83940000Y-49410000D02*
X83940000Y-44250000D01*
%TO.N,Net-(D1-K)*%
X78860000Y-24130000D02*
X78860000Y-26550000D01*
X58540000Y-21470000D02*
X76200000Y-21470000D01*
X76200000Y-21470000D02*
X78860000Y-24130000D01*
X43180000Y-18930000D02*
X56000000Y-18930000D01*
X56000000Y-18930000D02*
X58540000Y-21470000D01*
X40760000Y-21350000D02*
X43180000Y-18930000D01*
X40760000Y-24010000D02*
X40760000Y-21350000D01*
%TO.N,GND*%
X53460000Y-28970000D02*
X58540000Y-28970000D01*
X53340000Y-29090000D02*
X53460000Y-28970000D01*
X48260000Y-24010000D02*
X53340000Y-29090000D01*
X58540000Y-29090000D02*
X58540000Y-28970000D01*
X50920000Y-36710000D02*
X58540000Y-29090000D01*
%TO.N,Net-(D1-A)*%
X38220000Y-39250000D02*
X40760000Y-36710000D01*
X30600000Y-39250000D02*
X38220000Y-39250000D01*
%TO.N,Net-(D2-K)*%
X33140000Y-54490000D02*
X40760000Y-54490000D01*
X33140000Y-51950000D02*
X33140000Y-54490000D01*
X30600000Y-49410000D02*
X33140000Y-51950000D01*
X30600000Y-44250000D02*
X30600000Y-49410000D01*
%TO.N,Net-(D1-K)*%
X20440000Y-51950000D02*
X22980000Y-54490000D01*
X20440000Y-26550000D02*
X20440000Y-51950000D01*
X22980000Y-24010000D02*
X20440000Y-26550000D01*
%TO.N,Net-(D1-A)*%
X22980000Y-34170000D02*
X25520000Y-34170000D01*
X25520000Y-34170000D02*
X30600000Y-39250000D01*
%TO.N,Net-(D1-K)*%
X22980000Y-24010000D02*
X40760000Y-24010000D01*
%TD*%
M02*
